<svg width="33" height="32" viewBox="0 0 33 32" fill="none" xmlns="http://www.w3.org/2000/svg">
<rect x="1" y="0.5" width="31" height="31" rx="15.5" fill="white"/>
<g clip-path="url(#clip0_2101_247470)">
<path d="M22.5 11.9974H20.3667L19.1667 10.6641H15.1667V11.9974H18.5667L19.8333 13.3307H22.5V21.3307H11.8333V15.3307H10.5V21.3307C10.5 22.0641 11.1 22.6641 11.8333 22.6641H22.5C23.2333 22.6641 23.8333 22.0641 23.8333 21.3307V13.3307C23.8333 12.5974 23.2333 11.9974 22.5 11.9974ZM13.8333 17.3307C13.8333 20.2974 17.4267 21.7907 19.5267 19.6907C21.6267 17.5907 20.1333 13.9974 17.1667 13.9974C15.3267 13.9974 13.8333 15.4907 13.8333 17.3307ZM17.1667 15.3307C18.26 15.3641 19.1333 16.2374 19.1667 17.3307C19.1333 18.4241 18.26 19.2974 17.1667 19.3307C16.0733 19.2974 15.2 18.4241 15.1667 17.3307C15.2 16.2374 16.0733 15.3641 17.1667 15.3307ZM11.8333 11.9974H13.8333V10.6641H11.8333V8.66406H10.5V10.6641H8.5V11.9974H10.5V13.9974H11.8333" fill="#335CEB"/>
</g>
<rect x="1" y="0.5" width="31" height="31" rx="15.5" stroke="#E5E5E5"/>
<defs>
<clipPath id="clip0_2101_247470">
<rect width="16" height="16" fill="white" transform="translate(8.5 8)"/>
</clipPath>
</defs>
</svg>
