<?xml version="1.0" encoding="utf-8"?>
<!-- Generator: Adobe Illustrator 18.1.1, SVG Export Plug-In . SVG Version: 6.00 Build 0)  -->
<!DOCTYPE svg PUBLIC "-//W3C//DTD SVG 1.1//EN" "http://www.w3.org/Graphics/SVG/1.1/DTD/svg11.dtd">
<svg version="1.1" id="Layer_1" xmlns="http://www.w3.org/2000/svg" xmlns:xlink="http://www.w3.org/1999/xlink" x="0px" y="0px"
	 viewBox="0 0 199.2 40.7" enable-background="new 0 0 199.2 40.7" xml:space="preserve">
<polygon fill="#BE1E2D" points="-2723.2,863.1 -2723.2,885.9 -2684.5,885.9 -2659.1,863.1 "/>
<path fill="#BE1E2D" d="M-2673.2,903.2l-22.9,19.5c3.1-1.6,6.8-2.6,10.7-2.6c11.1,0,20.1,7.4,20.1,16.6s-9,16.6-20.1,16.6
	c-8.2,0-15.3-4.1-18.4-10c-1.1-2-1.7-4.3-1.7-6.6c0-3.1,1-5.9,2.8-8.4l-20.1,17.1c1,3.6,2.6,7,4.7,10.1c6.8,10,18.9,16.6,32.7,16.6
	c21.3,0,38.6-15.8,38.6-35.4C-2646.8,921.1-2657.9,907.9-2673.2,903.2z"/>
<path fill="#771223" d="M-3098.5,336.8c-1.8-5.3-4.5-10.1-7.9-14.1c-3.5-4.1-7.7-7.3-12.6-9.7c-4.9-2.4-10.5-3.6-16.7-3.6
	c-6.1,0-11.8,1.2-16.7,3.6c-2.6,1.3-5,2.8-7.2,4.5c-3.6-2.5-7.2-4.4-10.9-5.7c-4.4-1.6-9.7-2.4-15.6-2.4c-6.7,0-12.6,1.2-17.6,3.7
	c-4.2,2-7.8,4.7-10.9,8v-10.2h-64.2v25.4h23.4l-12,10.8l4.6,16.5h12.2c3.3,0,5.7,0.5,7.2,1.5c1.1,0.7,1.4,1.4,1.4,2.5v0.2
	c0,1.2-0.3,1.9-1.2,2.6c-1,0.8-2.7,1.3-4.8,1.3c-2.9,0-5.5-0.6-8-1.9c-2.6-1.4-5.2-3.3-7.7-5.8l-2.8-2.8l-19.1,19.1l2.5,2.8
	c4.1,4.6,9.2,8.3,15,11c5.9,2.7,13,4.1,21.1,4.1c4.7,0,9.1-0.7,13.2-2c4.1-1.4,7.8-3.4,10.8-6c1.8-1.5,3.4-3.3,4.8-5.3
	c0.9,1.2,1.8,2.2,2.8,3.2c3.2,3.2,6.9,5.7,11.1,7.4c4.2,1.8,9.4,2.6,15.5,2.6c4.6,0,9.1-0.7,13.3-2.2c4.2-1.5,8-3.6,11.2-6.3
	c0.7-0.6,1.3-1.2,2-1.9c2.9,2.8,6.2,5.1,9.9,6.8c5,2.4,10.6,3.6,16.7,3.6c6.1,0,11.8-1.2,16.7-3.6c4.9-2.4,9.2-5.6,12.7-9.7
	c3.5-4,6.2-8.8,8-14.2c1.8-5.3,2.7-11,2.7-16.9v-0.2C-3095.8,347.7-3096.7,342-3098.5,336.8z M-3096.8,353.8
	c0,5.8-0.9,11.4-2.7,16.6c-1.8,5.3-4.4,9.9-7.8,13.9c-3.4,4-7.6,7.2-12.4,9.5c-4.8,2.3-10.3,3.5-16.3,3.5c-6,0-11.5-1.2-16.3-3.5
	c-3.6-1.7-6.9-4-9.7-6.7c-0.2-0.2-0.5-0.5-0.7-0.7c-0.2,0.3-0.5,0.5-0.7,0.7c-0.7,0.7-1.3,1.3-1.9,1.9c-3.1,2.6-6.7,4.7-10.8,6.1
	c-4.1,1.4-8.4,2.1-13,2.1c-5.9,0-11-0.9-15.1-2.6c-4.1-1.7-7.7-4.1-10.8-7.2c-1-1-2-2.2-2.9-3.4c-0.2-0.3-0.4-0.6-0.6-0.9
	c-0.2,0.3-0.4,0.6-0.6,0.9c-1.4,2-3,3.8-4.8,5.4c-2.9,2.5-6.5,4.4-10.5,5.8c-4,1.3-8.3,2-12.9,2c-8,0-14.9-1.3-20.6-4
	c-5.7-2.6-10.7-6.3-14.7-10.8l-1.9-2.1l17.7-17.7l2.1,2.1c2.6,2.6,5.3,4.6,8,6c2.6,1.3,5.4,2,8.4,2c2.4,0,4.2-0.5,5.4-1.5
	c1.1-0.9,1.6-1.9,1.6-3.4v-0.2c0-1.5-0.6-2.5-1.9-3.4c-1.7-1.1-4.3-1.6-7.8-1.6h-11.4l-4.2-15.2l13.5-12.1h-25v-23.4h62.2v10.3v1.6
	c0.3-0.4,0.7-0.8,1-1.2c3.1-3.6,6.9-6.5,11.3-8.6c4.9-2.4,10.7-3.6,17.2-3.6c5.8,0,10.9,0.8,15.2,2.4c3.6,1.3,7.1,3.1,10.5,5.5
	c0.2,0.1,0.4,0.3,0.6,0.4l0.1,0.1c0,0,0.1,0.1,0.1,0.1c0.3-0.2,0.5-0.4,0.8-0.7c2.1-1.6,4.4-3.1,6.8-4.2c4.8-2.3,10.3-3.5,16.3-3.5
	c6,0,11.4,1.2,16.2,3.5c4.8,2.3,8.9,5.5,12.3,9.4c3.3,3.9,5.9,8.6,7.7,13.8c1.8,5.2,2.7,10.7,2.7,16.5V353.8z"/>
<g>
	<path fill="#00AEEF" d="M-2989.9,951.3c11.3,0,20.5,9.2,20.5,20.5s-9.2,20.5-20.5,20.5c-11.3,0-20.5-9.2-20.5-20.5
		S-3001.2,951.3-2989.9,951.3 M-2989.9,881.3c-50,0-90.5,40.5-90.5,90.5c0,50,40.5,90.5,90.5,90.5c50,0,90.5-40.5,90.5-90.5
		C-2899.4,921.8-2939.9,881.3-2989.9,881.3L-2989.9,881.3z"/>
</g>
<g>
	<path fill="#00AEEF" d="M-3571.5,895.3c2.6,0,7.7,0.6,12,5c4.3,4.3,5,9.3,5,12s-0.6,7.7-5,12c-4.3,4.3-9.3,5-12,5s-7.7-0.6-12-5
		c-4.3-4.3-5-9.3-5-12s0.6-7.7,5-12C-3579.2,895.9-3574.1,895.3-3571.5,895.3 M-3571.5,843.3c-17.6,0-35.3,6.7-48.7,20.2
		c-26.9,26.9-26.9,70.5,0,97.5c13.5,13.5,31.1,20.2,48.7,20.2c17.6,0,35.3-6.7,48.7-20.2c26.9-26.9,26.9-70.5,0-97.5
		C-3536.2,850-3553.9,843.3-3571.5,843.3L-3571.5,843.3z"/>
</g>
<path d="M-3620.4,960.7l-0.5-0.5c-26.5-26.5-26.5-69.6,0-96.1l97.4-97.4l0.5,0.5c26.5,26.5,26.5,69.6,0,96.1L-3620.4,960.7z"/>
<g>
	<path fill="#6D6E71" d="M-3664,464.5l11.1,29.7l10.7-29.6c0.6-1.8,0.9-2.9,0.9-3.4c0-1.4-0.7-2.1-2-2.1c-0.5,0-1.2,0.1-2.2,0.3
		s-1.7,0.3-2.2,0.3c-2.1,0-3.1-1-3.1-3.1c0-2.2,1.5-3.3,4.6-3.3c0.1,0,0.4,0,0.8,0c0.3,0,0.6,0.1,0.8,0.1l4,0.4
		c0.9,0.3,1.8,0.4,2.7,0.4c1.3,0,3.4-0.2,6.3-0.5c1.8-0.2,3-0.3,3.8-0.3c2.7,0,4.1,1.1,4.1,3.2c0,2.1-1.1,3.2-3.3,3.2
		c-0.7,0-1.2-0.1-1.5-0.2c-0.9-0.2-1.6-0.3-2-0.3c-1.1,0-2.3,1.5-3.5,4.6l-13.4,34.2c-1.1,2.9-3.1,4.4-5.8,4.4
		c-2.6,0-4.5-1.5-5.6-4.4l-13.7-35.2c-0.9-2.3-1.9-3.5-3.1-3.5c-0.4,0-1.1,0.1-2,0.3c-0.9,0.2-1.5,0.3-2,0.3c-2.1,0-3.1-1-3.1-2.9
		c0-2.3,1.5-3.4,4.4-3.4c0.5,0,0.9,0,1.1,0.1l4,0.5c1.3,0.2,2.7,0.3,4,0.3c1.1,0,2.7-0.1,4.7-0.4l3.1-0.4c0.3-0.1,0.8-0.1,1.3-0.1
		c2.8,0,4.2,1.1,4.2,3.3c0,2.1-1.2,3.1-3.6,3.1c-0.8,0-1.3,0-1.6-0.1c-1.2-0.3-2-0.5-2.3-0.5c-1,0-1.5,0.4-1.5,1.3
		c0,0.4,0.1,1.1,0.4,1.9L-3664,464.5z"/>
	<path fill="#6D6E71" d="M-3579.4,472.9c0,2.4-0.2,3.9-0.5,4.4c-0.3,0.5-1.2,0.8-2.8,0.8h-30.2c-0.8,0-1.4,0.1-1.6,0.3
		c-0.3,0.2-0.4,0.6-0.4,1.1c0,4.7,1.4,8.7,4.3,11.9c2.8,3.2,6.4,4.7,10.6,4.7c2.8,0,5.3-0.8,7.6-2.3c2.3-1.5,3.8-3.4,4.5-5.8
		l0.9-2.8c0.4-1.5,1.5-2.3,3.1-2.3c2.3,0,3.5,1.2,3.5,3.6c0,4.1-2.1,7.8-6.3,11c-4.2,3.2-8.9,4.8-14.2,4.8c-6.6,0-11.9-2.2-15.8-6.7
		c-3.9-4.5-5.9-10.4-5.9-18c0-7.7,2.1-14,6.3-18.8c4.2-4.8,9.6-7.2,16.3-7.2c5.9,0,10.8,2,14.7,6
		C-3581.4,461.7-3579.4,466.8-3579.4,472.9z M-3613.8,470.5c0,0.9,0.7,1.3,2.1,1.3h22.7c1.3,0,2-0.4,2-1.3c0-3.4-1.3-6.3-3.8-8.7
		c-2.5-2.5-5.5-3.7-8.9-3.7c-3.5,0-6.8,1.3-9.7,3.8C-3612.4,464.4-3613.8,467.3-3613.8,470.5z"/>
	<path fill="#6D6E71" d="M-3558.1,456.1v2.6c3.3-4.6,7.7-6.9,13.2-6.9c4.4,0,8,1.2,10.8,3.7c2.8,2.5,4.1,5.7,4.1,9.6
		c0,2.8-0.7,5-2.1,6.8c-1.4,1.7-3.2,2.6-5.5,2.6c-1.5,0-2.7-0.4-3.7-1.3c-1-0.9-1.5-2-1.5-3.2c0-1,0.4-1.9,1.1-2.7
		c0.8-0.8,1.6-1.2,2.7-1.2c0.2,0,0.6,0.1,1.2,0.3c0.4-0.8,0.6-1.5,0.6-2.1c0-1.8-0.8-3.4-2.4-4.6c-1.6-1.3-3.6-1.9-6-1.9
		c-4.9,0-8.2,2.2-9.9,6.6c-1,2.7-1.5,6.8-1.5,12.3v6.3c0,4.2,0,6.6,0.1,7.1c0.3,3.6,1.3,5.4,2.9,5.4c0.8,0,1.7-0.1,2.6-0.3
		c0.7-0.2,1.3-0.2,1.8-0.2c2,0,3,1,3,3c0,2.2-1.3,3.3-3.9,3.3h-0.4c-0.9,0-2.4-0.1-4.3-0.3c-1.9-0.2-3.4-0.3-4.3-0.3
		c-2.5,0-4.5,0.1-6,0.2l-5.3,0.5c-2.6,0-3.9-1.1-3.9-3.3c0-2,1.2-2.9,3.6-2.9c0.6,0,1.1,0,1.4,0.1l1.4,0.3c0.6,0.1,1.1,0.2,1.3,0.2
		c1.6,0,2.5-1.5,2.6-4.4v-4.8l-0.3-21.5c-0.2-3.7-1.1-5.6-2.8-5.6c-0.5,0-1.2,0.1-2.1,0.3c-0.9,0.2-1.6,0.3-2.1,0.3
		c-2.1,0-3.1-1-3.1-3c0-2.2,1.4-3.3,4.1-3.3c0.6,0,1.6,0.1,2.8,0.2c1.3,0.2,2.2,0.2,2.8,0.2c0.5,0,1.3-0.1,2.5-0.2
		c0.5-0.2,1.1-0.2,1.8-0.2C-3558.9,453.4-3558.1,454.3-3558.1,456.1z"/>
	<path fill="#6D6E71" d="M-3510.5,473.3v12.3c0,3.2,0,5,0.1,5.6c0.3,2.8,1.2,4.3,2.6,4.3c0.3,0,1.1-0.2,2.4-0.5
		c0.3-0.1,0.8-0.2,1.4-0.2c2.4,0,3.6,1,3.6,3.1c0,0.9-0.4,1.6-1.2,2.3c-0.8,0.6-1.8,0.9-3,0.9c-1,0-2.6-0.1-4.6-0.4
		c-2.1-0.3-3.6-0.4-4.6-0.4c-1.6,0-3.5,0.1-5.5,0.4c-2.5,0.3-4.1,0.5-4.9,0.5c-2.5,0-3.8-1.1-3.8-3.2c0-2.1,1.1-3.1,3.3-3.1
		c0.5,0,1.3,0.1,2.2,0.3c1,0.2,1.7,0.3,2.2,0.3c1.5,0,2.5-2,2.8-6.1c0-0.3,0-3,0-8.2v-7.8c0-5.2,0-8,0-8.2c-0.3-4-1.3-6-2.9-6
		c-0.5,0-1.2,0.1-2.2,0.3c-0.9,0.2-1.6,0.3-2.1,0.3c-2.3,0-3.4-1-3.4-3c0-2.1,1.4-3.2,4.2-3.2c1.2,0,2.1,0,2.6,0.1
		c2,0.3,3.3,0.4,3.9,0.4c0.5,0,1.3-0.1,2.3-0.2c1-0.2,1.8-0.2,2.3-0.2c1.8,0,2.8,1.2,2.8,3.7c0,0.3,0,0.6-0.1,1.1
		c-0.1,0.5-0.1,0.9-0.1,1.1c-0.1,0.5-0.1,2.5-0.2,5.9C-3510.5,467.9-3510.5,470.6-3510.5,473.3z M-3515.4,448.5
		c-1.5,0-2.7-0.5-3.7-1.6c-1-1-1.6-2.3-1.6-3.7c0-1.5,0.5-2.7,1.6-3.7c1-1,2.3-1.5,3.7-1.5c1.5,0,2.7,0.5,3.7,1.5
		c1,1,1.6,2.2,1.6,3.7c0,1.5-0.5,2.7-1.6,3.7C-3512.7,447.9-3514,448.5-3515.4,448.5z"/>
	<path fill="#6D6E71" d="M-3468.4,444.8c0-0.9,0.3-1.7,0.9-2.4c-1.1-1-2.7-1.5-4.7-1.5c-2.7,0-4.9,0.9-6.4,2.6
		c-1.6,1.7-2.3,4.2-2.3,7.3v1.7c0,0.8,0.4,1.2,1.2,1.2h7.4c2.1,0,3.1,1.1,3.1,3.4c0,2.3-1,3.4-3.1,3.4h-7c-1.1,0-1.6,0.6-1.6,1.7
		v26.6c0,2.3,0,3.7,0.1,4.1c0.3,1.7,1.1,2.6,2.4,2.6c0.3,0,1.1-0.2,2.4-0.5c0.9-0.1,1.5-0.2,1.9-0.2c2.1,0,3.2,1,3.2,3.1
		c0,2.2-1.3,3.3-3.9,3.3c-1.1,0-2.7-0.1-4.9-0.4s-3.8-0.4-4.9-0.4c-1.9,0-3.6,0.1-5.1,0.3c-2.5,0.3-4,0.5-4.7,0.5
		c-2.7,0-4.1-1.1-4.1-3.3c0-0.8,0.3-1.5,1-2.2c0.7-0.6,1.4-0.9,2.3-0.9c0.6,0,1.3,0.1,2.1,0.3c0.8,0.2,1.5,0.3,2.1,0.3
		c1.2,0,2-0.8,2.3-2.3c0.3-1.5,0.5-5.2,0.6-11v-19.9c0-1.1-0.6-1.7-1.7-1.7h-4.7c-2.2,0-3.3-1.2-3.3-3.5c0-2.2,1.1-3.3,3.4-3.3h5.4
		c0.8,0,1.2-0.4,1.2-1.2v-1.7c0-5,1.3-8.8,4-11.5c2.7-2.7,6.4-4,11.3-4c4,0,7.2,0.8,9.6,2.4c2.4,1.6,3.6,3.8,3.6,6.5
		c0,1.4-0.4,2.5-1.3,3.4c-0.9,0.9-2,1.3-3.3,1.3c-1.3,0-2.3-0.4-3.2-1.2C-3468,446.9-3468.4,445.9-3468.4,444.8z"/>
	<path fill="#6D6E71" d="M-3448.7,462.5l10.9,32.1l11.6-31.6c0.3-0.9,0.5-1.6,0.5-2.1c0-1.1-0.7-1.6-2.2-1.6c-0.8,0-1.4,0.1-1.8,0.2
		c-1,0.1-1.7,0.2-2,0.2c-2.1,0-3.1-1-3.1-3c0-2.1,1.4-3.2,4.1-3.2c0.4,0,1,0.1,1.9,0.2l3.4,0.5c0.9,0.1,1.8,0.2,2.8,0.2
		c1.1,0,2.7-0.1,4.7-0.4c2.1-0.3,3.7-0.4,4.7-0.4c2.7,0,4.1,1.1,4.1,3.2c0,2.1-1,3.1-3.1,3.1c-0.6,0-1.1-0.1-1.4-0.2
		c-0.8-0.2-1.4-0.3-1.7-0.3c-1.2,0-2.4,1.6-3.7,4.8l-12.9,32.2c-2.8,7.1-5.5,12.3-8.1,15.6c-4.3,5.5-9.7,8.2-16.1,8.2
		c-3.9,0-7.1-1-9.7-2.9c-2.6-2-3.9-4.3-3.9-7.1c0-2,0.6-3.6,1.7-4.8c1.1-1.2,2.6-1.8,4.5-1.8c1.5,0,2.7,0.4,3.6,1.3
		c0.9,0.9,1.4,1.9,1.4,3.2c0,2-0.9,3.3-2.8,3.9c0.9,1.4,2.8,2.1,5.4,2.1c3.4,0,6.4-1.2,9.1-3.7c2.7-2.5,4-5.3,4-8.4
		c0-1.6-0.9-4.5-2.6-8.8l-10.4-26.4l-1.1-3c-1.1-2.8-2.3-4.3-3.7-4.3c-0.4,0-1.1,0.1-2,0.2c-1,0.2-1.6,0.2-1.9,0.2
		c-2.2,0-3.3-1-3.3-3c0-2.1,1.5-3.2,4.4-3.2c0.9,0,1.7,0,2.2,0.1l3.8,0.6c0.1,0,0.3,0,0.8,0c0.4,0.1,0.8,0.1,1.1,0.1
		c2.3,0,4.7-0.1,7.3-0.4c2-0.2,3.3-0.3,3.9-0.3c2.7,0,4,1,4,3.1c0,2.1-1.2,3.1-3.6,3.1c-0.4,0-1-0.1-1.8-0.2
		c-0.8-0.1-1.4-0.2-1.8-0.2c-0.9,0-1.3,0.4-1.3,1.3C-3449,461.1-3448.9,461.7-3448.7,462.5z"/>
</g>
<path fill="none" d="M-3864.2-125.2c-0.6,0.7-1.2,1.5-1.7,2.4c0.1,0.7,0.1,1.5,0.1,2.2C-3865.3-122.2-3864.8-123.8-3864.2-125.2z"/>
<path fill="none" d="M-3869.5-108.2c-0.1,0.1-0.1,0.2-0.2,0.3c-0.3,2.3-0.5,4.8-0.7,7.5c0.6-0.6,1.2-1.1,1.8-1.7
	c0.2-3.2,0.5-6.3,0.9-9.1C-3868.2-110.2-3868.8-109.2-3869.5-108.2z"/>
<path fill="none" d="M-3839.5-109.9c6,1.4,11.3,4.4,15.8,9.1c6.4,6.6,9.6,15,9.6,25.1c0,1.2-0.1,2.4-0.2,3.5c0,0,0,0,0-0.1
	c1-4.4,1.5-11.4,1.5-20.8c0-13.8-1.2-23.1-3.5-27.8c-0.2-0.4-0.4-0.7-0.6-1.1l-20.8,2.6C-3838.5-116.9-3839.1-113.8-3839.5-109.9z"
	/>
<path d="M-3898.4-109.8c-2.5,2.2-5.5,3.3-9.1,3.3c-0.9,0-2.1-0.1-3.8-0.4l-1.5,20.6c4-1.1,7.1-1.7,9.4-1.7c1.3,0,2.6,0.1,3.8,0.4
	c-0.1-1.7-0.1-3.4-0.1-5.2C-3899.7-99-3899.2-104.7-3898.4-109.8z"/>
<path d="M-3878.1-141.7c-6.1-3.5-14.8-5.3-26.2-5.3c-11.8,0-20.9,2.3-27.4,6.9c-6.4,4.6-10.8,11.3-13.1,20l27.3,4.9
	c0.8-5.1,2.2-8.7,4.3-10.8c2.1-2.1,4.9-3.1,8.3-3.1c3.3,0,5.9,0.9,7.8,2.8c1,1,1.8,2.2,2.2,3.6c1.8-4.4,4.1-8.2,6.9-11.3
	C-3885-137.1-3881.7-139.7-3878.1-141.7z"/>
<path d="M-3893.7-61.2c-2.5,2.6-5.6,4-9.4,4c-3.7,0-6.7-1.1-9.1-3.4c-2.4-2.2-4.1-6.3-5.3-12.1l-28.8,3.8c1.9,6.5,4.6,11.8,8.1,16.1
	c3.5,4.3,8,7.5,13.5,9.7c5.5,2.2,12.9,3.3,22.4,3.3c9.7,0,17.5-1.5,23.4-4.5c0.2-0.1,0.5-0.3,0.7-0.4c-0.3-0.1-0.6-0.3-0.8-0.4
	C-3885.1-48.4-3890-53.8-3893.7-61.2z"/>
<path d="M-3867.8-111.2c0.5-3.4,1.2-6.5,2-9.4c0-0.8,0-1.5-0.1-2.2c-0.1,0.2-0.2,0.4-0.4,0.6c-1.4,2.6-2.6,7.3-3.4,14.3
	c0.1-0.1,0.1-0.2,0.2-0.3C-3868.8-109.2-3868.2-110.2-3867.8-111.2z"/>
<path d="M-3868.4-82.9c-0.7,2.1-1,4.5-1,7.2c0,5.6,1.4,10,4.2,13.2c0.5,0.6,1.1,1.1,1.7,1.6c-1.3-3.1-2.5-6.8-3.4-11
	C-3867.6-75.3-3868.1-79-3868.4-82.9z"/>
<path d="M-3869.7-107.9c-2.5,3.5-6.1,6.6-10.9,9.3c4,1,7.1,2.1,9.2,3.5c0.9,0.5,1.7,1.1,2.5,1.7c0-0.1,0-0.2,0-0.3
	c0-2.9,0.1-5.7,0.2-8.3c-0.6,0.5-1.2,1.1-1.8,1.7C-3870.2-103.2-3870-105.7-3869.7-107.9z"/>
<path d="M-3889.5-72.8c0-4.8-1.2-8.5-3.7-11.2c-1.7-1.8-3.8-3-6.3-3.6c0.5,10.4,2.3,18.9,5.5,25.6c0.1,0.3,0.3,0.5,0.4,0.8
	c0.1-0.1,0.2-0.2,0.3-0.3C-3890.8-64.3-3889.5-68.1-3889.5-72.8z"/>
<path d="M-3894.2-118.7c0-1.5-0.2-2.8-0.6-4c-1.6,3.8-2.8,8.1-3.6,12.9c0.1-0.1,0.3-0.2,0.4-0.3
	C-3895.5-112.5-3894.2-115.4-3894.2-118.7z"/>
<path d="M-3860.5-74.4c0,4.7-1,9.3-2.9,13.7c2.5,2,5.3,3,8.6,3c3.8,0,6.9-1.4,9.5-4.3c2.6-2.9,3.8-7.2,3.8-12.9
	c0-5.9-1.3-10.3-4-13.4c-2.6-3.1-5.9-4.6-9.8-4.6c-3.7,0-6.9,1.3-9.5,3.8c0.5,0.7,1,1.4,1.4,2.2
	C-3861.4-83.3-3860.5-79.2-3860.5-74.4z"/>
<path d="M-3786.9-118.3c-1-4.1-2.3-7.6-3.9-10.7c-1.6-3-3.9-6-6.7-8.7c-2.8-2.8-6.5-5-11-6.7c-4.5-1.7-10.2-2.6-17.2-2.6
	c-5.2,0-9.9,0.5-14.1,1.5c1.6,0.4,3.1,0.8,4.4,1.4c4.8,1.9,8.8,4.7,11.9,8.4s5.6,8.3,7.2,13.9l-0.6,0.1c0.2,0.4,0.4,0.7,0.6,1.1
	c2.3,4.7,3.5,14,3.5,27.8c0,9.4-0.5,16.3-1.5,20.8c0,0,0,0,0,0.1c-0.5,5.5-2,10.6-4.7,15.3c-3.2,5.7-7.7,10-13.5,12.9
	c-2.4,1.2-5.1,2.2-8,2.9c4,1,8.6,1.5,13.8,1.5c15.6,0,26.6-4.4,32.9-13.1c6.4-8.7,9.6-22.5,9.6-41.4
	C-3784-102.5-3785-110.6-3786.9-118.3z"/>
<path d="M-3845-118.3c-0.8-4-2-6.8-3.8-8.5c-1.8-1.7-4-2.5-6.6-2.5c-3.6,0-6.5,1.4-8.9,4.1c-0.6,1.4-1.1,3-1.6,4.6
	c0,0.1,0,0.1,0,0.2c0,3.3-0.7,6.4-2,9.2c-0.4,2.8-0.7,5.9-0.9,9.1c2.9-2.6,5.8-4.7,8.9-6.1c3.6-1.7,7.8-2.5,12.6-2.5
	c2.7,0,5.2,0.3,7.7,0.8c0.4-3.9,1.1-7,1.9-9.4L-3845-118.3z"/>
<path d="M-3868.4-82.9c0.3,3.9,0.9,7.6,1.6,11.1c0.9,4.2,2,7.9,3.4,11c0,0,0.1,0.1,0.1,0.1c1.9-4.4,2.9-9,2.9-13.7
	c0-4.8-1-9-2.9-12.4c-0.4-0.8-0.9-1.5-1.4-2.2c-0.2,0.2-0.4,0.4-0.6,0.6C-3866.7-86.9-3867.8-85-3868.4-82.9z"/>
<path d="M-3865.8-120.4c0-0.1,0-0.1,0-0.2c-0.8,2.9-1.5,6-2,9.4C-3866.4-114.1-3865.8-117.1-3865.8-120.4z"/>
<path d="M-3865.4-88.4c0.2-0.2,0.4-0.4,0.6-0.6c-1.2-1.7-2.6-3.1-4.2-4.4c0,3.7,0.2,7.2,0.5,10.6
	C-3867.8-85-3866.7-86.9-3865.4-88.4z"/>
<path d="M-3863.4-60.6C-3863.4-60.6-3863.4-60.7-3863.4-60.6c0-0.1,0-0.1-0.1-0.2C-3863.4-60.7-3863.4-60.7-3863.4-60.6z"/>
<text transform="matrix(1 0 0 1 -4434.0249 -163.8339)" font-family="'Arial-Black'" font-size="145.0894">360</text>
<text transform="matrix(1 0 0 1 -4295.6919 -7.1307)" font-family="'Eagle-Book'" font-size="145.0894" letter-spacing="-11">360</text>
<text transform="matrix(1 0 0 1 -3655.6904 -80.3242)" font-family="'GothamBlack'" font-size="145.0894" letter-spacing="-5">360</text>
<text transform="matrix(1 0 0 1 -3280.3574 -50.9909)" font-family="'GothamBlack'" font-size="145.0894" letter-spacing="-5">360</text>
<text transform="matrix(1 0 0 1 -3280.3574 137.1662)" font-family="'GothamBlack'" font-size="145.0894" letter-spacing="-5">360</text>
<path fill="#BE1E2D" d="M-3179.7,451.7c-1.7-4.9-4.1-9.2-7.2-12.8c-3.1-3.7-6.9-6.6-11.3-8.7c-4.4-2.1-9.4-3.2-14.9-3.2
	c-5.6,0-10.6,1.1-15,3.2c-2.9,1.4-5.5,3.1-7.8,5.2c-1.2,1.1-2.4,2.3-3.5,3.5c-2.8,3.3-5.1,7.2-6.8,11.6c-0.2,0.4-0.3,0.8-0.5,1.3
	c-0.6,1.8-1.2,3.7-1.6,5.6c-0.7,3.2-1,6.5-1,10v0.2c0,5.5,0.8,10.7,2.5,15.6c1.7,4.9,4,9.2,7.1,12.8c0.2,0.2,0.4,0.4,0.6,0.7
	c3,3.3,6.5,6,10.7,8c4.4,2.1,9.4,3.2,15,3.2s10.6-1.1,15-3.2c4.4-2.1,8.2-5.1,11.4-8.7c3.1-3.7,5.6-8,7.2-12.9
	c1.7-4.9,2.5-10.1,2.5-15.6v-0.2C-3177.2,461.8-3178,456.6-3179.7,451.7z M-3198.9,467.7c0,3.1-0.3,5.9-1,8.5
	c-0.7,2.6-1.6,4.8-2.8,6.7c-1.2,1.9-2.7,3.4-4.5,4.4c-1.8,1-3.7,1.6-5.9,1.6c-2.1,0-4.1-0.5-5.9-1.6c-1.8-1-3.3-2.5-4.6-4.4
	c-1.3-1.9-2.2-4.1-2.9-6.8c-0.7-2.6-1.1-5.5-1.1-8.6v-0.2c0-3.1,0.3-6,1-8.6c0.7-2.6,1.6-4.8,2.9-6.7c1.3-1.9,2.8-3.3,4.5-4.3
	c1.7-1,3.7-1.6,5.8-1.6c2.1,0,4.1,0.5,5.9,1.6c1.8,1.1,3.3,2.6,4.6,4.4c1.3,1.9,2.2,4.1,2.9,6.7c0.7,2.6,1.1,5.4,1.1,8.6V467.7z"/>
<linearGradient id="SVGID_1_" gradientUnits="userSpaceOnUse" x1="-3249.1951" y1="467.4714" x2="-3177.2134" y2="467.4714">
	<stop  offset="0.5979" style="stop-color:#FFFFFF"/>
	<stop  offset="1" style="stop-color:#000000"/>
</linearGradient>
<path opacity="0.39" fill="url(#SVGID_1_)" d="M-3179.7,451.7c-1.7-4.9-4.1-9.2-7.2-12.8c-3.1-3.7-6.9-6.6-11.3-8.7
	c-4.4-2.1-9.4-3.2-14.9-3.2c-5.6,0-10.6,1.1-15,3.2c-2.9,1.4-5.5,3.1-7.8,5.2c-1.2,1.1-2.4,2.3-3.5,3.5c-2.8,3.3-5.1,7.2-6.8,11.6
	c-0.2,0.4-0.3,0.8-0.5,1.3c-0.6,1.8-1.2,3.7-1.6,5.6c-0.7,3.2-1,6.5-1,10v0.2c0,5.5,0.8,10.7,2.5,15.6c1.7,4.9,4,9.2,7.1,12.8
	c0.2,0.2,0.4,0.4,0.6,0.7c3,3.3,6.5,6,10.7,8c4.4,2.1,9.4,3.2,15,3.2s10.6-1.1,15-3.2c4.4-2.1,8.2-5.1,11.4-8.7
	c3.1-3.7,5.6-8,7.2-12.9c1.7-4.9,2.5-10.1,2.5-15.6v-0.2C-3177.2,461.8-3178,456.6-3179.7,451.7z M-3198.9,467.7
	c0,3.1-0.3,5.9-1,8.5c-0.7,2.6-1.6,4.8-2.8,6.7c-1.2,1.9-2.7,3.4-4.5,4.4c-1.8,1-3.7,1.6-5.9,1.6c-2.1,0-4.1-0.5-5.9-1.6
	c-1.8-1-3.3-2.5-4.6-4.4c-1.3-1.9-2.2-4.1-2.9-6.8c-0.7-2.6-1.1-5.5-1.1-8.6v-0.2c0-3.1,0.3-6,1-8.6c0.7-2.6,1.6-4.8,2.9-6.7
	c1.3-1.9,2.8-3.3,4.5-4.3c1.7-1,3.7-1.6,5.8-1.6c2.1,0,4.1,0.5,5.9,1.6c1.8,1.1,3.3,2.6,4.6,4.4c1.3,1.9,2.2,4.1,2.9,6.7
	c0.7,2.6,1.1,5.4,1.1,8.6V467.7z"/>
<text transform="matrix(1 0 0 1 -3655.6907 38.6664)" font-family="'NexaBold'" font-size="145.0894" letter-spacing="-5">360</text>
<text transform="matrix(1 0 0 1 -3660.6907 174.6664)" font-family="'StencilStd'" font-size="145.0894" letter-spacing="-5">360</text>
<text transform="matrix(1 0 0 1 -4052.6917 137.166)" font-family="'Eagle-Book'" font-size="145.0894" letter-spacing="-5">360</text>
<path fill="none" d="M-3267.5,470.9c-3.4,0-6.1,0.9-7.9,2.8c-1.9,1.9-2.8,4.3-2.8,7.1v0.2c0,2.8,1,5.2,2.9,7.2c2,2,4.6,3,8.1,3
	c3.4,0,6.1-1,7.9-2.9c1.9-1.9,2.8-4.3,2.8-7.1V481c0-2.8-1-5.2-2.9-7.1C-3261.4,471.9-3264.1,470.9-3267.5,470.9z"/>
<path fill="#BE1E2D" d="M-3243.5,496.1c-3.1-3.7-5.4-7.9-7.1-12.8c-1.7-4.9-2.5-10.1-2.5-15.6v-0.2c0-3.4,0.3-6.8,1-10
	c0-0.2,0.1-0.4,0.1-0.6c-2.9-0.9-6-1.4-9.2-1.4c-3.9,0-7.1,0.6-9.7,1.8c-2.6,1.2-5,2.6-7.1,4.2c0.5-4.9,1.9-8.8,4.3-11.9
	c2.3-3.1,5.8-4.6,10.4-4.6c3.1,0,5.9,0.5,8.3,1.6c1.8,0.8,3.6,1.8,5.3,3c1.6-4,3.7-7.6,6.4-10.6c1.1-1.3,2.3-2.5,3.5-3.5
	c0.3-0.2,0.6-0.5,0.8-0.7c-3.4-2.4-6.8-4.2-10.4-5.5c-4-1.5-8.7-2.2-14.2-2.2c-6.1,0-11.4,1.1-15.9,3.3c-4.5,2.2-8.3,5.2-11.3,9
	c-3,3.8-5.2,8.3-6.7,13.5c-1.2,4-1.9,8.3-2.1,12.9c-0.1,1.3-0.1,2.6-0.1,4v0.2c0,7.3,0.9,13.2,2.6,17.8c0.7,1.8,1.4,3.5,2.3,5
	c1.3,2.4,2.9,4.5,4.6,6.3c2.8,2.8,6.1,5,9.8,6.6c3.7,1.6,8.4,2.3,13.9,2.3c4.2,0,8.2-0.6,12-1.9c3.8-1.3,7.1-3.1,9.8-5.6
	c0.9-0.8,1.8-1.7,2.6-2.7c-0.3-0.3-0.6-0.7-0.9-1C-3243.1,496.5-3243.3,496.3-3243.5,496.1z M-3256.5,481.2c0,2.8-0.9,5.2-2.8,7.1
	c-1.9,1.9-4.5,2.9-7.9,2.9c-3.4,0-6.1-1-8.1-3c-2-2-2.9-4.4-2.9-7.2v-0.2c0-2.8,0.9-5.2,2.8-7.1c1.9-1.9,4.5-2.8,7.9-2.8
	c3.4,0,6.1,1,8.1,2.9c2,1.9,2.9,4.3,2.9,7.1V481.2z"/>
<linearGradient id="SVGID_2_" gradientUnits="userSpaceOnUse" x1="-3299.7029" y1="467.4714" x2="-3238.9783" y2="467.4714">
	<stop  offset="0.5979" style="stop-color:#FFFFFF"/>
	<stop  offset="1" style="stop-color:#000000"/>
</linearGradient>
<path opacity="0.39" fill="url(#SVGID_2_)" d="M-3243.5,496.1c-3.1-3.7-5.4-7.9-7.1-12.8c-1.7-4.9-2.5-10.1-2.5-15.6v-0.2
	c0-3.4,0.3-6.8,1-10c0-0.2,0.1-0.4,0.1-0.6c-2.9-0.9-6-1.4-9.2-1.4c-3.9,0-7.1,0.6-9.7,1.8c-2.6,1.2-5,2.6-7.1,4.2
	c0.5-4.9,1.9-8.8,4.3-11.9c2.3-3.1,5.8-4.6,10.4-4.6c3.1,0,5.9,0.5,8.3,1.6c1.8,0.8,3.6,1.8,5.3,3c1.6-4,3.7-7.6,6.4-10.6
	c1.1-1.3,2.3-2.5,3.5-3.5c0.3-0.2,0.6-0.5,0.8-0.7c-3.4-2.4-6.8-4.2-10.4-5.5c-4-1.5-8.7-2.2-14.2-2.2c-6.1,0-11.4,1.1-15.9,3.3
	c-4.5,2.2-8.3,5.2-11.3,9c-3,3.8-5.2,8.3-6.7,13.5c-1.2,4-1.9,8.3-2.1,12.9c-0.1,1.3-0.1,2.6-0.1,4v0.2c0,7.3,0.9,13.2,2.6,17.8
	c0.7,1.8,1.4,3.5,2.3,5c1.3,2.4,2.9,4.5,4.6,6.3c2.8,2.8,6.1,5,9.8,6.6c3.7,1.6,8.4,2.3,13.9,2.3c4.2,0,8.2-0.6,12-1.9
	c3.8-1.3,7.1-3.1,9.8-5.6c0.9-0.8,1.8-1.7,2.6-2.7c-0.3-0.3-0.6-0.7-0.9-1C-3243.1,496.5-3243.3,496.3-3243.5,496.1z M-3256.5,481.2
	c0,2.8-0.9,5.2-2.8,7.1c-1.9,1.9-4.5,2.9-7.9,2.9c-3.4,0-6.1-1-8.1-3c-2-2-2.9-4.4-2.9-7.2v-0.2c0-2.8,0.9-5.2,2.8-7.1
	c1.9-1.9,4.5-2.8,7.9-2.8c3.4,0,6.1,1,8.1,2.9c2,1.9,2.9,4.3,2.9,7.1V481.2z"/>
<path fill="#BE1E2D" d="M-3352.3,428.6V446h29.8l-17.9,16.1l3.1,11.2h9.1c4.1,0,7.2,0.7,9.4,2.1c2.2,1.4,3.3,3.4,3.3,5.9v0.2
	c0,2.4-0.9,4.3-2.7,5.7c-1.8,1.4-4.2,2.2-7.3,2.2c-3.6,0-6.8-0.8-9.8-2.3c-3-1.6-5.9-3.7-8.7-6.6l-13.6,13.6
	c3.8,4.2,8.3,7.6,13.7,10.1c5.4,2.5,11.8,3.7,19.4,3.7c4.3,0,8.3-0.6,11.9-1.8c3.7-1.2,6.8-3,9.5-5.2c2.2-1.8,4-4,5.4-6.5
	c-0.3-0.5-0.6-1-0.9-1.6c-0.9-1.5-1.6-3.2-2.3-5c-1.7-4.6-2.6-10.6-2.6-17.8v-0.2c0-1.3,0-2.7,0.1-4c0-0.4,0.1-0.8,0.1-1.3
	c-1.1-0.7-2.3-1.4-3.5-2c-2.4-1.1-5-2-7.8-2.6l15.6-13.4l2.9-2.5v-2.7v-12.7H-3352.3z"/>
<linearGradient id="SVGID_3_" gradientUnits="userSpaceOnUse" x1="-3357.6541" y1="468.249" x2="-3296.115" y2="468.249">
	<stop  offset="0.5979" style="stop-color:#FFFFFF"/>
	<stop  offset="1" style="stop-color:#000000"/>
</linearGradient>
<path opacity="0.39" fill="url(#SVGID_3_)" d="M-3352.3,428.6V446h29.8l-17.9,16.1l3.1,11.2h9.1c4.1,0,7.2,0.7,9.4,2.1
	c2.2,1.4,3.3,3.4,3.3,5.9v0.2c0,2.4-0.9,4.3-2.7,5.7c-1.8,1.4-4.2,2.2-7.3,2.2c-3.6,0-6.8-0.8-9.8-2.3c-3-1.6-5.9-3.7-8.7-6.6
	l-13.6,13.6c3.8,4.2,8.3,7.6,13.7,10.1c5.4,2.5,11.8,3.7,19.4,3.7c4.3,0,8.3-0.6,11.9-1.8c3.7-1.2,6.8-3,9.5-5.2
	c2.2-1.8,4-4,5.4-6.5c-0.3-0.5-0.6-1-0.9-1.6c-0.9-1.5-1.6-3.2-2.3-5c-1.7-4.6-2.6-10.6-2.6-17.8v-0.2c0-1.3,0-2.7,0.1-4
	c0-0.4,0.1-0.8,0.1-1.3c-1.1-0.7-2.3-1.4-3.5-2c-2.4-1.1-5-2-7.8-2.6l15.6-13.4l2.9-2.5v-2.7v-12.7H-3352.3z"/>
<path fill="#771223" d="M-3299.2,487.7c-1.7-4.6-2.6-10.6-2.6-17.8v-0.2c0-1.3,0-2.7,0.1-4c-0.5-0.5-1.1-0.9-1.7-1.3
	c0,0.4-0.1,0.8-0.1,1.3c-0.1,1.3-0.1,2.6-0.1,4v0.2c0,7.3,0.9,13.2,2.6,17.8c0.7,1.8,1.4,3.5,2.3,5c0.3,0.5,0.6,1.1,0.9,1.6
	c0.3-0.5,0.6-1,0.9-1.6C-3297.7,491.2-3298.5,489.6-3299.2,487.7z"/>
<path fill="#771223" d="M-3241.7,496.1c-3.1-3.7-5.4-7.9-7.1-12.8c-1.7-4.9-2.5-10.1-2.5-15.6v-0.2c0-3.4,0.3-6.8,1-10
	c-0.4-0.1-0.7-0.3-1.1-0.4c-0.2-0.1-0.4-0.1-0.6-0.2c0,0.2-0.1,0.4-0.1,0.6c-0.7,3.2-1,6.5-1,10v0.2c0,5.5,0.8,10.7,2.5,15.6
	c1.7,4.9,4,9.2,7.1,12.8c0.2,0.2,0.4,0.4,0.6,0.7c0.3,0.3,0.6,0.7,0.9,1c0.3-0.3,0.6-0.7,0.9-1
	C-3241.3,496.5-3241.5,496.3-3241.7,496.1z"/>
<path fill="#771223" d="M-3243.3,439c-2.6,3.1-4.7,6.7-6.4,10.6c0.5,0.3,0.9,0.6,1.4,1c1.7-4.4,3.9-8.3,6.8-11.6
	c1.1-1.3,2.3-2.5,3.5-3.5c-0.3-0.2-0.6-0.5-1-0.7c-0.3,0.2-0.6,0.5-0.8,0.7C-3241.1,436.5-3242.2,437.7-3243.3,439z"/>
<path fill="#BE1E2D" d="M-3102.4,338c-1.7-4.9-4.1-9.2-7.2-12.8c-3.1-3.7-6.9-6.6-11.3-8.7c-4.4-2.1-9.4-3.2-14.9-3.2
	c-5.6,0-10.6,1.1-15,3.2c-2.9,1.4-5.5,3.1-7.8,5.2c-1.2,1.1-2.4,2.3-3.5,3.5c-2.8,3.3-5.1,7.2-6.8,11.6c-0.2,0.4-0.3,0.8-0.5,1.3
	c-0.6,1.8-1.2,3.7-1.6,5.6c-0.7,3.2-1,6.5-1,10v0.2c0,5.5,0.8,10.7,2.5,15.6c1.7,4.9,4,9.2,7.1,12.8c0.2,0.2,0.4,0.4,0.6,0.7
	c3,3.3,6.5,6,10.7,8c4.4,2.1,9.4,3.2,15,3.2s10.6-1.1,15-3.2c4.4-2.1,8.2-5.1,11.4-8.7c3.1-3.7,5.6-8,7.2-12.9
	c1.7-4.9,2.5-10.1,2.5-15.6v-0.2C-3099.9,348.1-3100.7,342.9-3102.4,338z M-3121.6,354c0,3.1-0.3,5.9-1,8.5
	c-0.7,2.6-1.6,4.8-2.8,6.7c-1.2,1.9-2.7,3.4-4.5,4.4c-1.8,1-3.7,1.6-5.9,1.6c-2.1,0-4.1-0.5-5.9-1.6c-1.8-1-3.3-2.5-4.6-4.4
	c-1.3-1.9-2.2-4.1-2.9-6.8c-0.7-2.6-1.1-5.5-1.1-8.6v-0.2c0-3.1,0.3-6,1-8.6c0.7-2.6,1.6-4.8,2.9-6.7c1.3-1.9,2.8-3.3,4.5-4.3
	c1.7-1,3.7-1.6,5.8-1.6c2.1,0,4.1,0.5,5.9,1.6c1.8,1.1,3.3,2.6,4.6,4.4c1.3,1.9,2.2,4.1,2.9,6.7c0.7,2.6,1.1,5.4,1.1,8.6V354z"/>
<linearGradient id="SVGID_4_" gradientUnits="userSpaceOnUse" x1="-3171.8982" y1="353.7544" x2="-3099.9165" y2="353.7544">
	<stop  offset="0.5979" style="stop-color:#FFFFFF"/>
	<stop  offset="1" style="stop-color:#000000"/>
</linearGradient>
<path opacity="0.39" fill="url(#SVGID_4_)" d="M-3102.4,338c-1.7-4.9-4.1-9.2-7.2-12.8c-3.1-3.7-6.9-6.6-11.3-8.7
	c-4.4-2.1-9.4-3.2-14.9-3.2c-5.6,0-10.6,1.1-15,3.2c-2.9,1.4-5.5,3.1-7.8,5.2c-1.2,1.1-2.4,2.3-3.5,3.5c-2.8,3.3-5.1,7.2-6.8,11.6
	c-0.2,0.4-0.3,0.8-0.5,1.3c-0.6,1.8-1.2,3.7-1.6,5.6c-0.7,3.2-1,6.5-1,10v0.2c0,5.5,0.8,10.7,2.5,15.6c1.7,4.9,4,9.2,7.1,12.8
	c0.2,0.2,0.4,0.4,0.6,0.7c3,3.3,6.5,6,10.7,8c4.4,2.1,9.4,3.2,15,3.2s10.6-1.1,15-3.2c4.4-2.1,8.2-5.1,11.4-8.7
	c3.1-3.7,5.6-8,7.2-12.9c1.7-4.9,2.5-10.1,2.5-15.6v-0.2C-3099.9,348.1-3100.7,342.9-3102.4,338z M-3121.6,354c0,3.1-0.3,5.9-1,8.5
	c-0.7,2.6-1.6,4.8-2.8,6.7c-1.2,1.9-2.7,3.4-4.5,4.4c-1.8,1-3.7,1.6-5.9,1.6c-2.1,0-4.1-0.5-5.9-1.6c-1.8-1-3.3-2.5-4.6-4.4
	c-1.3-1.9-2.2-4.1-2.9-6.8c-0.7-2.6-1.1-5.5-1.1-8.6v-0.2c0-3.1,0.3-6,1-8.6c0.7-2.6,1.6-4.8,2.9-6.7c1.3-1.9,2.8-3.3,4.5-4.3
	c1.7-1,3.7-1.6,5.8-1.6c2.1,0,4.1,0.5,5.9,1.6c1.8,1.1,3.3,2.6,4.6,4.4c1.3,1.9,2.2,4.1,2.9,6.7c0.7,2.6,1.1,5.4,1.1,8.6V354z"/>
<path fill="none" d="M-3190.2,357.2c-3.4,0-6.1,0.9-7.9,2.8c-1.9,1.9-2.8,4.3-2.8,7.1v0.2c0,2.8,1,5.2,2.9,7.2c2,2,4.6,3,8.1,3
	c3.4,0,6.1-1,7.9-2.9c1.9-1.9,2.8-4.3,2.8-7.1v-0.2c0-2.8-1-5.2-2.9-7.1C-3184.1,358.2-3186.8,357.2-3190.2,357.2z"/>
<path fill="#BE1E2D" d="M-3166.2,382.4c-3.1-3.7-5.4-7.9-7.1-12.8c-1.7-4.9-2.5-10.1-2.5-15.6v-0.2c0-3.4,0.3-6.8,1-10
	c0-0.2,0.1-0.4,0.1-0.6c-2.9-0.9-6-1.4-9.2-1.4c-3.9,0-7.1,0.6-9.7,1.8c-2.6,1.2-5,2.6-7.1,4.2c0.5-4.9,1.9-8.8,4.3-11.9
	c2.3-3.1,5.8-4.6,10.4-4.6c3.1,0,5.9,0.5,8.3,1.6c1.8,0.8,3.6,1.8,5.3,3c1.6-4,3.7-7.6,6.4-10.6c1.1-1.3,2.3-2.5,3.5-3.5
	c0.3-0.2,0.6-0.5,0.8-0.7c-3.4-2.4-6.8-4.2-10.4-5.5c-4-1.5-8.7-2.2-14.2-2.2c-6.1,0-11.4,1.1-15.9,3.3c-4.5,2.2-8.3,5.2-11.3,9
	c-3,3.8-5.2,8.3-6.7,13.5c-1.2,4-1.9,8.3-2.1,12.9c-0.1,1.3-0.1,2.6-0.1,4v0.2c0,7.3,0.9,13.2,2.6,17.8c0.7,1.8,1.4,3.5,2.3,5
	c1.3,2.4,2.9,4.5,4.6,6.3c2.8,2.8,6.1,5,9.8,6.6c3.7,1.6,8.4,2.3,13.9,2.3c4.2,0,8.2-0.6,12-1.9c3.8-1.3,7.1-3.1,9.8-5.6
	c0.9-0.8,1.8-1.7,2.6-2.7c-0.3-0.3-0.6-0.7-0.9-1C-3165.8,382.8-3166,382.6-3166.2,382.4z M-3179.2,367.5c0,2.8-0.9,5.2-2.8,7.1
	c-1.9,1.9-4.5,2.9-7.9,2.9c-3.4,0-6.1-1-8.1-3c-2-2-2.9-4.4-2.9-7.2v-0.2c0-2.8,0.9-5.2,2.8-7.1c1.9-1.9,4.5-2.8,7.9-2.8
	c3.4,0,6.1,1,8.1,2.9c2,1.9,2.9,4.3,2.9,7.1V367.5z"/>
<linearGradient id="SVGID_5_" gradientUnits="userSpaceOnUse" x1="-3222.406" y1="353.7544" x2="-3161.6814" y2="353.7544">
	<stop  offset="0.5979" style="stop-color:#FFFFFF"/>
	<stop  offset="1" style="stop-color:#000000"/>
</linearGradient>
<path opacity="0.39" fill="url(#SVGID_5_)" d="M-3166.2,382.4c-3.1-3.7-5.4-7.9-7.1-12.8c-1.7-4.9-2.5-10.1-2.5-15.6v-0.2
	c0-3.4,0.3-6.8,1-10c0-0.2,0.1-0.4,0.1-0.6c-2.9-0.9-6-1.4-9.2-1.4c-3.9,0-7.1,0.6-9.7,1.8c-2.6,1.2-5,2.6-7.1,4.2
	c0.5-4.9,1.9-8.8,4.3-11.9c2.3-3.1,5.8-4.6,10.4-4.6c3.1,0,5.9,0.5,8.3,1.6c1.8,0.8,3.6,1.8,5.3,3c1.6-4,3.7-7.6,6.4-10.6
	c1.1-1.3,2.3-2.5,3.5-3.5c0.3-0.2,0.6-0.5,0.8-0.7c-3.4-2.4-6.8-4.2-10.4-5.5c-4-1.5-8.7-2.2-14.2-2.2c-6.1,0-11.4,1.1-15.9,3.3
	c-4.5,2.2-8.3,5.2-11.3,9c-3,3.8-5.2,8.3-6.7,13.5c-1.2,4-1.9,8.3-2.1,12.9c-0.1,1.3-0.1,2.6-0.1,4v0.2c0,7.3,0.9,13.2,2.6,17.8
	c0.7,1.8,1.4,3.5,2.3,5c1.3,2.4,2.9,4.5,4.6,6.3c2.8,2.8,6.1,5,9.8,6.6c3.7,1.6,8.4,2.3,13.9,2.3c4.2,0,8.2-0.6,12-1.9
	c3.8-1.3,7.1-3.1,9.8-5.6c0.9-0.8,1.8-1.7,2.6-2.7c-0.3-0.3-0.6-0.7-0.9-1C-3165.8,382.8-3166,382.6-3166.2,382.4z M-3179.2,367.5
	c0,2.8-0.9,5.2-2.8,7.1c-1.9,1.9-4.5,2.9-7.9,2.9c-3.4,0-6.1-1-8.1-3c-2-2-2.9-4.4-2.9-7.2v-0.2c0-2.8,0.9-5.2,2.8-7.1
	c1.9-1.9,4.5-2.8,7.9-2.8c3.4,0,6.1,1,8.1,2.9c2,1.9,2.9,4.3,2.9,7.1V367.5z"/>
<path fill="#BE1E2D" d="M-3275,314.9v17.4h29.8l-17.9,16.1l3.1,11.2h9.1c4.1,0,7.2,0.7,9.4,2.1c2.2,1.4,3.3,3.4,3.3,5.9v0.2
	c0,2.4-0.9,4.3-2.7,5.7c-1.8,1.4-4.2,2.2-7.3,2.2c-3.6,0-6.8-0.8-9.8-2.3c-3-1.6-5.9-3.7-8.7-6.6l-13.6,13.6
	c3.8,4.2,8.3,7.6,13.7,10.1c5.4,2.5,11.8,3.7,19.4,3.7c4.3,0,8.3-0.6,11.9-1.8c3.7-1.2,6.8-3,9.5-5.2c2.2-1.8,4-4,5.4-6.5
	c-0.3-0.5-0.6-1-0.9-1.6c-0.9-1.5-1.6-3.2-2.3-5c-1.7-4.6-2.6-10.6-2.6-17.8V356c0-1.3,0-2.7,0.1-4c0-0.4,0.1-0.8,0.1-1.3
	c-1.1-0.7-2.3-1.4-3.5-2c-2.4-1.1-5-2-7.8-2.6l15.6-13.4l2.9-2.5v-2.7v-12.7H-3275z"/>
<linearGradient id="SVGID_6_" gradientUnits="userSpaceOnUse" x1="-3280.3572" y1="354.532" x2="-3218.8181" y2="354.532">
	<stop  offset="0.5979" style="stop-color:#FFFFFF"/>
	<stop  offset="1" style="stop-color:#000000"/>
</linearGradient>
<path opacity="0.39" fill="url(#SVGID_6_)" d="M-3275,314.9v17.4h29.8l-17.9,16.1l3.1,11.2h9.1c4.1,0,7.2,0.7,9.4,2.1
	c2.2,1.4,3.3,3.4,3.3,5.9v0.2c0,2.4-0.9,4.3-2.7,5.7c-1.8,1.4-4.2,2.2-7.3,2.2c-3.6,0-6.8-0.8-9.8-2.3c-3-1.6-5.9-3.7-8.7-6.6
	l-13.6,13.6c3.8,4.2,8.3,7.6,13.7,10.1c5.4,2.5,11.8,3.7,19.4,3.7c4.3,0,8.3-0.6,11.9-1.8c3.7-1.2,6.8-3,9.5-5.2
	c2.2-1.8,4-4,5.4-6.5c-0.3-0.5-0.6-1-0.9-1.6c-0.9-1.5-1.6-3.2-2.3-5c-1.7-4.6-2.6-10.6-2.6-17.8V356c0-1.3,0-2.7,0.1-4
	c0-0.4,0.1-0.8,0.1-1.3c-1.1-0.7-2.3-1.4-3.5-2c-2.4-1.1-5-2-7.8-2.6l15.6-13.4l2.9-2.5v-2.7v-12.7H-3275z"/>
<path fill="#771223" d="M-3221.9,374c-1.7-4.6-2.6-10.6-2.6-17.8V356c0-1.3,0-2.7,0.1-4c-0.5-0.5-1.1-0.9-1.7-1.3
	c0,0.4-0.1,0.8-0.1,1.3c-0.1,1.3-0.1,2.6-0.1,4v0.2c0,7.3,0.9,13.2,2.6,17.8c0.7,1.8,1.4,3.5,2.3,5c0.3,0.5,0.6,1.1,0.9,1.6
	c0.3-0.5,0.6-1,0.9-1.6C-3220.4,377.5-3221.2,375.8-3221.9,374z"/>
<path fill="#771223" d="M-3164.4,382.4c-3.1-3.7-5.4-7.9-7.1-12.8c-1.7-4.9-2.5-10.1-2.5-15.6v-0.2c0-3.4,0.3-6.8,1-10
	c-0.4-0.1-0.7-0.3-1.1-0.4c-0.2-0.1-0.4-0.1-0.6-0.2c0,0.2-0.1,0.4-0.1,0.6c-0.7,3.2-1,6.5-1,10v0.2c0,5.5,0.8,10.7,2.5,15.6
	c1.7,4.9,4,9.2,7.1,12.8c0.2,0.2,0.4,0.4,0.6,0.7c0.3,0.3,0.6,0.7,0.9,1c0.3-0.3,0.6-0.7,0.9-1
	C-3164,382.8-3164.2,382.6-3164.4,382.4z"/>
<path fill="#771223" d="M-3166,325.3c-2.6,3.1-4.7,6.7-6.4,10.6c0.5,0.3,0.9,0.6,1.4,1c1.7-4.4,3.9-8.3,6.8-11.6
	c1.1-1.3,2.3-2.5,3.5-3.5c-0.3-0.2-0.6-0.5-1-0.7c-0.3,0.2-0.6,0.5-0.8,0.7C-3163.8,322.8-3164.9,324-3166,325.3z"/>
<path fill="#BE1E2D" d="M-2936.5,287.8c-0.7-2.2-1.8-4.1-3.2-5.8s-3.1-2.9-5.1-3.9c-2-0.9-4.2-1.4-6.7-1.4c-2.5,0-4.7,0.5-6.7,1.4
	c-1.3,0.6-2.5,1.4-3.5,2.3c-0.6,0.5-1.1,1-1.6,1.6c-1.3,1.5-2.3,3.2-3,5.2c-0.1,0.2-0.1,0.4-0.2,0.6c-0.3,0.8-0.5,1.7-0.7,2.5
	c-0.3,1.4-0.5,2.9-0.5,4.5v0.1c0,2.5,0.4,4.8,1.1,7c0.7,2.2,1.8,4.1,3.2,5.8c0.1,0.1,0.2,0.2,0.3,0.3c1.3,1.5,2.9,2.7,4.8,3.6
	c2,0.9,4.2,1.4,6.7,1.4s4.7-0.5,6.7-1.4c2-1,3.7-2.3,5.1-3.9c1.4-1.6,2.5-3.6,3.2-5.8c0.7-2.2,1.1-4.5,1.1-7v-0.1
	C-2935.4,292.3-2935.8,290-2936.5,287.8z M-2945.1,295c0,1.4-0.1,2.7-0.4,3.8c-0.3,1.1-0.7,2.1-1.3,3c-0.5,0.8-1.2,1.5-2,2
	c-0.8,0.5-1.7,0.7-2.6,0.7c-1,0-1.8-0.2-2.6-0.7c-0.8-0.5-1.5-1.1-2-2c-0.6-0.8-1-1.9-1.3-3c-0.3-1.2-0.5-2.5-0.5-3.9v-0.1
	c0-1.4,0.1-2.7,0.4-3.8c0.3-1.2,0.7-2.2,1.3-3c0.6-0.8,1.2-1.5,2-1.9c0.8-0.5,1.7-0.7,2.6-0.7c1,0,1.8,0.2,2.6,0.7
	c0.8,0.5,1.5,1.1,2,2c0.6,0.8,1,1.9,1.3,3C-2945.3,292.2-2945.1,293.5-2945.1,295L-2945.1,295z"/>
<path fill="none" d="M-2976.4,296.4c-1.5,0-2.7,0.4-3.6,1.3c-0.8,0.9-1.3,1.9-1.3,3.2v0.1c0,1.3,0.4,2.3,1.3,3.2
	c0.9,0.9,2.1,1.3,3.6,1.3c1.5,0,2.7-0.4,3.6-1.3c0.8-0.9,1.3-1.9,1.3-3.2V301c0-1.3-0.4-2.3-1.3-3.2
	C-2973.6,296.9-2974.8,296.4-2976.4,296.4z"/>
<path fill="none" d="M-2974.5,284.8c-2.1,0-3.6,0.7-4.7,2.1c-1,1.4-1.7,3.1-1.9,5.3c0.9-0.7,2-1.3,3.2-1.9c1.2-0.5,2.6-0.8,4.4-0.8
	c1.4,0,2.8,0.2,4.1,0.6c0.2-0.8,0.4-1.5,0.6-2.3c0.1-0.2,0.1-0.4,0.2-0.6c0.1-0.1,0.1-0.3,0.2-0.4c-0.8-0.5-1.6-1-2.4-1.3
	C-2971.8,285.1-2973.1,284.8-2974.5,284.8z"/>
<path fill="#BE1E2D" d="M-2965.6,307.7c-1.4-1.6-2.4-3.6-3.2-5.8c-0.7-2.2-1.1-4.5-1.1-7v-0.1c0-1.5,0.2-3,0.5-4.5
	c0-0.1,0-0.2,0.1-0.3c-1.3-0.4-2.7-0.6-4.1-0.6c-1.7,0-3.2,0.3-4.4,0.8c-1.2,0.5-2.2,1.2-3.2,1.9c0.2-2.2,0.9-4,1.9-5.3
	c1-1.4,2.6-2.1,4.7-2.1c1.4,0,2.6,0.2,3.7,0.7c0.8,0.4,1.6,0.8,2.4,1.3c0.7-1.8,1.7-3.4,2.9-4.8c0.5-0.6,1-1.1,1.6-1.6
	c0.1-0.1,0.3-0.2,0.4-0.3c-1.5-1.1-3.1-1.9-4.7-2.5c-1.8-0.7-3.9-1-6.4-1c-2.7,0-5.1,0.5-7.1,1.5c-2,1-3.7,2.3-5.1,4
	c-1.3,1.7-2.4,3.7-3,6.1c-0.5,1.8-0.8,3.7-0.9,5.8c0,0.6-0.1,1.2-0.1,1.8v0.1c0,3.3,0.4,5.9,1.2,8c0.3,0.8,0.7,1.6,1,2.3
	c0.6,1.1,1.3,2,2.1,2.8c1.3,1.3,2.7,2.2,4.4,2.9c1.7,0.7,3.8,1,6.3,1c1.9,0,3.7-0.3,5.4-0.9c1.7-0.6,3.2-1.4,4.4-2.5
	c0.4-0.4,0.8-0.8,1.2-1.2c-0.1-0.1-0.3-0.3-0.4-0.5C-2965.4,307.9-2965.5,307.8-2965.6,307.7z M-2971.4,301.1c0,1.3-0.4,2.3-1.3,3.2
	c-0.8,0.9-2,1.3-3.6,1.3c-1.5,0-2.7-0.4-3.6-1.3c-0.9-0.9-1.3-2-1.3-3.2v-0.1c0-1.3,0.4-2.3,1.3-3.2c0.8-0.9,2-1.3,3.6-1.3
	c1.5,0,2.7,0.4,3.6,1.3C-2971.9,298.6-2971.4,299.7-2971.4,301.1L-2971.4,301.1z"/>
<path fill="none" d="M-2994.5,292.7c0.6,0.3,1.1,0.6,1.6,0.9c0.1-1.8,0.4-3.6,0.9-5.2c0.3-1,0.6-1.9,1-2.8l-7,6
	C-2996.8,291.8-2995.6,292.2-2994.5,292.7z"/>
<path fill="none" d="M-2983.4,301c0,1.3,0.4,2.3,1.3,3.2c0.9,0.9,2.1,1.3,3.6,1.3c1.5,0,2.7-0.4,3.6-1.3c0.8-0.9,1.3-1.9,1.3-3.2
	V301c0-1.3-0.4-2.3-1.3-3.2c-0.9-0.9-2.1-1.3-3.6-1.3c-1.5,0-2.7,0.4-3.6,1.3c-0.8,0.9-1.3,1.9-1.3,3.2V301z"/>
<path fill="#BE1E2D" d="M-3014.9,277.4v7.8h13.4l-8,7.2l1.4,5h4.1c1.8,0,3.2,0.3,4.2,0.9c1,0.6,1.5,1.5,1.5,2.6v0.1
	c0,1.1-0.4,1.9-1.2,2.6c-0.8,0.6-1.9,1-3.3,1c-1.6,0-3.1-0.3-4.4-1c-1.3-0.7-2.7-1.7-3.9-2.9l-6.1,6.1c1.7,1.9,3.7,3.4,6.2,4.5
	c2.4,1.1,5.3,1.7,8.7,1.7c1.9,0,3.7-0.3,5.4-0.8c1.6-0.5,3.1-1.3,4.3-2.3c1-0.8,1.8-1.8,2.4-2.9c-0.1-0.2-0.3-0.5-0.4-0.7
	c-0.4-0.7-0.7-1.4-1-2.3c-0.8-2.1-1.2-4.7-1.2-8v-0.1c0-0.6,0-1.2,0.1-1.8c0-0.2,0-0.4,0-0.6c-0.5-0.3-1-0.6-1.6-0.9
	c-1.1-0.5-2.3-0.9-3.5-1.1l7-6l1.3-1.1v-1.2v-5.7H-3014.9z"/>
<path fill="#A4232F" d="M-2991,304c-0.8-2.1-1.2-4.7-1.2-8v-0.1c0-0.6,0-1.2,0.1-1.8c-0.2-0.2-0.5-0.4-0.8-0.6c0,0.2,0,0.4,0,0.6
	c0,0.6-0.1,1.2-0.1,1.8v0.1c0,3.3,0.4,5.9,1.2,8c0.3,0.8,0.7,1.6,1,2.3c0.1,0.2,0.3,0.5,0.4,0.7c0.1-0.2,0.3-0.5,0.4-0.7
	C-2990.4,305.6-2990.7,304.8-2991,304z"/>
<path fill="#A4232F" d="M-2964.8,307.7c-1.4-1.6-2.4-3.6-3.2-5.8c-0.7-2.2-1.1-4.5-1.1-7v-0.1c0-1.5,0.2-3,0.5-4.5
	c-0.2-0.1-0.3-0.1-0.5-0.2c-0.1,0-0.2,0-0.3-0.1c0,0.1,0,0.2-0.1,0.3c-0.3,1.4-0.5,2.9-0.5,4.5v0.1c0,2.5,0.4,4.8,1.1,7
	c0.7,2.2,1.8,4.1,3.2,5.8c0.1,0.1,0.2,0.2,0.3,0.3c0.1,0.2,0.3,0.3,0.4,0.5c0.1-0.2,0.3-0.3,0.4-0.5
	C-2964.6,307.9-2964.7,307.8-2964.8,307.7z"/>
<path fill="#A4232F" d="M-2965.5,282.1c-1.2,1.4-2.1,3-2.9,4.8c0.2,0.1,0.4,0.3,0.6,0.4c0.7-2,1.8-3.7,3-5.2c0.5-0.6,1-1.1,1.6-1.6
	c-0.1-0.1-0.3-0.2-0.4-0.3c-0.1,0.1-0.3,0.2-0.4,0.3C-2964.5,281-2965,281.5-2965.5,282.1z"/>
<path d="M-3010.4,1062.3h-0.7c-38.3,0-69.3-31-69.3-69.3V767.3h0.7c38.3,0,69.3,31,69.3,69.3V1062.3z"/>
<rect x="-2957.5" y="338.8" fill="#BE1E2D" width="13.1" height="12"/>
<rect x="-2935.8" y="338.8" fill="#A4232F" width="13.1" height="12"/>
<g>
	<path fill="#6D6E71" d="M-2617.4,457.1l11.1,29.7l10.7-29.6c0.6-1.8,0.9-2.9,0.9-3.4c0-1.4-0.7-2.1-2-2.1c-0.5,0-1.2,0.1-2.2,0.3
		s-1.7,0.3-2.2,0.3c-2.1,0-3.1-1-3.1-3.1c0-2.2,1.5-3.3,4.6-3.3c0.1,0,0.4,0,0.8,0c0.3,0,0.6,0.1,0.8,0.1l4,0.4
		c0.9,0.3,1.8,0.4,2.7,0.4c1.3,0,3.4-0.2,6.3-0.5c1.8-0.2,3-0.3,3.8-0.3c2.7,0,4.1,1.1,4.1,3.2c0,2.1-1.1,3.2-3.3,3.2
		c-0.7,0-1.2-0.1-1.5-0.2c-0.9-0.2-1.6-0.3-2-0.3c-1.1,0-2.3,1.5-3.5,4.6l-13.4,34.2c-1.1,2.9-3.1,4.4-5.8,4.4
		c-2.6,0-4.5-1.5-5.6-4.4l-13.7-35.2c-0.9-2.3-1.9-3.5-3.1-3.5c-0.4,0-1.1,0.1-2,0.3c-0.9,0.2-1.5,0.3-2,0.3c-2.1,0-3.1-1-3.1-2.9
		c0-2.3,1.5-3.4,4.4-3.4c0.5,0,0.9,0,1.1,0.1l4,0.5c1.3,0.2,2.7,0.3,4,0.3c1.1,0,2.7-0.1,4.7-0.4l3.1-0.4c0.3-0.1,0.8-0.1,1.3-0.1
		c2.8,0,4.2,1.1,4.2,3.3c0,2.1-1.2,3.1-3.6,3.1c-0.8,0-1.3,0-1.6-0.1c-1.2-0.3-2-0.5-2.3-0.5c-1,0-1.5,0.4-1.5,1.3
		c0,0.4,0.1,1.1,0.4,1.9L-2617.4,457.1z"/>
	<path fill="#6D6E71" d="M-2532.8,465.5c0,2.4-0.2,3.9-0.5,4.4c-0.3,0.5-1.2,0.8-2.8,0.8h-30.2c-0.8,0-1.4,0.1-1.6,0.3
		c-0.3,0.2-0.4,0.6-0.4,1.1c0,4.7,1.4,8.7,4.3,11.9c2.8,3.2,6.4,4.7,10.6,4.7c2.8,0,5.3-0.8,7.6-2.3c2.3-1.5,3.8-3.4,4.5-5.8
		l0.9-2.8c0.4-1.5,1.5-2.3,3.1-2.3c2.3,0,3.5,1.2,3.5,3.6c0,4.1-2.1,7.8-6.3,11c-4.2,3.2-8.9,4.8-14.2,4.8c-6.6,0-11.9-2.2-15.8-6.7
		c-3.9-4.5-5.9-10.4-5.9-18c0-7.7,2.1-14,6.3-18.8c4.2-4.8,9.6-7.2,16.3-7.2c5.9,0,10.8,2,14.7,6
		C-2534.7,454.3-2532.8,459.4-2532.8,465.5z M-2567.2,463.1c0,0.9,0.7,1.3,2.1,1.3h22.7c1.3,0,2-0.4,2-1.3c0-3.4-1.3-6.3-3.8-8.7
		c-2.5-2.5-5.5-3.7-8.9-3.7c-3.5,0-6.8,1.3-9.7,3.8C-2565.8,457-2567.2,459.9-2567.2,463.1z"/>
	<path fill="#6D6E71" d="M-2511.5,448.7v2.6c3.3-4.6,7.7-6.9,13.2-6.9c4.4,0,8,1.2,10.8,3.7c2.8,2.5,4.1,5.7,4.1,9.6
		c0,2.8-0.7,5-2.1,6.8c-1.4,1.7-3.2,2.6-5.5,2.6c-1.5,0-2.7-0.4-3.7-1.3c-1-0.9-1.5-2-1.5-3.2c0-1,0.4-1.9,1.1-2.7
		c0.8-0.8,1.6-1.2,2.7-1.2c0.2,0,0.6,0.1,1.2,0.3c0.4-0.8,0.6-1.5,0.6-2.1c0-1.8-0.8-3.4-2.4-4.6c-1.6-1.3-3.6-1.9-6-1.9
		c-4.9,0-8.2,2.2-9.9,6.6c-1,2.7-1.5,6.8-1.5,12.3v6.3c0,4.2,0,6.6,0.1,7.1c0.3,3.6,1.3,5.4,2.9,5.4c0.8,0,1.7-0.1,2.6-0.3
		c0.7-0.2,1.3-0.2,1.8-0.2c2,0,3,1,3,3c0,2.2-1.3,3.3-3.9,3.3h-0.4c-0.9,0-2.4-0.1-4.3-0.3c-1.9-0.2-3.4-0.3-4.3-0.3
		c-2.5,0-4.5,0.1-6,0.2l-5.3,0.5c-2.6,0-3.9-1.1-3.9-3.3c0-2,1.2-2.9,3.6-2.9c0.6,0,1.1,0,1.4,0.1l1.4,0.3c0.6,0.1,1.1,0.2,1.3,0.2
		c1.6,0,2.5-1.5,2.6-4.4v-4.8l-0.3-21.5c-0.2-3.7-1.1-5.6-2.8-5.6c-0.5,0-1.2,0.1-2.1,0.3c-0.9,0.2-1.6,0.3-2.1,0.3
		c-2.1,0-3.1-1-3.1-3c0-2.2,1.4-3.3,4.1-3.3c0.6,0,1.6,0.1,2.8,0.2c1.3,0.2,2.2,0.2,2.8,0.2c0.5,0,1.3-0.1,2.5-0.2
		c0.5-0.2,1.1-0.2,1.8-0.2C-2512.3,446-2511.5,446.9-2511.5,448.7z"/>
	<path fill="#6D6E71" d="M-2463.9,465.9v12.3c0,3.2,0,5,0.1,5.6c0.3,2.8,1.2,4.3,2.6,4.3c0.3,0,1.1-0.2,2.4-0.5
		c0.3-0.1,0.8-0.2,1.4-0.2c2.4,0,3.6,1,3.6,3.1c0,0.9-0.4,1.6-1.2,2.3c-0.8,0.6-1.8,0.9-3,0.9c-1,0-2.6-0.1-4.6-0.4
		c-2.1-0.3-3.6-0.4-4.6-0.4c-1.6,0-3.5,0.1-5.5,0.4c-2.5,0.3-4.1,0.5-4.9,0.5c-2.5,0-3.8-1.1-3.8-3.2c0-2.1,1.1-3.1,3.3-3.1
		c0.5,0,1.3,0.1,2.2,0.3c1,0.2,1.7,0.3,2.2,0.3c1.5,0,2.5-2,2.8-6.1c0-0.3,0-3,0-8.2v-7.8c0-5.2,0-8,0-8.2c-0.3-4-1.3-6-2.9-6
		c-0.5,0-1.2,0.1-2.2,0.3c-0.9,0.2-1.6,0.3-2.1,0.3c-2.3,0-3.4-1-3.4-3c0-2.1,1.4-3.2,4.2-3.2c1.2,0,2.1,0,2.6,0.1
		c2,0.3,3.3,0.4,3.9,0.4c0.5,0,1.3-0.1,2.3-0.2c1-0.2,1.8-0.2,2.3-0.2c1.8,0,2.8,1.2,2.8,3.7c0,0.3,0,0.6-0.1,1.1
		c-0.1,0.5-0.1,0.9-0.1,1.1c-0.1,0.5-0.1,2.5-0.2,5.9C-2463.8,460.5-2463.9,463.2-2463.9,465.9z M-2468.8,441.1
		c-1.5,0-2.7-0.5-3.7-1.6c-1-1-1.6-2.3-1.6-3.7c0-1.5,0.5-2.7,1.6-3.7c1-1,2.3-1.5,3.7-1.5c1.5,0,2.7,0.5,3.7,1.5
		c1,1,1.6,2.2,1.6,3.7c0,1.5-0.5,2.7-1.6,3.7C-2466.1,440.5-2467.3,441.1-2468.8,441.1z"/>
	<path fill="#6D6E71" d="M-2421.8,437.4c0-0.9,0.3-1.7,0.9-2.4c-1.1-1-2.7-1.5-4.7-1.5c-2.7,0-4.9,0.9-6.4,2.6
		c-1.6,1.7-2.3,4.2-2.3,7.3v1.7c0,0.8,0.4,1.2,1.2,1.2h7.4c2.1,0,3.1,1.1,3.1,3.4s-1,3.4-3.1,3.4h-7c-1.1,0-1.6,0.6-1.6,1.7v26.6
		c0,2.3,0,3.7,0.1,4.1c0.3,1.7,1.1,2.6,2.4,2.6c0.3,0,1.1-0.2,2.4-0.5c0.9-0.1,1.5-0.2,1.9-0.2c2.1,0,3.2,1,3.2,3.1
		c0,2.2-1.3,3.3-3.9,3.3c-1.1,0-2.7-0.1-4.9-0.4s-3.8-0.4-4.9-0.4c-1.9,0-3.6,0.1-5.1,0.3c-2.5,0.3-4,0.5-4.7,0.5
		c-2.7,0-4.1-1.1-4.1-3.3c0-0.8,0.3-1.5,1-2.2c0.7-0.6,1.4-0.9,2.3-0.9c0.6,0,1.3,0.1,2.1,0.3c0.8,0.2,1.5,0.3,2.1,0.3
		c1.2,0,2-0.8,2.3-2.3c0.3-1.5,0.5-5.2,0.6-11v-19.9c0-1.1-0.6-1.7-1.7-1.7h-4.7c-2.2,0-3.3-1.2-3.3-3.5c0-2.2,1.1-3.3,3.4-3.3h5.4
		c0.8,0,1.2-0.4,1.2-1.2v-1.7c0-5,1.3-8.8,4-11.5c2.7-2.7,6.4-4,11.3-4c4,0,7.2,0.8,9.6,2.4c2.4,1.6,3.6,3.8,3.6,6.5
		c0,1.4-0.4,2.5-1.3,3.4c-0.9,0.9-2,1.3-3.3,1.3c-1.3,0-2.3-0.4-3.2-1.2C-2421.3,439.5-2421.8,438.5-2421.8,437.4z"/>
	<path fill="#6D6E71" d="M-2402,455.1l10.9,32.1l11.6-31.6c0.3-0.9,0.5-1.6,0.5-2.1c0-1.1-0.7-1.6-2.2-1.6c-0.8,0-1.4,0.1-1.8,0.2
		c-1,0.1-1.7,0.2-2,0.2c-2.1,0-3.1-1-3.1-3c0-2.1,1.4-3.2,4.1-3.2c0.4,0,1,0.1,1.9,0.2l3.4,0.5c0.9,0.1,1.8,0.2,2.8,0.2
		c1.1,0,2.7-0.1,4.7-0.4c2.1-0.3,3.7-0.4,4.7-0.4c2.7,0,4.1,1.1,4.1,3.2c0,2.1-1,3.1-3.1,3.1c-0.6,0-1.1-0.1-1.4-0.2
		c-0.8-0.2-1.4-0.3-1.7-0.3c-1.2,0-2.4,1.6-3.7,4.8l-12.9,32.2c-2.8,7.1-5.5,12.3-8.1,15.6c-4.3,5.5-9.7,8.2-16.1,8.2
		c-3.9,0-7.1-1-9.7-2.9c-2.6-2-3.9-4.3-3.9-7.1c0-2,0.6-3.6,1.7-4.8c1.1-1.2,2.6-1.8,4.5-1.8c1.5,0,2.7,0.4,3.6,1.3
		c0.9,0.9,1.4,1.9,1.4,3.2c0,2-0.9,3.3-2.8,3.9c0.9,1.4,2.8,2.1,5.4,2.1c3.4,0,6.4-1.2,9.1-3.7c2.7-2.5,4-5.3,4-8.4
		c0-1.6-0.9-4.5-2.6-8.8l-10.4-26.4l-1.1-3c-1.1-2.8-2.3-4.3-3.7-4.3c-0.4,0-1.1,0.1-2,0.2c-1,0.2-1.6,0.2-1.9,0.2
		c-2.2,0-3.3-1-3.3-3c0-2.1,1.5-3.2,4.4-3.2c0.9,0,1.7,0,2.2,0.1l3.8,0.6c0.1,0,0.3,0,0.8,0c0.4,0.1,0.8,0.1,1.1,0.1
		c2.3,0,4.7-0.1,7.3-0.4c2-0.2,3.3-0.3,3.9-0.3c2.7,0,4,1,4,3.1c0,2.1-1.2,3.1-3.6,3.1c-0.4,0-1-0.1-1.8-0.2
		c-0.8-0.1-1.4-0.2-1.8-0.2c-0.9,0-1.3,0.4-1.3,1.3C-2402.4,453.7-2402.3,454.3-2402,455.1z"/>
</g>
<path fill="#BE1E2D" d="M-2214.4,458.2c-1.3-3.7-3.1-7-5.4-9.7c-2.4-2.8-5.2-5-8.6-6.6c-3.3-1.6-7.1-2.4-11.3-2.4
	c-4.2,0-8,0.8-11.4,2.4c-2.2,1.1-4.2,2.4-5.9,3.9c-0.9,0.8-1.8,1.7-2.7,2.7c-2.2,2.5-3.9,5.5-5.1,8.8c-0.1,0.3-0.2,0.6-0.4,1
	c-0.5,1.4-0.9,2.8-1.2,4.3c-0.5,2.4-0.8,5-0.8,7.6v0.2c0,4.2,0.6,8.1,1.9,11.8c1.3,3.7,3.1,7,5.4,9.7c0.1,0.2,0.3,0.3,0.4,0.5
	c2.2,2.5,4.9,4.6,8.1,6.1c3.4,1.6,7.2,2.4,11.4,2.4s8-0.8,11.4-2.4c3.4-1.6,6.2-3.8,8.6-6.6c2.4-2.8,4.2-6,5.5-9.8
	c1.3-3.7,1.9-7.7,1.9-11.8V470C-2212.5,465.8-2213.2,461.9-2214.4,458.2z M-2229,470.3c0,2.4-0.3,4.5-0.8,6.4
	c-0.5,1.9-1.2,3.6-2.1,5.1c-0.9,1.4-2.1,2.5-3.4,3.3c-1.3,0.8-2.8,1.2-4.5,1.2c-1.6,0-3.1-0.4-4.5-1.2c-1.3-0.8-2.5-1.9-3.5-3.3
	c-1-1.4-1.7-3.1-2.2-5.1c-0.5-2-0.8-4.2-0.8-6.5V470c0-2.4,0.3-4.5,0.8-6.5c0.5-2,1.2-3.7,2.2-5.1c1-1.4,2.1-2.5,3.4-3.3
	c1.3-0.8,2.8-1.2,4.4-1.2c1.6,0,3.1,0.4,4.5,1.2c1.3,0.8,2.5,1.9,3.5,3.4c1,1.4,1.7,3.1,2.2,5.1c0.5,2,0.8,4.1,0.8,6.5V470.3z"/>
<linearGradient id="SVGID_7_" gradientUnits="userSpaceOnUse" x1="-2267.125" y1="470.149" x2="-2212.5249" y2="470.149">
	<stop  offset="0.5979" style="stop-color:#FFFFFF"/>
	<stop  offset="1" style="stop-color:#000000"/>
</linearGradient>
<path opacity="0.39" fill="url(#SVGID_7_)" d="M-2214.4,458.2c-1.3-3.7-3.1-7-5.4-9.7c-2.4-2.8-5.2-5-8.6-6.6
	c-3.3-1.6-7.1-2.4-11.3-2.4c-4.2,0-8,0.8-11.4,2.4c-2.2,1.1-4.2,2.4-5.9,3.9c-0.9,0.8-1.8,1.7-2.7,2.7c-2.2,2.5-3.9,5.5-5.1,8.8
	c-0.1,0.3-0.2,0.6-0.4,1c-0.5,1.4-0.9,2.8-1.2,4.3c-0.5,2.4-0.8,5-0.8,7.6v0.2c0,4.2,0.6,8.1,1.9,11.8c1.3,3.7,3.1,7,5.4,9.7
	c0.1,0.2,0.3,0.3,0.4,0.5c2.2,2.5,4.9,4.6,8.1,6.1c3.4,1.6,7.2,2.4,11.4,2.4s8-0.8,11.4-2.4c3.4-1.6,6.2-3.8,8.6-6.6
	c2.4-2.8,4.2-6,5.5-9.8c1.3-3.7,1.9-7.7,1.9-11.8V470C-2212.5,465.8-2213.2,461.9-2214.4,458.2z M-2229,470.3c0,2.4-0.3,4.5-0.8,6.4
	c-0.5,1.9-1.2,3.6-2.1,5.1c-0.9,1.4-2.1,2.5-3.4,3.3c-1.3,0.8-2.8,1.2-4.5,1.2c-1.6,0-3.1-0.4-4.5-1.2c-1.3-0.8-2.5-1.9-3.5-3.3
	c-1-1.4-1.7-3.1-2.2-5.1c-0.5-2-0.8-4.2-0.8-6.5V470c0-2.4,0.3-4.5,0.8-6.5c0.5-2,1.2-3.7,2.2-5.1c1-1.4,2.1-2.5,3.4-3.3
	c1.3-0.8,2.8-1.2,4.4-1.2c1.6,0,3.1,0.4,4.5,1.2c1.3,0.8,2.5,1.9,3.5,3.4c1,1.4,1.7,3.1,2.2,5.1c0.5,2,0.8,4.1,0.8,6.5V470.3z"/>
<path fill="none" d="M-2281,472.8c-2.6,0-4.6,0.7-6,2.2c-1.4,1.4-2.1,3.2-2.1,5.4v0.2c0,2.1,0.7,4,2.2,5.5c1.5,1.5,3.5,2.2,6.1,2.2
	c2.6,0,4.6-0.7,6-2.2c1.4-1.5,2.1-3.3,2.1-5.4v-0.2c0-2.1-0.7-4-2.2-5.4C-2276.4,473.5-2278.4,472.8-2281,472.8z"/>
<path fill="#BE1E2D" d="M-2262.8,491.8c-2.3-2.8-4.1-6-5.4-9.7c-1.3-3.7-1.9-7.6-1.9-11.8v-0.2c0-2.6,0.3-5.1,0.8-7.6
	c0-0.1,0.1-0.3,0.1-0.4c-2.2-0.7-4.6-1.1-7-1.1c-2.9,0-5.4,0.5-7.4,1.4c-2,0.9-3.8,2-5.4,3.2c0.4-3.7,1.5-6.7,3.2-9
	c1.8-2.3,4.4-3.5,7.9-3.5c2.4,0,4.5,0.4,6.3,1.2c1.4,0.6,2.7,1.4,4,2.3c1.2-3,2.8-5.7,4.8-8.1c0.8-1,1.7-1.9,2.7-2.7
	c0.2-0.2,0.4-0.3,0.6-0.5c-2.6-1.8-5.2-3.2-7.9-4.2c-3-1.1-6.6-1.7-10.8-1.7c-4.6,0-8.6,0.8-12,2.5c-3.4,1.7-6.3,3.9-8.6,6.8
	c-2.3,2.9-4,6.3-5.1,10.2c-0.9,3.1-1.4,6.3-1.6,9.8c-0.1,1-0.1,2-0.1,3v0.2c0,5.5,0.7,10,2,13.5c0.5,1.4,1.1,2.6,1.7,3.8
	c1,1.8,2.2,3.4,3.5,4.7c2.1,2.1,4.6,3.8,7.5,5c2.8,1.2,6.4,1.8,10.6,1.8c3.2,0,6.2-0.5,9.1-1.5c2.9-1,5.4-2.4,7.5-4.2
	c0.7-0.6,1.4-1.3,2-2c-0.2-0.3-0.5-0.5-0.7-0.8C-2262.5,492.2-2262.6,492-2262.8,491.8z M-2272.7,480.6c0,2.1-0.7,4-2.1,5.4
	c-1.4,1.5-3.4,2.2-6,2.2c-2.6,0-4.6-0.7-6.1-2.2c-1.5-1.5-2.2-3.3-2.2-5.5v-0.2c0-2.1,0.7-3.9,2.1-5.4c1.4-1.4,3.4-2.2,6-2.2
	c2.6,0,4.6,0.7,6.1,2.2c1.5,1.5,2.2,3.3,2.2,5.4V480.6z"/>
<linearGradient id="SVGID_8_" gradientUnits="userSpaceOnUse" x1="-2305.4365" y1="470.149" x2="-2259.3752" y2="470.149">
	<stop  offset="0.5979" style="stop-color:#FFFFFF"/>
	<stop  offset="1" style="stop-color:#000000"/>
</linearGradient>
<path opacity="0.39" fill="url(#SVGID_8_)" d="M-2262.8,491.8c-2.3-2.8-4.1-6-5.4-9.7c-1.3-3.7-1.9-7.6-1.9-11.8v-0.2
	c0-2.6,0.3-5.1,0.8-7.6c0-0.1,0.1-0.3,0.1-0.4c-2.2-0.7-4.6-1.1-7-1.1c-2.9,0-5.4,0.5-7.4,1.4c-2,0.9-3.8,2-5.4,3.2
	c0.4-3.7,1.5-6.7,3.2-9c1.8-2.3,4.4-3.5,7.9-3.5c2.4,0,4.5,0.4,6.3,1.2c1.4,0.6,2.7,1.4,4,2.3c1.2-3,2.8-5.7,4.8-8.1
	c0.8-1,1.7-1.9,2.7-2.7c0.2-0.2,0.4-0.3,0.6-0.5c-2.6-1.8-5.2-3.2-7.9-4.2c-3-1.1-6.6-1.7-10.8-1.7c-4.6,0-8.6,0.8-12,2.5
	c-3.4,1.7-6.3,3.9-8.6,6.8c-2.3,2.9-4,6.3-5.1,10.2c-0.9,3.1-1.4,6.3-1.6,9.8c-0.1,1-0.1,2-0.1,3v0.2c0,5.5,0.7,10,2,13.5
	c0.5,1.4,1.1,2.6,1.7,3.8c1,1.8,2.2,3.4,3.5,4.7c2.1,2.1,4.6,3.8,7.5,5c2.8,1.2,6.4,1.8,10.6,1.8c3.2,0,6.2-0.5,9.1-1.5
	c2.9-1,5.4-2.4,7.5-4.2c0.7-0.6,1.4-1.3,2-2c-0.2-0.3-0.5-0.5-0.7-0.8C-2262.5,492.2-2262.6,492-2262.8,491.8z M-2272.7,480.6
	c0,2.1-0.7,4-2.1,5.4c-1.4,1.5-3.4,2.2-6,2.2c-2.6,0-4.6-0.7-6.1-2.2c-1.5-1.5-2.2-3.3-2.2-5.5v-0.2c0-2.1,0.7-3.9,2.1-5.4
	c1.4-1.4,3.4-2.2,6-2.2c2.6,0,4.6,0.7,6.1,2.2c1.5,1.5,2.2,3.3,2.2,5.4V480.6z"/>
<path fill="#BE1E2D" d="M-2345.4,440.7v13.2h22.6l-13.6,12.2l2.4,8.5h6.9c3.1,0,5.5,0.5,7.1,1.6c1.7,1.1,2.5,2.6,2.5,4.5v0.2
	c0,1.8-0.7,3.2-2,4.3c-1.3,1.1-3.2,1.6-5.6,1.6c-2.7,0-5.2-0.6-7.5-1.8c-2.3-1.2-4.5-2.8-6.6-5l-10.3,10.3c2.9,3.2,6.3,5.7,10.4,7.6
	c4.1,1.9,9,2.8,14.7,2.8c3.3,0,6.3-0.5,9.1-1.4c2.8-0.9,5.2-2.2,7.2-4c1.7-1.4,3-3.1,4.1-4.9c-0.2-0.4-0.5-0.8-0.7-1.2
	c-0.6-1.2-1.2-2.4-1.7-3.8c-1.3-3.5-2-8-2-13.5v-0.2c0-1,0-2,0.1-3c0-0.3,0.1-0.6,0.1-1c-0.8-0.6-1.7-1.1-2.7-1.5
	c-1.9-0.8-3.8-1.5-5.9-1.9l11.8-10.1l2.2-1.9v-2.1v-9.7H-2345.4z"/>
<linearGradient id="SVGID_9_" gradientUnits="userSpaceOnUse" x1="-2349.3943" y1="470.7389" x2="-2302.7151" y2="470.7389">
	<stop  offset="0.5979" style="stop-color:#FFFFFF"/>
	<stop  offset="1" style="stop-color:#000000"/>
</linearGradient>
<path opacity="0.39" fill="url(#SVGID_9_)" d="M-2345.4,440.7v13.2h22.6l-13.6,12.2l2.4,8.5h6.9c3.1,0,5.5,0.5,7.1,1.6
	c1.7,1.1,2.5,2.6,2.5,4.5v0.2c0,1.8-0.7,3.2-2,4.3c-1.3,1.1-3.2,1.6-5.6,1.6c-2.7,0-5.2-0.6-7.5-1.8c-2.3-1.2-4.5-2.8-6.6-5
	l-10.3,10.3c2.9,3.2,6.3,5.7,10.4,7.6c4.1,1.9,9,2.8,14.7,2.8c3.3,0,6.3-0.5,9.1-1.4c2.8-0.9,5.2-2.2,7.2-4c1.7-1.4,3-3.1,4.1-4.9
	c-0.2-0.4-0.5-0.8-0.7-1.2c-0.6-1.2-1.2-2.4-1.7-3.8c-1.3-3.5-2-8-2-13.5v-0.2c0-1,0-2,0.1-3c0-0.3,0.1-0.6,0.1-1
	c-0.8-0.6-1.7-1.1-2.7-1.5c-1.9-0.8-3.8-1.5-5.9-1.9l11.8-10.1l2.2-1.9v-2.1v-9.7H-2345.4z"/>
<path fill="#6B0E20" d="M-2305,485.5c-1.3-3.5-2-8-2-13.5v-0.2c0-1,0-2,0.1-3c-0.4-0.3-0.8-0.7-1.3-1c0,0.3-0.1,0.6-0.1,1
	c-0.1,1-0.1,2-0.1,3v0.2c0,5.5,0.7,10,2,13.5c0.5,1.4,1.1,2.6,1.7,3.8c0.2,0.4,0.5,0.8,0.7,1.2c0.2-0.4,0.5-0.8,0.7-1.2
	C-2303.9,488.2-2304.5,486.9-2305,485.5z"/>
<path fill="#6B0E20" d="M-2261.4,491.8c-2.3-2.8-4.1-6-5.4-9.7c-1.3-3.7-1.9-7.6-1.9-11.8v-0.2c0-2.6,0.3-5.1,0.8-7.6
	c-0.3-0.1-0.6-0.2-0.8-0.3c-0.1,0-0.3-0.1-0.4-0.1c0,0.1-0.1,0.3-0.1,0.4c-0.5,2.4-0.8,5-0.8,7.6v0.2c0,4.2,0.6,8.1,1.9,11.8
	c1.3,3.7,3.1,7,5.4,9.7c0.1,0.2,0.3,0.3,0.4,0.5c0.2,0.3,0.5,0.5,0.7,0.8c0.2-0.3,0.5-0.5,0.7-0.8
	C-2261.1,492.2-2261.3,492-2261.4,491.8z"/>
<path fill="#6B0E20" d="M-2262.7,448.5c-2,2.3-3.6,5-4.8,8.1c0.4,0.2,0.7,0.5,1.1,0.7c1.3-3.3,3-6.3,5.1-8.8c0.8-1,1.7-1.9,2.7-2.7
	c-0.2-0.2-0.5-0.4-0.7-0.5c-0.2,0.2-0.4,0.3-0.6,0.5C-2261,446.7-2261.8,447.6-2262.7,448.5z"/>
<g>
	<path fill="#BE1E2D" d="M-2227.7,909c-1.1-3.3-2.8-6.3-4.9-8.8c-2.1-2.5-4.8-4.6-7.8-6c-3.1-1.5-6.5-2.2-10.3-2.2
		c-3.8,0-7.3,0.8-10.4,2.2c-1.6,0.8-3.1,1.7-4.5,2.8c-2.2-1.5-4.5-2.7-6.8-3.6c-2.7-1-6-1.5-9.7-1.5c-4.1,0-7.8,0.8-10.9,2.3
		c-2.6,1.3-4.9,2.9-6.8,5v-6.3h-39.8v15.8h14.5l-7.4,6.7l2.8,10.3h7.5c2,0,3.5,0.3,4.5,0.9c0.7,0.4,0.9,0.8,0.9,1.6v0.1
		c0,0.7-0.2,1.2-0.7,1.6c-0.6,0.5-1.6,0.8-3,0.8c-1.8,0-3.4-0.4-5-1.2c-1.6-0.8-3.2-2.1-4.8-3.6l-1.8-1.8l-11.8,11.8l1.6,1.7
		c2.6,2.9,5.7,5.2,9.3,6.8c3.6,1.7,8,2.5,13.1,2.5c2.9,0,5.7-0.4,8.2-1.3c2.6-0.9,4.8-2.1,6.7-3.7c1.1-0.9,2.1-2,3-3.3
		c0.5,0.7,1.1,1.4,1.7,2c2,2,4.3,3.5,6.9,4.6c2.6,1.1,5.8,1.6,9.6,1.6c2.9,0,5.7-0.5,8.2-1.3c2.6-0.9,5-2.2,6.9-3.9
		c0.4-0.4,0.8-0.7,1.2-1.2c1.8,1.7,3.9,3.2,6.2,4.2c3.1,1.5,6.6,2.2,10.4,2.2c3.8,0,7.3-0.8,10.4-2.2c3.1-1.5,5.7-3.5,7.9-6
		c2.2-2.5,3.8-5.5,4.9-8.8c1.1-3.3,1.7-6.8,1.7-10.5v-0.1C-2226,915.8-2226.6,912.2-2227.7,909z M-2226.7,919.5
		c0,3.6-0.6,7-1.6,10.3c-1.1,3.3-2.7,6.2-4.8,8.6c-2.1,2.5-4.7,4.4-7.7,5.9c-3,1.4-6.4,2.2-10.1,2.2c-3.7,0-7.1-0.7-10.1-2.1
		c-2.2-1.1-4.3-2.5-6-4.1c-0.1-0.1-0.3-0.3-0.4-0.4c-0.1,0.2-0.3,0.3-0.4,0.5c-0.4,0.4-0.8,0.8-1.2,1.2c-1.9,1.6-4.2,2.9-6.7,3.8
		c-2.5,0.9-5.2,1.3-8,1.3c-3.7,0-6.8-0.5-9.4-1.6c-2.5-1.1-4.8-2.6-6.7-4.5c-0.6-0.6-1.2-1.3-1.8-2.1c-0.1-0.2-0.3-0.4-0.4-0.6
		c-0.1,0.2-0.2,0.4-0.4,0.6c-0.9,1.3-1.9,2.4-3,3.3c-1.8,1.5-4,2.8-6.5,3.6c-2.5,0.8-5.1,1.2-8,1.2c-4.9,0-9.2-0.8-12.8-2.5
		c-3.5-1.6-6.6-3.9-9.1-6.7l-1.2-1.3l11-11l1.3,1.3c1.6,1.6,3.3,2.9,5,3.7c1.6,0.8,3.3,1.2,5.2,1.2c1.5,0,2.6-0.3,3.4-0.9
		c0.7-0.5,1-1.2,1-2.1v-0.1c0-0.9-0.4-1.6-1.2-2.1c-1-0.7-2.7-1-4.8-1h-7.1l-2.6-9.4l8.3-7.5h-15.5v-14.5h38.6v6.4v1
		c0.2-0.3,0.4-0.5,0.6-0.7c1.9-2.2,4.3-4,7-5.4c3-1.5,6.6-2.2,10.7-2.2c3.6,0,6.8,0.5,9.5,1.5c2.2,0.8,4.4,1.9,6.5,3.4
		c0.1,0.1,0.3,0.2,0.4,0.3l0.1,0c0,0,0.1,0,0.1,0.1c0.2-0.1,0.3-0.3,0.5-0.4c1.3-1,2.7-1.9,4.2-2.6c3-1.4,6.4-2.2,10.1-2.2
		c3.7,0,7.1,0.7,10.1,2.1c3,1.4,5.5,3.4,7.6,5.8c2.1,2.4,3.7,5.3,4.8,8.6c1.1,3.2,1.7,6.7,1.7,10.2V919.5z"/>
	<path fill="#BE1E2D" d="M-2230.1,909.7c-1-3-2.5-5.7-4.4-8c-1.9-2.3-4.3-4.1-7-5.4c-2.7-1.3-5.8-2-9.3-2c-3.4,0-6.5,0.7-9.3,2
		c-1.8,0.9-3.4,1.9-4.9,3.2c-0.8,0.7-1.5,1.4-2.2,2.2c-1.8,2.1-3.2,4.5-4.2,7.2c-0.1,0.3-0.2,0.5-0.3,0.8c-0.4,1.1-0.7,2.3-1,3.5
		c-0.4,2-0.6,4.1-0.6,6.2v0.1c0,3.4,0.5,6.6,1.6,9.6c1,3,2.5,5.7,4.4,8c0.1,0.1,0.2,0.3,0.4,0.4c1.8,2.1,4,3.7,6.6,5
		c2.8,1.3,5.9,2,9.3,2s6.5-0.7,9.3-2c2.8-1.3,5.1-3.1,7.1-5.4c2-2.3,3.4-4.9,4.5-8c1-3.1,1.6-6.3,1.6-9.7v-0.1
		C-2228.6,916-2229.1,912.8-2230.1,909.7z M-2242,919.6c0,1.9-0.2,3.7-0.6,5.3c-0.4,1.6-1,3-1.8,4.1c-0.8,1.2-1.7,2.1-2.8,2.7
		c-1.1,0.6-2.3,1-3.7,1c-1.3,0-2.5-0.3-3.7-1c-1.1-0.6-2-1.6-2.8-2.7c-0.8-1.2-1.4-2.6-1.8-4.2c-0.4-1.6-0.7-3.4-0.7-5.3v-0.1
		c0-1.9,0.2-3.7,0.6-5.3c0.4-1.6,1-3,1.8-4.1c0.8-1.1,1.7-2,2.8-2.7c1.1-0.6,2.3-1,3.6-1c1.3,0,2.5,0.3,3.7,1c1.1,0.7,2,1.6,2.8,2.8
		c0.8,1.2,1.4,2.6,1.8,4.2c0.4,1.6,0.7,3.4,0.7,5.3V919.6z"/>
	<linearGradient id="SVGID_10_" gradientUnits="userSpaceOnUse" x1="-2273.2349" y1="919.5076" x2="-2228.5801" y2="919.5076">
		<stop  offset="0.5979" style="stop-color:#FFFFFF"/>
		<stop  offset="1" style="stop-color:#000000"/>
	</linearGradient>
	<path opacity="0.39" fill="url(#SVGID_10_)" d="M-2230.1,909.7c-1-3-2.5-5.7-4.4-8c-1.9-2.3-4.3-4.1-7-5.4c-2.7-1.3-5.8-2-9.3-2
		c-3.4,0-6.5,0.7-9.3,2c-1.8,0.9-3.4,1.9-4.9,3.2c-0.8,0.7-1.5,1.4-2.2,2.2c-1.8,2.1-3.2,4.5-4.2,7.2c-0.1,0.3-0.2,0.5-0.3,0.8
		c-0.4,1.1-0.7,2.3-1,3.5c-0.4,2-0.6,4.1-0.6,6.2v0.1c0,3.4,0.5,6.6,1.6,9.6c1,3,2.5,5.7,4.4,8c0.1,0.1,0.2,0.3,0.4,0.4
		c1.8,2.1,4,3.7,6.6,5c2.8,1.3,5.9,2,9.3,2s6.5-0.7,9.3-2c2.8-1.3,5.1-3.1,7.1-5.4c2-2.3,3.4-4.9,4.5-8c1-3.1,1.6-6.3,1.6-9.7v-0.1
		C-2228.6,916-2229.1,912.8-2230.1,909.7z M-2242,919.6c0,1.9-0.2,3.7-0.6,5.3c-0.4,1.6-1,3-1.8,4.1c-0.8,1.2-1.7,2.1-2.8,2.7
		c-1.1,0.6-2.3,1-3.7,1c-1.3,0-2.5-0.3-3.7-1c-1.1-0.6-2-1.6-2.8-2.7c-0.8-1.2-1.4-2.6-1.8-4.2c-0.4-1.6-0.7-3.4-0.7-5.3v-0.1
		c0-1.9,0.2-3.7,0.6-5.3c0.4-1.6,1-3,1.8-4.1c0.8-1.1,1.7-2,2.8-2.7c1.1-0.6,2.3-1,3.6-1c1.3,0,2.5,0.3,3.7,1c1.1,0.7,2,1.6,2.8,2.8
		c0.8,1.2,1.4,2.6,1.8,4.2c0.4,1.6,0.7,3.4,0.7,5.3V919.6z"/>
	<path fill="none" d="M-2284.6,921.6c-2.1,0-3.8,0.6-4.9,1.8c-1.2,1.2-1.8,2.6-1.8,4.4v0.1c0,1.8,0.6,3.2,1.8,4.5
		c1.2,1.2,2.9,1.8,5,1.8c2.1,0,3.8-0.6,4.9-1.8c1.2-1.2,1.8-2.7,1.8-4.4v-0.1c0-1.8-0.6-3.2-1.8-4.4
		C-2280.8,922.2-2282.5,921.6-2284.6,921.6z"/>
	<path fill="#BE1E2D" d="M-2269.7,937.3c-1.9-2.3-3.4-4.9-4.4-8c-1-3-1.6-6.2-1.6-9.6v-0.1c0-2.1,0.2-4.2,0.6-6.2
		c0-0.1,0.1-0.2,0.1-0.4c-1.8-0.6-3.7-0.9-5.7-0.9c-2.4,0-4.4,0.4-6,1.1c-1.6,0.8-3.1,1.6-4.4,2.6c0.3-3,1.2-5.5,2.7-7.4
		c1.4-1.9,3.6-2.8,6.4-2.8c1.9,0,3.6,0.3,5.1,1c1.1,0.5,2.2,1.1,3.3,1.9c1-2.5,2.3-4.7,3.9-6.6c0.7-0.8,1.4-1.5,2.2-2.2
		c0.2-0.1,0.3-0.3,0.5-0.4c-2.1-1.5-4.2-2.6-6.5-3.4c-2.5-0.9-5.4-1.4-8.8-1.4c-3.8,0-7.1,0.7-9.9,2c-2.8,1.4-5.1,3.2-7,5.6
		c-1.9,2.4-3.3,5.2-4.2,8.4c-0.7,2.5-1.1,5.2-1.3,8c0,0.8-0.1,1.6-0.1,2.5v0.1c0,4.5,0.5,8.2,1.6,11.1c0.4,1.1,0.9,2.2,1.4,3.1
		c0.8,1.5,1.8,2.8,2.9,3.9c1.7,1.7,3.8,3.1,6.1,4.1c2.3,1,5.2,1.4,8.6,1.4c2.6,0,5.1-0.4,7.4-1.2c2.3-0.8,4.4-2,6.1-3.4
		c0.6-0.5,1.1-1.1,1.6-1.6c-0.2-0.2-0.4-0.4-0.6-0.6C-2269.4,937.5-2269.6,937.4-2269.7,937.3z M-2277.8,928c0,1.8-0.6,3.2-1.8,4.4
		c-1.2,1.2-2.8,1.8-4.9,1.8c-2.1,0-3.8-0.6-5-1.8c-1.2-1.2-1.8-2.7-1.8-4.5v-0.1c0-1.8,0.6-3.2,1.8-4.4c1.2-1.2,2.8-1.8,4.9-1.8
		c2.1,0,3.8,0.6,5,1.8c1.2,1.2,1.8,2.7,1.8,4.4V928z"/>
	<linearGradient id="SVGID_11_" gradientUnits="userSpaceOnUse" x1="-2304.5679" y1="919.5076" x2="-2266.8967" y2="919.5076">
		<stop  offset="0.5979" style="stop-color:#FFFFFF"/>
		<stop  offset="1" style="stop-color:#000000"/>
	</linearGradient>
	<path opacity="0.39" fill="url(#SVGID_11_)" d="M-2269.7,937.3c-1.9-2.3-3.4-4.9-4.4-8c-1-3-1.6-6.2-1.6-9.6v-0.1
		c0-2.1,0.2-4.2,0.6-6.2c0-0.1,0.1-0.2,0.1-0.4c-1.8-0.6-3.7-0.9-5.7-0.9c-2.4,0-4.4,0.4-6,1.1c-1.6,0.8-3.1,1.6-4.4,2.6
		c0.3-3,1.2-5.5,2.7-7.4c1.4-1.9,3.6-2.8,6.4-2.8c1.9,0,3.6,0.3,5.1,1c1.1,0.5,2.2,1.1,3.3,1.9c1-2.5,2.3-4.7,3.9-6.6
		c0.7-0.8,1.4-1.5,2.2-2.2c0.2-0.1,0.3-0.3,0.5-0.4c-2.1-1.5-4.2-2.6-6.5-3.4c-2.5-0.9-5.4-1.4-8.8-1.4c-3.8,0-7.1,0.7-9.9,2
		c-2.8,1.4-5.1,3.2-7,5.6c-1.9,2.4-3.3,5.2-4.2,8.4c-0.7,2.5-1.1,5.2-1.3,8c0,0.8-0.1,1.6-0.1,2.5v0.1c0,4.5,0.5,8.2,1.6,11.1
		c0.4,1.1,0.9,2.2,1.4,3.1c0.8,1.5,1.8,2.8,2.9,3.9c1.7,1.7,3.8,3.1,6.1,4.1c2.3,1,5.2,1.4,8.6,1.4c2.6,0,5.1-0.4,7.4-1.2
		c2.3-0.8,4.4-2,6.1-3.4c0.6-0.5,1.1-1.1,1.6-1.6c-0.2-0.2-0.4-0.4-0.6-0.6C-2269.4,937.5-2269.6,937.4-2269.7,937.3z M-2277.8,928
		c0,1.8-0.6,3.2-1.8,4.4c-1.2,1.2-2.8,1.8-4.9,1.8c-2.1,0-3.8-0.6-5-1.8c-1.2-1.2-1.8-2.7-1.8-4.5v-0.1c0-1.8,0.6-3.2,1.8-4.4
		c1.2-1.2,2.8-1.8,4.9-1.8c2.1,0,3.8,0.6,5,1.8c1.2,1.2,1.8,2.7,1.8,4.4V928z"/>
	<path fill="#BE1E2D" d="M-2337.2,895.4v10.8h18.5l-11.1,10l1.9,7h5.7c2.5,0,4.5,0.4,5.8,1.3c1.4,0.9,2,2.1,2,3.7v0.1
		c0,1.5-0.6,2.7-1.7,3.5c-1.1,0.9-2.6,1.3-4.5,1.3c-2.2,0-4.2-0.5-6.1-1.4c-1.9-1-3.7-2.3-5.4-4.1l-8.4,8.4c2.3,2.6,5.2,4.7,8.5,6.2
		c3.3,1.5,7.3,2.3,12,2.3c2.7,0,5.1-0.4,7.4-1.1c2.3-0.8,4.2-1.8,5.9-3.2c1.4-1.1,2.5-2.5,3.3-4c-0.2-0.3-0.4-0.6-0.6-1
		c-0.5-1-1-2-1.4-3.1c-1.1-2.9-1.6-6.6-1.6-11.1v-0.1c0-0.8,0-1.7,0.1-2.5c0-0.3,0-0.5,0.1-0.8c-0.7-0.5-1.4-0.9-2.2-1.2
		c-1.5-0.7-3.1-1.2-4.8-1.6l9.7-8.3l1.8-1.6v-1.7v-7.9H-2337.2z"/>
	<linearGradient id="SVGID_12_" gradientUnits="userSpaceOnUse" x1="-2340.5188" y1="919.99" x2="-2302.3423" y2="919.99">
		<stop  offset="0.5979" style="stop-color:#FFFFFF"/>
		<stop  offset="1" style="stop-color:#000000"/>
	</linearGradient>
	<path opacity="0.39" fill="url(#SVGID_12_)" d="M-2337.2,895.4v10.8h18.5l-11.1,10l1.9,7h5.7c2.5,0,4.5,0.4,5.8,1.3
		c1.4,0.9,2,2.1,2,3.7v0.1c0,1.5-0.6,2.7-1.7,3.5c-1.1,0.9-2.6,1.3-4.5,1.3c-2.2,0-4.2-0.5-6.1-1.4c-1.9-1-3.7-2.3-5.4-4.1l-8.4,8.4
		c2.3,2.6,5.2,4.7,8.5,6.2c3.3,1.5,7.3,2.3,12,2.3c2.7,0,5.1-0.4,7.4-1.1c2.3-0.8,4.2-1.8,5.9-3.2c1.4-1.1,2.5-2.5,3.3-4
		c-0.2-0.3-0.4-0.6-0.6-1c-0.5-1-1-2-1.4-3.1c-1.1-2.9-1.6-6.6-1.6-11.1v-0.1c0-0.8,0-1.7,0.1-2.5c0-0.3,0-0.5,0.1-0.8
		c-0.7-0.5-1.4-0.9-2.2-1.2c-1.5-0.7-3.1-1.2-4.8-1.6l9.7-8.3l1.8-1.6v-1.7v-7.9H-2337.2z"/>
	<path fill="#771223" d="M-2304.2,932.1c-1.1-2.9-1.6-6.6-1.6-11.1v-0.1c0-0.8,0-1.7,0.1-2.5c-0.3-0.3-0.7-0.5-1.1-0.8
		c0,0.3,0,0.5-0.1,0.8c0,0.8-0.1,1.6-0.1,2.5v0.1c0,4.5,0.5,8.2,1.6,11.1c0.4,1.1,0.9,2.2,1.4,3.1c0.2,0.3,0.4,0.7,0.6,1
		c0.2-0.3,0.4-0.6,0.5-1C-2303.3,934.2-2303.8,933.2-2304.2,932.1z"/>
	<path fill="#771223" d="M-2268.6,937.3c-1.9-2.3-3.4-4.9-4.4-8c-1-3-1.6-6.2-1.6-9.6v-0.1c0-2.1,0.2-4.2,0.6-6.2
		c-0.2-0.1-0.5-0.2-0.7-0.3c-0.1,0-0.2-0.1-0.4-0.1c0,0.1-0.1,0.2-0.1,0.4c-0.4,2-0.6,4.1-0.6,6.2v0.1c0,3.4,0.5,6.6,1.6,9.6
		c1,3,2.5,5.7,4.4,8c0.1,0.1,0.2,0.3,0.4,0.4c0.2,0.2,0.4,0.4,0.6,0.6c0.2-0.2,0.4-0.4,0.5-0.6
		C-2268.3,937.5-2268.5,937.4-2268.6,937.3z"/>
	<path fill="#771223" d="M-2269.6,901.8c-1.6,1.9-2.9,4.1-3.9,6.6c0.3,0.2,0.6,0.4,0.9,0.6c1-2.7,2.4-5.1,4.2-7.2
		c0.7-0.8,1.4-1.5,2.2-2.2c-0.2-0.1-0.4-0.3-0.6-0.4c-0.2,0.1-0.4,0.3-0.5,0.4C-2268.2,900.3-2268.9,901-2269.6,901.8z"/>
</g>
<g>
	<path fill="#BE1E2D" d="M-2600,907.8l5.8,18.6l6.3-18.6c0.2-0.5,0.4-1.1,0.7-1.9c0.2-0.6,0.3-1.1,0.3-1.4c0-0.8-0.7-1.3-2.2-1.6
		c-2.1-0.5-3.2-2-3.2-4.7c0-3.2,1.5-4.8,4.6-4.8c1,0,2.5,0.1,4.5,0.3c2,0.2,3.5,0.3,4.5,0.3c1.6,0,3.1-0.1,4.7-0.3
		c1.5-0.2,2.6-0.3,3.3-0.3c3.3,0,5,1.8,5,5.3c0,3.4-1.4,5.1-4.3,5.1c-0.1,0-0.3,0-0.4,0c-0.2,0-0.4,0-0.4,0
		c-0.4-0.2-0.8-0.3-1.1-0.3c-1,0-1.8,0.9-2.4,2.6c-0.2,0.6-0.8,2.1-1.7,4.4l-7.3,19c-1.8,4.6-4.3,6.8-7.5,6.6l-4-0.3l-4,0.3
		c-0.1,0-0.2,0-0.3,0c-2.7,0-4.6-1.7-5.8-5.1l-8.8-23.7c-0.7-1.7-1.2-2.7-1.4-3.1c-0.3-0.4-0.7-0.5-1.3-0.5c-0.1,0-0.2,0-0.4,0
		c-0.2,0-0.3,0-0.4,0c-0.5,0-0.9,0-1.4,0c-1.1,0-2.1-0.4-2.8-1.3s-1.1-2-1.1-3.4c0-3.8,1.7-5.6,5.2-5.6c0.8,0,2.1,0.1,3.9,0.3
		c1.7,0.2,3,0.3,3.9,0.3c1.2,0,3.2-0.1,6.1-0.4c1.8-0.2,3.1-0.3,3.9-0.3c3.1,0,4.6,1.6,4.6,4.8c0,2.9-1.1,4.5-3.4,4.7
		c-1.4,0.2-2.1,0.7-2.1,1.7C-2600.8,905-2600.5,906-2600,907.8z"/>
	<path fill="#BE1E2D" d="M-2521.1,911.2c0,2.4-0.3,4-0.9,4.7c-0.6,0.8-1.8,1.2-3.5,1.2h-20.7c-1,0-1.7,0.1-1.9,0.3
		c-0.3,0.2-0.4,0.7-0.4,1.5c0,2.4,0.8,4.3,2.3,5.9c1.5,1.6,3.4,2.4,5.8,2.4c2.4,0,4.8-1.3,7.3-3.9c1.7-1.8,3.6-2.7,5.6-2.7
		c1.7,0,3.1,0.5,4.1,1.4c1,1,1.6,2.2,1.6,3.6c0,3.3-1.8,6.1-5.4,8.3c-3.6,2.3-8,3.4-13.1,3.4c-6.7,0-12.1-2-16.1-6.1
		c-4-4.1-6-9.5-6-16.3c0-6.8,2-12.4,6-16.6c4-4.2,9.2-6.3,15.6-6.3c6,0,10.8,1.7,14.4,5.2C-2522.9,900.9-2521.1,905.5-2521.1,911.2z
		 M-2548,907c0,0.3,0.1,0.6,0.3,0.8c0.2,0.2,0.8,0.3,1.8,0.3h9.5c0.8,0,1.4-0.1,1.6-0.3c0.2-0.2,0.3-0.6,0.3-1.1
		c0-1.5-0.7-2.8-1.9-3.9c-1.3-1.1-2.8-1.7-4.6-1.7c-2.3,0-4.1,0.9-5.5,2.6C-2547.6,905.1-2548,906.1-2548,907z"/>
	<path fill="#BE1E2D" d="M-2497,896.1v7.2c0.8-2.9,1.7-5,2.8-6.4c2.5-3.1,6-4.7,10.4-4.7c3.1,0,5.7,1,7.8,3c2.1,2,3.2,4.5,3.2,7.4
		c0,2.3-0.7,4.2-2,5.7c-1.4,1.5-3.1,2.2-5.2,2.2c-1.6,0-2.9-0.5-4-1.5s-1.7-2.3-1.7-3.7c0-0.8,0.4-1.9,1.1-3.3h-0.5
		c-3.8,0-6.3,2-7.6,6c-1,3.2-1.5,6.9-1.5,11.1v3.2c0,2,0.2,3.3,0.5,3.9c0.2,0.3,0.6,0.5,1.2,0.5c0.5,0,1.2-0.1,2.1-0.4
		c0.9-0.3,1.6-0.4,2-0.4c1.2,0,2.3,0.4,3.2,1.3c0.9,0.9,1.3,2,1.3,3.2c0,1.7-0.6,3.1-1.7,4.2s-2.4,1.7-4,1.7c-0.8,0-2.4-0.1-4.7-0.4
		c-1.4-0.2-3.2-0.3-5.3-0.3c-2.1,0-4,0.1-5.7,0.3c-2.7,0.3-4.4,0.4-5,0.4c-3.5,0-5.3-1.9-5.3-5.7c0-3.2,1.4-4.7,4.1-4.7
		c0.5,0,1,0.1,1.5,0.3c0.6,0.2,1,0.3,1.3,0.3c1,0,1.4-1.6,1.4-4.7v-13.7c0-3.2-0.5-4.8-1.4-4.8c-0.2,0-0.7,0.1-1.3,0.3
		c-0.6,0.2-1.1,0.3-1.5,0.3c-2.7,0-4.1-1.6-4.1-4.7c0-1.7,0.5-3.1,1.4-4.2c0.9-1.1,2.1-1.6,3.5-1.6c0.6,0,1.4,0.1,2.4,0.3
		c1,0.2,2,0.3,2.9,0.3c0.7,0,1.7-0.1,3-0.3c1.3-0.2,2.3-0.3,2.9-0.3C-2497.9,893.4-2497,894.3-2497,896.1z"/>
	<path fill="#BE1E2D" d="M-2451.5,893.4c1.6,0,2.4,1.1,2.4,3.3v25.5c0,2.9,0.5,4.3,1.6,4.3c0.2,0,0.6-0.1,1.2-0.3
		c0.6-0.2,1.1-0.3,1.5-0.3c2.4,0,3.6,1.5,3.6,4.5c0,4-1.7,5.9-5,5.9c-0.6,0-2.1-0.1-4.7-0.4c-1.6-0.2-3.4-0.3-5.4-0.3
		c-1,0-2.5,0.1-4.5,0.3c-2,0.2-3.4,0.3-4.4,0.3c-1.5,0-2.8-0.5-3.7-1.6c-1-1-1.4-2.4-1.4-4c0-3.2,1.4-4.8,4.1-4.8l2.2,0.5
		c0.2,0.1,0.4,0.1,0.6,0.1c1,0,1.5-1.6,1.5-4.7v-13.7c0-3.2-0.5-4.8-1.4-4.8c-0.2,0-0.7,0.1-1.5,0.4c-0.6,0.1-1,0.2-1.4,0.2
		c-2.7,0-4.1-1.6-4.1-4.7c0-1.7,0.5-3.1,1.4-4.1c1-1,2.2-1.6,3.8-1.6c0.6,0,1.5,0.1,2.7,0.3c2,0.3,3.6,0.4,4.7,0.4
		c1,0,2.2-0.1,3.7-0.3C-2452.5,893.5-2451.7,893.4-2451.5,893.4z M-2456.3,890.2c-2.1,0-3.9-0.8-5.4-2.3c-1.5-1.5-2.3-3.3-2.3-5.4
		c0-2.1,0.7-4,2.2-5.5c1.5-1.5,3.3-2.2,5.5-2.2c2.1,0,4,0.7,5.5,2.2c1.5,1.5,2.2,3.3,2.2,5.5c0,2.1-0.7,4-2.2,5.5
		C-2452.4,889.5-2454.2,890.2-2456.3,890.2z"/>
	<path fill="#BE1E2D" d="M-2411.4,888.7c0-0.6,0.2-1.4,0.7-2.2c-0.5-0.2-1.1-0.3-1.7-0.3c-2.8,0-4.2,1.3-4.2,4v1.7
		c0,1.1,0.6,1.6,1.9,1.6h2.5c3.3,0,4.9,1.5,4.9,4.6c0,3.2-1.6,4.7-4.7,4.7h-2.8c-1.2,0-1.9,0.7-1.9,2.2v16.9c0,1.8,0,2.8,0.1,2.9
		c0.2,1.2,0.8,1.8,1.8,1.8c0.2,0,0.7,0,1.5-0.1c0.6-0.1,1.3-0.2,1.9-0.2c2.7,0,4,1.6,4,4.7c0,1.6-0.5,2.9-1.4,3.9
		c-1,1-2.2,1.5-3.6,1.5c-0.1,0-1.8-0.2-5.2-0.5c-1.1-0.1-2.8-0.2-4.9-0.2c-2.4,0-4.3,0.1-5.8,0.3c-2.4,0.3-3.9,0.4-4.5,0.4
		c-1.6,0-2.9-0.5-3.8-1.6c-1-1-1.4-2.4-1.4-4.1c0-3.2,1.4-4.7,4.2-4.7c0.5,0,1,0.1,1.5,0.3c0.6,0.2,1,0.3,1.2,0.3
		c1,0,1.5-1.6,1.5-4.7v-16.9c0-1.2-0.3-1.9-0.8-2c-0.2-0.1-0.6-0.2-1.1-0.2h-2c-3,0-4.5-1.5-4.5-4.4c0-3.3,1.6-4.9,4.7-4.9h1.5
		c1,0,1.6-0.2,1.9-0.5c0.3-0.3,0.5-1.1,0.5-2.2c0.2-3.9,1.7-7,4.6-9.2c2.9-2.3,6.8-3.4,11.7-3.4c4.1,0,7.3,0.8,9.8,2.5
		c2.5,1.6,3.7,3.8,3.7,6.5c0,1.7-0.6,3.1-1.9,4.2c-1.2,1.1-2.8,1.7-4.7,1.7c-1.5,0-2.8-0.4-3.8-1.2
		C-2410.9,891-2411.4,889.9-2411.4,888.7z"/>
	<path fill="#BE1E2D" d="M-2379.1,906.2l5.8,18.2l5.8-17.5c0.5-1.4,0.7-2.4,0.7-3c0-0.6-0.5-1.1-1.4-1.4l-1.5-0.6
		c-1.2-0.5-1.8-1.6-1.8-3.6c0-1.4,0.4-2.6,1.2-3.5c0.8-0.9,1.8-1.4,3.1-1.4c0.8,0,2.1,0.1,3.9,0.3c1.8,0.2,3,0.3,3.9,0.3
		c0.9,0,2.3-0.1,4.1-0.3c1.8-0.2,3.2-0.3,4.1-0.3c3.4,0,5.1,1.8,5.1,5.5c0,1.3-0.4,2.4-1.1,3.4c-0.8,1-1.7,1.5-2.8,1.5
		c-0.2,0-0.6-0.1-1.1-0.2c-0.5-0.1-0.9-0.2-1.1-0.2c-1,0-1.8,0.8-2.5,2.5l-1.1,3l-7.3,19c-2.3,5.9-3.8,9.7-4.7,11.4
		c-0.9,1.8-2.1,3.7-3.8,5.8c-4.5,5.7-10.1,8.6-16.6,8.6c-4,0-7.3-1-9.9-2.9c-2.6-1.9-3.9-4.4-3.9-7.4c0-2.1,0.7-3.8,2-5.1
		c1.3-1.3,3-2,5-2c1.8,0,3.2,0.5,4.2,1.6c1.1,1,1.6,2.4,1.6,4c0,0.6,0,1.2,0,1.9c0.7,0.3,1.4,0.5,2.1,0.5c1.5,0,2.9-0.9,4.3-2.7
		c1.4-1.8,2-3.3,2-4.6c0-1.1-1-4-2.9-8.5l-9.5-22.4c-0.7-1.6-1.4-2.4-2-2.4c-0.1,0-0.5,0-1.3,0c-0.1,0-0.2,0-0.3,0
		c-0.2,0-0.3,0-0.4,0c-2.9,0-4.3-1.6-4.3-4.8c0-1.6,0.5-2.9,1.5-4c1-1.1,2.2-1.6,3.7-1.6c0.9,0,2.2,0.1,4,0.3c1.8,0.2,3.1,0.3,4,0.3
		c1.1,0,2.9-0.1,5.4-0.3c2.5-0.2,3.9-0.3,4.1-0.3c3.1,0,4.7,1.6,4.7,4.9c0,2.3-1.2,3.7-3.6,4.1c-1.2,0.2-1.8,0.7-1.8,1.5
		C-2379.7,904.4-2379.5,905.1-2379.1,906.2z"/>
</g>
<path fill="none" d="M-2699.7,928.4l6.6-5.6C-2695.8,924.2-2698.1,926.1-2699.7,928.4z"/>
<path fill="#BE1E2D" d="M-2659.1,863.1l-25.4,22.8h0.1l-27.3,25l0,0c-0.5,0.4-0.9,0.8-1.4,1.2c0,0,0,0-0.1,0.1
	c-0.4,0.4-0.8,0.8-1.2,1.2c0,0-0.1,0.1-0.1,0.1c-0.4,0.4-0.8,0.8-1.1,1.2c0,0.1-0.1,0.1-0.1,0.2c-0.3,0.4-0.7,0.8-1,1.2
	c-0.1,0.1-0.1,0.1-0.2,0.2c-0.3,0.4-0.6,0.8-0.9,1.2c-0.1,0.1-0.1,0.2-0.2,0.3c-0.3,0.4-0.5,0.8-0.8,1.2c-0.1,0.1-0.1,0.2-0.2,0.3
	c-0.2,0.4-0.5,0.8-0.7,1.2c-0.1,0.1-0.1,0.3-0.2,0.4c-0.2,0.4-0.4,0.8-0.6,1.2c-0.1,0.2-0.2,0.3-0.2,0.5c-0.2,0.4-0.4,0.8-0.5,1.2
	c-0.1,0.2-0.1,0.3-0.2,0.5c-0.2,0.4-0.3,0.8-0.4,1.1c-0.1,0.2-0.1,0.4-0.2,0.6c-0.1,0.4-0.2,0.7-0.4,1.1c-0.1,0.2-0.1,0.4-0.2,0.6
	c-0.1,0.4-0.2,0.7-0.3,1.1c-0.1,0.2-0.1,0.4-0.2,0.6c-0.1,0.4-0.2,0.8-0.2,1.1c0,0.2-0.1,0.4-0.1,0.7c-0.1,0.4-0.1,0.8-0.2,1.2
	c0,0.2-0.1,0.4-0.1,0.7c0,0.4-0.1,0.8-0.1,1.3c0,0.2,0,0.4,0,0.6c0,0.6-0.1,1.2-0.1,1.9c0,3,0.4,5.9,1.2,8.7l20.1-17.1
	c1.6-2.3,3.9-4.2,6.6-5.6l22.9-19.5l9.3-7.9l0,0C-2646.1,878.3-2659.1,863.1-2659.1,863.1z"/>
<linearGradient id="SVGID_13_" gradientUnits="userSpaceOnUse" x1="-2685.4343" y1="947.2512" x2="-2679.5986" y2="900.8209">
	<stop  offset="0.3087" style="stop-color:#FFFFFF"/>
	<stop  offset="0.7413" style="stop-color:#000000"/>
</linearGradient>
<path opacity="0.39" fill="url(#SVGID_13_)" d="M-2673.2,903.2l-22.9,19.5c3.1-1.6,6.8-2.6,10.7-2.6c11.1,0,20.1,7.4,20.1,16.6
	s-9,16.6-20.1,16.6c-8.2,0-15.3-4.1-18.4-10c-1.1-2-1.7-4.3-1.7-6.6c0-3.1,1-5.9,2.8-8.4l-20.1,17.1c1,3.6,2.6,7,4.7,10.1
	c6.8,10,18.9,16.6,32.7,16.6c21.3,0,38.6-15.8,38.6-35.4C-2646.8,921.1-2657.9,907.9-2673.2,903.2z"/>
<path opacity="0.39" fill="#ED1C24" d="M-2673.2,903.2l-22.9,19.5c3.1-1.6,6.8-2.6,10.7-2.6c11.1,0,20.1,7.4,20.1,16.6
	s-9,16.6-20.1,16.6c-8.2,0-15.3-4.1-18.4-10c-1.1-2-1.7-4.3-1.7-6.6c0-3.1,1-5.9,2.8-8.4l-20.1,17.1c1,3.6,2.6,7,4.7,10.1
	c6.8,10,18.9,16.6,32.7,16.6c21.3,0,38.6-15.8,38.6-35.4C-2646.8,921.1-2657.9,907.9-2673.2,903.2z"/>
<linearGradient id="SVGID_14_" gradientUnits="userSpaceOnUse" x1="-2723.2263" y1="873.8787" x2="-2659.1123" y2="875.1814">
	<stop  offset="0.3927" style="stop-color:#FFFFFF"/>
	<stop  offset="0.7785" style="stop-color:#000000"/>
</linearGradient>
<polygon opacity="0.39" fill="url(#SVGID_14_)" points="-2723.2,863.1 -2723.2,885.9 -2684.5,885.9 -2659.1,863.1 "/>
<linearGradient id="SVGID_15_" gradientUnits="userSpaceOnUse" x1="-2659.2964" y1="874.3541" x2="-2723.4229" y2="874.6072">
	<stop  offset="0.456" style="stop-color:#FFFFFF;stop-opacity:0"/>
	<stop  offset="0.929" style="stop-color:#ED1C24"/>
</linearGradient>
<polygon opacity="0.39" fill="url(#SVGID_15_)" points="-2723.2,863.1 -2723.2,885.9 -2684.5,885.9 -2659.1,863.1 "/>
<linearGradient id="SVGID_16_" gradientUnits="userSpaceOnUse" x1="-2672.6016" y1="889.9055" x2="-2738.2598" y2="941.4852">
	<stop  offset="0.4661" style="stop-color:#FFFFFF"/>
	<stop  offset="0.7301" style="stop-color:#000000"/>
</linearGradient>
<path opacity="0.39" fill="url(#SVGID_16_)" d="M-2659.1,863.1l-25.4,22.8h0.1l-27.3,25l0,0c-0.5,0.4-0.9,0.8-1.4,1.2
	c0,0,0,0-0.1,0.1c-0.4,0.4-0.8,0.8-1.2,1.2c0,0-0.1,0.1-0.1,0.1c-0.4,0.4-0.8,0.8-1.1,1.2c0,0.1-0.1,0.1-0.1,0.2
	c-0.3,0.4-0.7,0.8-1,1.2c-0.1,0.1-0.1,0.1-0.2,0.2c-0.3,0.4-0.6,0.8-0.9,1.2c-0.1,0.1-0.1,0.2-0.2,0.3c-0.3,0.4-0.5,0.8-0.8,1.2
	c-0.1,0.1-0.1,0.2-0.2,0.3c-0.2,0.4-0.5,0.8-0.7,1.2c-0.1,0.1-0.1,0.3-0.2,0.4c-0.2,0.4-0.4,0.8-0.6,1.2c-0.1,0.2-0.2,0.3-0.2,0.5
	c-0.2,0.4-0.4,0.8-0.5,1.2c-0.1,0.2-0.1,0.3-0.2,0.5c-0.2,0.4-0.3,0.8-0.4,1.1c-0.1,0.2-0.1,0.4-0.2,0.6c-0.1,0.4-0.2,0.7-0.4,1.1
	c-0.1,0.2-0.1,0.4-0.2,0.6c-0.1,0.4-0.2,0.7-0.3,1.1c-0.1,0.2-0.1,0.4-0.2,0.6c-0.1,0.4-0.2,0.8-0.2,1.1c0,0.2-0.1,0.4-0.1,0.7
	c-0.1,0.4-0.1,0.8-0.2,1.2c0,0.2-0.1,0.4-0.1,0.7c0,0.4-0.1,0.8-0.1,1.3c0,0.2,0,0.4,0,0.6c0,0.6-0.1,1.2-0.1,1.9
	c0,3,0.4,5.9,1.2,8.7l20.1-17.1c1.6-2.3,3.9-4.2,6.6-5.6l22.9-19.5l9.3-7.9l0,0C-2646.1,878.3-2659.1,863.1-2659.1,863.1z"/>
<linearGradient id="SVGID_17_" gradientUnits="userSpaceOnUse" x1="-2717.8408" y1="930.0334" x2="-2655.8784" y2="874.0677">
	<stop  offset="0.6871" style="stop-color:#FFFFFF;stop-opacity:0"/>
	<stop  offset="1" style="stop-color:#ED1C24"/>
</linearGradient>
<path opacity="0.39" fill="url(#SVGID_17_)" d="M-2659.1,863.1l-25.4,22.8h0.1l-27.3,25l0,0c-0.5,0.4-0.9,0.8-1.4,1.2
	c0,0,0,0-0.1,0.1c-0.4,0.4-0.8,0.8-1.2,1.2c0,0-0.1,0.1-0.1,0.1c-0.4,0.4-0.8,0.8-1.1,1.2c0,0.1-0.1,0.1-0.1,0.2
	c-0.3,0.4-0.7,0.8-1,1.2c-0.1,0.1-0.1,0.1-0.2,0.2c-0.3,0.4-0.6,0.8-0.9,1.2c-0.1,0.1-0.1,0.2-0.2,0.3c-0.3,0.4-0.5,0.8-0.8,1.2
	c-0.1,0.1-0.1,0.2-0.2,0.3c-0.2,0.4-0.5,0.8-0.7,1.2c-0.1,0.1-0.1,0.3-0.2,0.4c-0.2,0.4-0.4,0.8-0.6,1.2c-0.1,0.2-0.2,0.3-0.2,0.5
	c-0.2,0.4-0.4,0.8-0.5,1.2c-0.1,0.2-0.1,0.3-0.2,0.5c-0.2,0.4-0.3,0.8-0.4,1.1c-0.1,0.2-0.1,0.4-0.2,0.6c-0.1,0.4-0.2,0.7-0.4,1.1
	c-0.1,0.2-0.1,0.4-0.2,0.6c-0.1,0.4-0.2,0.7-0.3,1.1c-0.1,0.2-0.1,0.4-0.2,0.6c-0.1,0.4-0.2,0.8-0.2,1.1c0,0.2-0.1,0.4-0.1,0.7
	c-0.1,0.4-0.1,0.8-0.2,1.2c0,0.2-0.1,0.4-0.1,0.7c0,0.4-0.1,0.8-0.1,1.3c0,0.2,0,0.4,0,0.6c0,0.6-0.1,1.2-0.1,1.9
	c0,3,0.4,5.9,1.2,8.7l20.1-17.1c1.6-2.3,3.9-4.2,6.6-5.6l22.9-19.5l9.3-7.9l0,0C-2646.1,878.3-2659.1,863.1-2659.1,863.1z"/>
<g>
	<path fill="#6D6E71" d="M-2617.4-20.3l11.1,29.7l10.7-29.6c0.6-1.8,0.9-2.9,0.9-3.4c0-1.4-0.7-2.1-2-2.1c-0.5,0-1.2,0.1-2.2,0.3
		s-1.7,0.3-2.2,0.3c-2.1,0-3.1-1-3.1-3.1c0-2.2,1.5-3.3,4.6-3.3c0.1,0,0.4,0,0.8,0c0.3,0,0.6,0.1,0.8,0.1l4,0.4
		c0.9,0.3,1.8,0.4,2.7,0.4c1.3,0,3.4-0.2,6.3-0.5c1.8-0.2,3-0.3,3.8-0.3c2.7,0,4.1,1.1,4.1,3.2c0,2.1-1.1,3.2-3.3,3.2
		c-0.7,0-1.2-0.1-1.5-0.2c-0.9-0.2-1.6-0.3-2-0.3c-1.1,0-2.3,1.5-3.5,4.6l-13.4,34.2c-1.1,2.9-3.1,4.4-5.8,4.4
		c-2.6,0-4.5-1.5-5.6-4.4l-13.7-35.2c-0.9-2.3-1.9-3.5-3.1-3.5c-0.4,0-1.1,0.1-2,0.3c-0.9,0.2-1.5,0.3-2,0.3c-2.1,0-3.1-1-3.1-2.9
		c0-2.3,1.5-3.4,4.4-3.4c0.5,0,0.9,0,1.1,0.1l4,0.5c1.3,0.2,2.7,0.3,4,0.3c1.1,0,2.7-0.1,4.7-0.4l3.1-0.4c0.3-0.1,0.8-0.1,1.3-0.1
		c2.8,0,4.2,1.1,4.2,3.3c0,2.1-1.2,3.1-3.6,3.1c-0.8,0-1.3,0-1.6-0.1c-1.2-0.3-2-0.5-2.3-0.5c-1,0-1.5,0.4-1.5,1.3
		c0,0.4,0.1,1.1,0.4,1.9L-2617.4-20.3z"/>
	<path fill="#6D6E71" d="M-2532.8-11.9c0,2.4-0.2,3.9-0.5,4.4c-0.3,0.5-1.2,0.8-2.8,0.8h-30.2c-0.8,0-1.4,0.1-1.6,0.3
		c-0.3,0.2-0.4,0.6-0.4,1.1c0,4.7,1.4,8.7,4.3,11.9c2.8,3.2,6.4,4.7,10.6,4.7c2.8,0,5.3-0.8,7.6-2.3c2.3-1.5,3.8-3.4,4.5-5.8
		l0.9-2.8c0.4-1.5,1.5-2.3,3.1-2.3c2.3,0,3.5,1.2,3.5,3.6c0,4.1-2.1,7.8-6.3,11c-4.2,3.2-8.9,4.8-14.2,4.8c-6.6,0-11.9-2.2-15.8-6.7
		c-3.9-4.5-5.9-10.4-5.9-18c0-7.7,2.1-14,6.3-18.8c4.2-4.8,9.6-7.2,16.3-7.2c5.9,0,10.8,2,14.7,6
		C-2534.7-23.1-2532.8-18-2532.8-11.9z M-2567.2-14.3c0,0.9,0.7,1.3,2.1,1.3h22.7c1.3,0,2-0.4,2-1.3c0-3.4-1.3-6.3-3.8-8.7
		c-2.5-2.5-5.5-3.7-8.9-3.7c-3.5,0-6.8,1.3-9.7,3.8C-2565.8-20.4-2567.2-17.5-2567.2-14.3z"/>
	<path fill="#6D6E71" d="M-2511.5-28.7v2.6c3.3-4.6,7.7-6.9,13.2-6.9c4.4,0,8,1.2,10.8,3.7c2.8,2.5,4.1,5.7,4.1,9.6
		c0,2.8-0.7,5-2.1,6.8c-1.4,1.7-3.2,2.6-5.5,2.6c-1.5,0-2.7-0.4-3.7-1.3c-1-0.9-1.5-2-1.5-3.2c0-1,0.4-1.9,1.1-2.7
		c0.8-0.8,1.6-1.2,2.7-1.2c0.2,0,0.6,0.1,1.2,0.3c0.4-0.8,0.6-1.5,0.6-2.1c0-1.8-0.8-3.4-2.4-4.6c-1.6-1.3-3.6-1.9-6-1.9
		c-4.9,0-8.2,2.2-9.9,6.6c-1,2.7-1.5,6.8-1.5,12.3v6.3c0,4.2,0,6.6,0.1,7.1c0.3,3.6,1.3,5.4,2.9,5.4c0.8,0,1.7-0.1,2.6-0.3
		c0.7-0.2,1.3-0.2,1.8-0.2c2,0,3,1,3,3c0,2.2-1.3,3.3-3.9,3.3h-0.4c-0.9,0-2.4-0.1-4.3-0.3c-1.9-0.2-3.4-0.3-4.3-0.3
		c-2.5,0-4.5,0.1-6,0.2l-5.3,0.5c-2.6,0-3.9-1.1-3.9-3.3c0-2,1.2-2.9,3.6-2.9c0.6,0,1.1,0,1.4,0.1l1.4,0.3c0.6,0.1,1.1,0.2,1.3,0.2
		c1.6,0,2.5-1.5,2.6-4.4V1.5l-0.3-21.5c-0.2-3.7-1.1-5.6-2.8-5.6c-0.5,0-1.2,0.1-2.1,0.3c-0.9,0.2-1.6,0.3-2.1,0.3
		c-2.1,0-3.1-1-3.1-3c0-2.2,1.4-3.3,4.1-3.3c0.6,0,1.6,0.1,2.8,0.2c1.3,0.2,2.2,0.2,2.8,0.2c0.5,0,1.3-0.1,2.5-0.2
		c0.5-0.2,1.1-0.2,1.8-0.2C-2512.3-31.4-2511.5-30.5-2511.5-28.7z"/>
	<path fill="#6D6E71" d="M-2463.9-11.5V0.8c0,3.2,0,5,0.1,5.6c0.3,2.8,1.2,4.3,2.6,4.3c0.3,0,1.1-0.2,2.4-0.5
		c0.3-0.1,0.8-0.2,1.4-0.2c2.4,0,3.6,1,3.6,3.1c0,0.9-0.4,1.6-1.2,2.3c-0.8,0.6-1.8,0.9-3,0.9c-1,0-2.6-0.1-4.6-0.4
		c-2.1-0.3-3.6-0.4-4.6-0.4c-1.6,0-3.5,0.1-5.5,0.4c-2.5,0.3-4.1,0.5-4.9,0.5c-2.5,0-3.8-1.1-3.8-3.2c0-2.1,1.1-3.1,3.3-3.1
		c0.5,0,1.3,0.1,2.2,0.3c1,0.2,1.7,0.3,2.2,0.3c1.5,0,2.5-2,2.8-6.1c0-0.3,0-3,0-8.2v-7.8c0-5.2,0-8,0-8.2c-0.3-4-1.3-6-2.9-6
		c-0.5,0-1.2,0.1-2.2,0.3c-0.9,0.2-1.6,0.3-2.1,0.3c-2.3,0-3.4-1-3.4-3c0-2.1,1.4-3.2,4.2-3.2c1.2,0,2.1,0,2.6,0.1
		c2,0.3,3.3,0.4,3.9,0.4c0.5,0,1.3-0.1,2.3-0.2c1-0.2,1.8-0.2,2.3-0.2c1.8,0,2.8,1.2,2.8,3.7c0,0.3,0,0.6-0.1,1.1
		c-0.1,0.5-0.1,0.9-0.1,1.1c-0.1,0.5-0.1,2.5-0.2,5.9C-2463.8-16.9-2463.9-14.2-2463.9-11.5z M-2468.8-36.3c-1.5,0-2.7-0.5-3.7-1.6
		c-1-1-1.6-2.3-1.6-3.7c0-1.5,0.5-2.7,1.6-3.7c1-1,2.3-1.5,3.7-1.5c1.5,0,2.7,0.5,3.7,1.5c1,1,1.6,2.2,1.6,3.7
		c0,1.5-0.5,2.7-1.6,3.7C-2466.1-36.9-2467.3-36.3-2468.8-36.3z"/>
	<path fill="#6D6E71" d="M-2421.8-40c0-0.9,0.3-1.7,0.9-2.4c-1.1-1-2.7-1.5-4.7-1.5c-2.7,0-4.9,0.9-6.4,2.6
		c-1.6,1.7-2.3,4.2-2.3,7.3v1.7c0,0.8,0.4,1.2,1.2,1.2h7.4c2.1,0,3.1,1.1,3.1,3.4s-1,3.4-3.1,3.4h-7c-1.1,0-1.6,0.6-1.6,1.7V4
		c0,2.3,0,3.7,0.1,4.1c0.3,1.7,1.1,2.6,2.4,2.6c0.3,0,1.1-0.2,2.4-0.5c0.9-0.1,1.5-0.2,1.9-0.2c2.1,0,3.2,1,3.2,3.1
		c0,2.2-1.3,3.3-3.9,3.3c-1.1,0-2.7-0.1-4.9-0.4c-2.2-0.3-3.8-0.4-4.9-0.4c-1.9,0-3.6,0.1-5.1,0.3c-2.5,0.3-4,0.5-4.7,0.5
		c-2.7,0-4.1-1.1-4.1-3.3c0-0.8,0.3-1.5,1-2.2c0.7-0.6,1.4-0.9,2.3-0.9c0.6,0,1.3,0.1,2.1,0.3c0.8,0.2,1.5,0.3,2.1,0.3
		c1.2,0,2-0.8,2.3-2.3c0.3-1.5,0.5-5.2,0.6-11v-19.9c0-1.1-0.6-1.7-1.7-1.7h-4.7c-2.2,0-3.3-1.2-3.3-3.5c0-2.2,1.1-3.3,3.4-3.3h5.4
		c0.8,0,1.2-0.4,1.2-1.2v-1.7c0-5,1.3-8.8,4-11.5c2.7-2.7,6.4-4,11.3-4c4,0,7.2,0.8,9.6,2.4c2.4,1.6,3.6,3.8,3.6,6.5
		c0,1.4-0.4,2.5-1.3,3.4c-0.9,0.9-2,1.3-3.3,1.3c-1.3,0-2.3-0.4-3.2-1.2C-2421.3-37.9-2421.8-38.9-2421.8-40z"/>
	<path fill="#6D6E71" d="M-2402-22.3l10.9,32.1l11.6-31.6c0.3-0.9,0.5-1.6,0.5-2.1c0-1.1-0.7-1.6-2.2-1.6c-0.8,0-1.4,0.1-1.8,0.2
		c-1,0.1-1.7,0.2-2,0.2c-2.1,0-3.1-1-3.1-3c0-2.1,1.4-3.2,4.1-3.2c0.4,0,1,0.1,1.9,0.2l3.4,0.5c0.9,0.1,1.8,0.2,2.8,0.2
		c1.1,0,2.7-0.1,4.7-0.4c2.1-0.3,3.7-0.4,4.7-0.4c2.7,0,4.1,1.1,4.1,3.2c0,2.1-1,3.1-3.1,3.1c-0.6,0-1.1-0.1-1.4-0.2
		c-0.8-0.2-1.4-0.3-1.7-0.3c-1.2,0-2.4,1.6-3.7,4.8l-12.9,32.2c-2.8,7.1-5.5,12.3-8.1,15.6c-4.3,5.5-9.7,8.2-16.1,8.2
		c-3.9,0-7.1-1-9.7-2.9c-2.6-2-3.9-4.3-3.9-7.1c0-2,0.6-3.6,1.7-4.8c1.1-1.2,2.6-1.8,4.5-1.8c1.5,0,2.7,0.4,3.6,1.3
		c0.9,0.9,1.4,1.9,1.4,3.2c0,2-0.9,3.3-2.8,3.9c0.9,1.4,2.8,2.1,5.4,2.1c3.4,0,6.4-1.2,9.1-3.7c2.7-2.5,4-5.3,4-8.4
		c0-1.6-0.9-4.5-2.6-8.8l-10.4-26.4l-1.1-3c-1.1-2.8-2.3-4.3-3.7-4.3c-0.4,0-1.1,0.1-2,0.2c-1,0.2-1.6,0.2-1.9,0.2
		c-2.2,0-3.3-1-3.3-3c0-2.1,1.5-3.2,4.4-3.2c0.9,0,1.7,0,2.2,0.1l3.8,0.6c0.1,0,0.3,0,0.8,0c0.4,0.1,0.8,0.1,1.1,0.1
		c2.3,0,4.7-0.1,7.3-0.4c2-0.2,3.3-0.3,3.9-0.3c2.7,0,4,1,4,3.1s-1.2,3.1-3.6,3.1c-0.4,0-1-0.1-1.8-0.2c-0.8-0.1-1.4-0.2-1.8-0.2
		c-0.9,0-1.3,0.4-1.3,1.3C-2402.4-23.7-2402.3-23.1-2402-22.3z"/>
</g>
<g>
	<path fill="#BE1E2D" d="M-2211.4-19.9c-1.4-4-3.4-7.6-5.9-10.6c-2.6-3.1-5.8-5.5-9.5-7.3c-3.7-1.8-7.9-2.7-12.5-2.7
		c-4.6,0-8.8,0.9-12.6,2.7c-1.9,0.9-3.8,2.1-5.4,3.4c-2.7-1.8-5.4-3.3-8.2-4.3c-3.3-1.2-7.2-1.8-11.7-1.8c-5,0-9.4,0.9-13.2,2.8
		c-3.1,1.5-5.9,3.6-8.2,6v-7.6h-48.2v19.1h17.5l-9,8.1l3.4,12.4h9.1c2.5,0,4.3,0.4,5.4,1.1c0.8,0.5,1.1,1,1.1,1.9v0.2
		c0,0.9-0.3,1.4-0.9,2c-0.8,0.6-2,1-3.6,1c-2.2,0-4.2-0.5-6-1.4c-2-1-3.9-2.5-5.8-4.4l-2.1-2.1l-14.3,14.3l1.9,2.1
		c3.1,3.5,6.9,6.2,11.3,8.3c4.4,2,9.7,3.1,15.8,3.1c3.5,0,6.9-0.5,9.9-1.5c3.1-1,5.8-2.5,8.1-4.5c1.4-1.1,2.6-2.5,3.6-3.9
		c0.7,0.9,1.3,1.7,2.1,2.4c2.4,2.4,5.2,4.3,8.3,5.6c3.2,1.3,7.1,2,11.6,2c3.5,0,6.8-0.5,10-1.6c3.2-1.1,6-2.7,8.4-4.7
		c0.5-0.4,1-0.9,1.5-1.4c2.2,2.1,4.7,3.8,7.4,5.1c3.7,1.8,7.9,2.7,12.5,2.7c4.6,0,8.8-0.9,12.6-2.7c3.7-1.8,6.9-4.2,9.5-7.3
		c2.6-3,4.6-6.6,6-10.7c1.3-4,2-8.2,2-12.7v-0.2C-2209.4-11.7-2210.1-15.9-2211.4-19.9z M-2210.1-7.1c0,4.3-0.7,8.5-2,12.4
		c-1.3,3.9-3.3,7.5-5.8,10.4c-2.6,3-5.7,5.4-9.3,7.1c-3.6,1.8-7.7,2.6-12.2,2.6c-4.5,0-8.6-0.9-12.2-2.6c-2.7-1.3-5.1-3-7.3-5
		c-0.2-0.2-0.4-0.3-0.5-0.5c-0.2,0.2-0.3,0.4-0.5,0.6c-0.5,0.5-1,1-1.4,1.4c-2.3,2-5,3.5-8.1,4.6c-3.1,1-6.3,1.6-9.7,1.6
		c-4.4,0-8.3-0.6-11.3-1.9c-3.1-1.3-5.8-3.1-8.1-5.4c-0.8-0.8-1.5-1.6-2.2-2.5c-0.2-0.2-0.3-0.4-0.5-0.7c-0.1,0.2-0.3,0.5-0.4,0.7
		c-1,1.5-2.2,2.9-3.6,4c-2.2,1.9-4.9,3.3-7.9,4.3c-3,1-6.2,1.5-9.7,1.5c-6,0-11.2-1-15.5-3c-4.3-2-8-4.7-11-8.1l-1.4-1.6l13.3-13.3
		l1.6,1.6c1.9,1.9,3.9,3.5,6,4.5c1.9,1,4,1.5,6.3,1.5c1.8,0,3.2-0.4,4.1-1.1c0.8-0.7,1.2-1.4,1.2-2.5V3.3c0-1.1-0.4-1.9-1.4-2.5
		c-1.3-0.8-3.2-1.2-5.8-1.2h-8.5l-3.2-11.4l10.1-9.1h-18.7v-17.6h46.7v7.7v1.2c0.2-0.3,0.5-0.6,0.8-0.9c2.3-2.7,5.2-4.9,8.5-6.5
		c3.7-1.8,8-2.7,12.9-2.7c4.4,0,8.2,0.6,11.4,1.8c2.7,1,5.3,2.4,7.9,4.1c0.2,0.1,0.3,0.2,0.5,0.3l0.1,0c0,0,0.1,0.1,0.1,0.1
		c0.2-0.2,0.4-0.3,0.6-0.5c1.6-1.2,3.3-2.3,5.1-3.2c3.6-1.8,7.7-2.6,12.2-2.6c4.5,0,8.6,0.9,12.2,2.6c3.6,1.7,6.7,4.1,9.2,7.1
		c2.5,3,4.5,6.4,5.8,10.4c1.3,3.9,2,8.1,2,12.4V-7.1z"/>
	<path fill="#BE1E2D" d="M-2214.3-19c-1.3-3.7-3-6.9-5.4-9.6s-5.2-4.9-8.5-6.5c-3.3-1.6-7-2.4-11.2-2.4c-4.2,0-7.9,0.8-11.3,2.4
		c-2.2,1.1-4.1,2.3-5.9,3.9c-0.9,0.8-1.8,1.7-2.6,2.7c-2.1,2.5-3.8,5.4-5.1,8.7c-0.1,0.3-0.2,0.6-0.3,0.9c-0.5,1.4-0.9,2.8-1.2,4.2
		c-0.5,2.4-0.8,4.9-0.8,7.5V-7c0,4.1,0.6,8,1.9,11.7c1.3,3.7,3,6.9,5.3,9.6c0.1,0.2,0.3,0.3,0.4,0.5c2.2,2.5,4.9,4.5,8,6
		c3.3,1.6,7.1,2.4,11.3,2.4c4.2,0,7.9-0.8,11.3-2.4c3.3-1.6,6.2-3.8,8.5-6.5c2.4-2.8,4.2-6,5.4-9.7c1.3-3.7,1.9-7.6,1.9-11.7v-0.2
		C-2212.4-11.4-2213.1-15.3-2214.3-19z M-2228.7-7c0,2.3-0.2,4.5-0.8,6.4c-0.5,1.9-1.2,3.6-2.1,5c-0.9,1.4-2,2.5-3.4,3.3
		c-1.3,0.8-2.8,1.2-4.4,1.2c-1.6,0-3.1-0.4-4.4-1.2c-1.3-0.8-2.5-1.9-3.4-3.3c-0.9-1.4-1.7-3.1-2.2-5.1c-0.5-2-0.8-4.1-0.8-6.5v-0.2
		c0-2.3,0.2-4.5,0.7-6.4c0.5-1.9,1.2-3.6,2.2-5c0.9-1.4,2.1-2.5,3.4-3.3c1.3-0.8,2.8-1.2,4.4-1.2c1.6,0,3.1,0.4,4.4,1.2
		c1.3,0.8,2.5,1.9,3.4,3.3c0.9,1.4,1.7,3.1,2.2,5c0.5,1.9,0.8,4.1,0.8,6.4V-7z"/>
	<linearGradient id="SVGID_18_" gradientUnits="userSpaceOnUse" x1="-2266.448" y1="-7.1292" x2="-2212.4456" y2="-7.1292">
		<stop  offset="0.5979" style="stop-color:#FFFFFF"/>
		<stop  offset="1" style="stop-color:#000000"/>
	</linearGradient>
	<path opacity="0.39" fill="url(#SVGID_18_)" d="M-2214.3-19c-1.3-3.7-3-6.9-5.4-9.6s-5.2-4.9-8.5-6.5c-3.3-1.6-7-2.4-11.2-2.4
		c-4.2,0-7.9,0.8-11.3,2.4c-2.2,1.1-4.1,2.3-5.9,3.9c-0.9,0.8-1.8,1.7-2.6,2.7c-2.1,2.5-3.8,5.4-5.1,8.7c-0.1,0.3-0.2,0.6-0.3,0.9
		c-0.5,1.4-0.9,2.8-1.2,4.2c-0.5,2.4-0.8,4.9-0.8,7.5V-7c0,4.1,0.6,8,1.9,11.7c1.3,3.7,3,6.9,5.3,9.6c0.1,0.2,0.3,0.3,0.4,0.5
		c2.2,2.5,4.9,4.5,8,6c3.3,1.6,7.1,2.4,11.3,2.4c4.2,0,7.9-0.8,11.3-2.4c3.3-1.6,6.2-3.8,8.5-6.5c2.4-2.8,4.2-6,5.4-9.7
		c1.3-3.7,1.9-7.6,1.9-11.7v-0.2C-2212.4-11.4-2213.1-15.3-2214.3-19z M-2228.7-7c0,2.3-0.2,4.5-0.8,6.4c-0.5,1.9-1.2,3.6-2.1,5
		c-0.9,1.4-2,2.5-3.4,3.3c-1.3,0.8-2.8,1.2-4.4,1.2c-1.6,0-3.1-0.4-4.4-1.2c-1.3-0.8-2.5-1.9-3.4-3.3c-0.9-1.4-1.7-3.1-2.2-5.1
		c-0.5-2-0.8-4.1-0.8-6.5v-0.2c0-2.3,0.2-4.5,0.7-6.4c0.5-1.9,1.2-3.6,2.2-5c0.9-1.4,2.1-2.5,3.4-3.3c1.3-0.8,2.8-1.2,4.4-1.2
		c1.6,0,3.1,0.4,4.4,1.2c1.3,0.8,2.5,1.9,3.4,3.3c0.9,1.4,1.7,3.1,2.2,5c0.5,1.9,0.8,4.1,0.8,6.4V-7z"/>
	<path fill="none" d="M-2280.2-4.5c-2.6,0-4.5,0.7-6,2.1c-1.4,1.4-2.1,3.2-2.1,5.3v0.2c0,2.1,0.7,3.9,2.2,5.4c1.5,1.5,3.5,2.2,6,2.2
		c2.6,0,4.5-0.7,6-2.2c1.4-1.5,2.1-3.2,2.1-5.4V3c0-2.1-0.7-3.9-2.2-5.4C-2275.6-3.8-2277.6-4.5-2280.2-4.5z"/>
	<path fill="#BE1E2D" d="M-2262.2,14.3c-2.3-2.7-4.1-6-5.3-9.6c-1.2-3.7-1.9-7.6-1.9-11.7v-0.2c0-2.6,0.3-5.1,0.8-7.5
		c0-0.1,0.1-0.3,0.1-0.4c-2.2-0.7-4.5-1.1-6.9-1.1c-2.9,0-5.3,0.5-7.3,1.4c-2,0.9-3.7,2-5.3,3.1c0.4-3.6,1.5-6.6,3.2-8.9
		c1.8-2.3,4.3-3.4,7.8-3.4c2.3,0,4.4,0.4,6.2,1.2c1.3,0.6,2.7,1.3,4,2.2c1.2-3,2.8-5.7,4.8-8c0.8-1,1.7-1.8,2.6-2.7
		c0.2-0.2,0.4-0.3,0.6-0.5c-2.5-1.8-5.1-3.2-7.8-4.1c-3-1.1-6.6-1.6-10.7-1.6c-4.6,0-8.5,0.8-11.9,2.5c-3.4,1.6-6.2,3.9-8.5,6.8
		c-2.2,2.9-3.9,6.2-5,10.1c-0.9,3-1.4,6.3-1.6,9.7c-0.1,1-0.1,2-0.1,3v0.2c0,5.4,0.7,9.9,2,13.4c0.5,1.4,1.1,2.6,1.7,3.8
		c1,1.8,2.2,3.4,3.5,4.7c2.1,2.1,4.6,3.7,7.4,4.9c2.8,1.2,6.3,1.8,10.5,1.8c3.2,0,6.2-0.5,9-1.5c2.8-1,5.3-2.4,7.4-4.2
		c0.7-0.6,1.3-1.3,2-2c-0.2-0.2-0.5-0.5-0.7-0.8C-2261.9,14.7-2262,14.5-2262.2,14.3z M-2271.9,3.2c0,2.1-0.7,3.9-2.1,5.4
		c-1.4,1.5-3.4,2.2-6,2.2c-2.6,0-4.6-0.7-6-2.2c-1.5-1.5-2.2-3.3-2.2-5.4V2.9c0-2.1,0.7-3.9,2.1-5.3c1.4-1.4,3.4-2.1,6-2.1
		c2.6,0,4.6,0.7,6,2.2c1.5,1.5,2.2,3.2,2.2,5.4V3.2z"/>
	<linearGradient id="SVGID_19_" gradientUnits="userSpaceOnUse" x1="-2304.3403" y1="-7.1292" x2="-2258.7832" y2="-7.1292">
		<stop  offset="0.5979" style="stop-color:#FFFFFF"/>
		<stop  offset="1" style="stop-color:#000000"/>
	</linearGradient>
	<path opacity="0.39" fill="url(#SVGID_19_)" d="M-2262.2,14.3c-2.3-2.7-4.1-6-5.3-9.6c-1.2-3.7-1.9-7.6-1.9-11.7v-0.2
		c0-2.6,0.3-5.1,0.8-7.5c0-0.1,0.1-0.3,0.1-0.4c-2.2-0.7-4.5-1.1-6.9-1.1c-2.9,0-5.3,0.5-7.3,1.4c-2,0.9-3.7,2-5.3,3.1
		c0.4-3.6,1.5-6.6,3.2-8.9c1.8-2.3,4.3-3.4,7.8-3.4c2.3,0,4.4,0.4,6.2,1.2c1.3,0.6,2.7,1.3,4,2.2c1.2-3,2.8-5.7,4.8-8
		c0.8-1,1.7-1.8,2.6-2.7c0.2-0.2,0.4-0.3,0.6-0.5c-2.5-1.8-5.1-3.2-7.8-4.1c-3-1.1-6.6-1.6-10.7-1.6c-4.6,0-8.5,0.8-11.9,2.5
		c-3.4,1.6-6.2,3.9-8.5,6.8c-2.2,2.9-3.9,6.2-5,10.1c-0.9,3-1.4,6.3-1.6,9.7c-0.1,1-0.1,2-0.1,3v0.2c0,5.4,0.7,9.9,2,13.4
		c0.5,1.4,1.1,2.6,1.7,3.8c1,1.8,2.2,3.4,3.5,4.7c2.1,2.1,4.6,3.7,7.4,4.9c2.8,1.2,6.3,1.8,10.5,1.8c3.2,0,6.2-0.5,9-1.5
		c2.8-1,5.3-2.4,7.4-4.2c0.7-0.6,1.3-1.3,2-2c-0.2-0.2-0.5-0.5-0.7-0.8C-2261.9,14.7-2262,14.5-2262.2,14.3z M-2271.9,3.2
		c0,2.1-0.7,3.9-2.1,5.4c-1.4,1.5-3.4,2.2-6,2.2c-2.6,0-4.6-0.7-6-2.2c-1.5-1.5-2.2-3.3-2.2-5.4V2.9c0-2.1,0.7-3.9,2.1-5.3
		c1.4-1.4,3.4-2.1,6-2.1c2.6,0,4.6,0.7,6,2.2c1.5,1.5,2.2,3.2,2.2,5.4V3.2z"/>
	<path fill="#BE1E2D" d="M-2343.8-36.3v13.1h22.3l-13.4,12.1l2.3,8.4h6.8c3.1,0,5.4,0.5,7,1.6c1.6,1.1,2.5,2.5,2.5,4.4v0.2
		c0,1.8-0.7,3.2-2,4.3c-1.3,1.1-3.2,1.6-5.5,1.6c-2.7,0-5.1-0.6-7.4-1.8c-2.2-1.2-4.4-2.8-6.5-4.9l-10.2,10.2
		c2.8,3.2,6.3,5.7,10.3,7.5c4,1.9,8.9,2.8,14.5,2.8c3.2,0,6.2-0.5,9-1.4c2.8-0.9,5.1-2.2,7.1-3.9c1.6-1.4,3-3,4-4.9
		c-0.2-0.4-0.5-0.8-0.7-1.2c-0.6-1.2-1.2-2.4-1.7-3.8c-1.3-3.5-2-7.9-2-13.4v-0.2c0-1,0-2,0.1-3c0-0.3,0.1-0.6,0.1-1
		c-0.8-0.6-1.7-1.1-2.6-1.5c-1.8-0.8-3.8-1.5-5.8-1.9l11.7-10l2.2-1.9v-2v-9.6H-2343.8z"/>
	<linearGradient id="SVGID_20_" gradientUnits="userSpaceOnUse" x1="-2347.8167" y1="-6.5459" x2="-2301.6484" y2="-6.5459">
		<stop  offset="0.5979" style="stop-color:#FFFFFF"/>
		<stop  offset="1" style="stop-color:#000000"/>
	</linearGradient>
	<path opacity="0.39" fill="url(#SVGID_20_)" d="M-2343.8-36.3v13.1h22.3l-13.4,12.1l2.3,8.4h6.8c3.1,0,5.4,0.5,7,1.6
		c1.6,1.1,2.5,2.5,2.5,4.4v0.2c0,1.8-0.7,3.2-2,4.3c-1.3,1.1-3.2,1.6-5.5,1.6c-2.7,0-5.1-0.6-7.4-1.8c-2.2-1.2-4.4-2.8-6.5-4.9
		l-10.2,10.2c2.8,3.2,6.3,5.7,10.3,7.5c4,1.9,8.9,2.8,14.5,2.8c3.2,0,6.2-0.5,9-1.4c2.8-0.9,5.1-2.2,7.1-3.9c1.6-1.4,3-3,4-4.9
		c-0.2-0.4-0.5-0.8-0.7-1.2c-0.6-1.2-1.2-2.4-1.7-3.8c-1.3-3.5-2-7.9-2-13.4v-0.2c0-1,0-2,0.1-3c0-0.3,0.1-0.6,0.1-1
		c-0.8-0.6-1.7-1.1-2.6-1.5c-1.8-0.8-3.8-1.5-5.8-1.9l11.7-10l2.2-1.9v-2v-9.6H-2343.8z"/>
	<path fill="#771223" d="M-2303.9,8.1c-1.3-3.5-2-7.9-2-13.4v-0.2c0-1,0-2,0.1-3c-0.4-0.3-0.8-0.7-1.3-1c0,0.3-0.1,0.6-0.1,1
		c-0.1,1-0.1,2-0.1,3v0.2c0,5.4,0.7,9.9,2,13.4c0.5,1.4,1.1,2.6,1.7,3.8c0.2,0.4,0.5,0.8,0.7,1.2c0.2-0.4,0.5-0.8,0.6-1.2
		C-2302.9,10.7-2303.4,9.4-2303.9,8.1z"/>
	<path fill="#771223" d="M-2260.8,14.3c-2.3-2.7-4.1-6-5.3-9.6c-1.2-3.7-1.9-7.6-1.9-11.7v-0.2c0-2.6,0.3-5.1,0.8-7.5
		c-0.3-0.1-0.5-0.2-0.8-0.3c-0.1,0-0.3-0.1-0.4-0.1c0,0.1-0.1,0.3-0.1,0.4c-0.5,2.4-0.8,4.9-0.8,7.5V-7c0,4.1,0.6,8,1.9,11.7
		c1.3,3.7,3,6.9,5.3,9.6c0.1,0.2,0.3,0.3,0.4,0.5c0.2,0.3,0.5,0.5,0.7,0.8c0.2-0.3,0.4-0.5,0.7-0.8
		C-2260.5,14.7-2260.7,14.5-2260.8,14.3z"/>
	<path fill="#771223" d="M-2262-28.5c-2,2.3-3.6,5-4.8,8c0.4,0.2,0.7,0.5,1.1,0.7c1.3-3.3,2.9-6.2,5.1-8.7c0.8-1,1.7-1.8,2.6-2.7
		c-0.2-0.2-0.5-0.3-0.7-0.5c-0.2,0.2-0.4,0.3-0.6,0.5C-2260.3-30.3-2261.2-29.5-2262-28.5z"/>
</g>
<g>
	<path fill="none" d="M-563.9,983c-2.1,0-3.8,0.6-5,1.8c-1.2,1.2-1.8,2.7-1.8,4.5v0.1c0,1.8,0.6,3.3,1.8,4.5
		c1.2,1.2,2.9,1.9,5.1,1.9c2.1,0,3.8-0.6,5-1.8c1.2-1.2,1.8-2.7,1.8-4.5v-0.1c0-1.8-0.6-3.3-1.8-4.5C-560,983.7-561.7,983-563.9,983
		z"/>
	<path fill="#BE1E2D" d="M-617.6,956.5v10.9h18.7l-11.2,10.1l2,7h5.7c2.6,0,4.5,0.4,5.9,1.3c1.4,0.9,2.1,2.1,2.1,3.7v0.1
		c0,1.5-0.6,2.7-1.7,3.6c-1.1,0.9-2.6,1.4-4.6,1.4c-2.2,0-4.3-0.5-6.2-1.5c-1.9-1-3.7-2.3-5.5-4.1l-8.5,8.5c2.4,2.6,5.2,4.8,8.6,6.3
		c3.4,1.6,7.4,2.3,12.2,2.3c2.7,0,5.2-0.4,7.5-1.2s4.3-1.9,6-3.3c1.4-1.2,2.5-2.5,3.4-4.1c0.2-0.3,0.4-0.7,0.5-1c-0.5-1-1-2-1.4-3.2
		c-1.1-2.9-1.6-6.6-1.6-11.2v-0.1c0-0.8,0-1.7,0.1-2.5c-0.3-0.3-0.7-0.5-1.1-0.8c-0.7-0.5-1.4-0.9-2.2-1.2c-1.5-0.7-3.2-1.2-4.9-1.6
		l9.8-8.4l1.8-1.6v-1.7v-8H-617.6z"/>
	<path fill="#BE1E2D" d="M-561.7,966.8c2,0,3.7,0.3,5.2,1c1.1,0.5,2.2,1.1,3.3,1.9c0.5-1.3,1.1-2.4,1.8-3.6
		c-0.7,1.1-1.3,2.3-1.8,3.6c0.3,0.2,0.6,0.4,0.9,0.6c1-2.8,2.5-5.2,4.2-7.3c0.7-0.8,1.4-1.5,2.2-2.2c-0.2-0.1-0.4-0.3-0.6-0.4
		c-2.1-1.5-4.3-2.7-6.5-3.5c-2.5-0.9-5.5-1.4-8.9-1.4c-3.8,0-7.1,0.7-10,2.1c-2.8,1.4-5.2,3.3-7.1,5.6c-1.9,2.4-3.3,5.2-4.2,8.5
		c-0.7,2.5-1.2,5.2-1.3,8.1c0,0.8-0.1,1.6-0.1,2.5v0.1c0,4.6,0.5,8.3,1.6,11.2c0.4,1.1,0.9,2.2,1.4,3.2c0.8,1.5,1.8,2.8,2.9,3.9
		c1.8,1.8,3.8,3.1,6.2,4.1c2.3,1,5.3,1.5,8.8,1.5c2.7,0,5.2-0.4,7.5-1.2c2.4-0.8,4.4-2,6.2-3.5c0.6-0.5,1.1-1.1,1.6-1.7
		c0.2-0.2,0.4-0.4,0.5-0.6c-0.1-0.1-0.3-0.3-0.4-0.4c-1.9-2.3-3.4-5-4.5-8.1c-1-3.1-1.6-6.3-1.6-9.8v-0.1c0-2.2,0.2-4.2,0.6-6.3
		c-0.2-0.1-0.5-0.2-0.7-0.3c-0.1,0-0.2-0.1-0.4-0.1c-1.8-0.6-3.8-0.9-5.8-0.9c-2.4,0-4.5,0.4-6.1,1.2c-1.7,0.8-3.1,1.6-4.4,2.6
		c0.3-3,1.2-5.5,2.7-7.4C-566.7,967.8-564.6,966.8-561.7,966.8z M-549.3,998.8c-1-1.2-1.8-2.4-2.6-3.7
		C-551.1,996.4-550.2,997.7-549.3,998.8z M-569.3,984.8c1.2-1.2,2.8-1.8,5-1.8c2.1,0,3.8,0.6,5.1,1.8c1.2,1.2,1.8,2.7,1.8,4.5v0.1
		c0,1.8-0.6,3.3-1.8,4.5c-1.2,1.2-2.8,1.8-5,1.8c-2.1,0-3.8-0.6-5.1-1.9c-1.2-1.2-1.8-2.7-1.8-4.5v-0.1
		C-571.1,987.5-570.5,986-569.3,984.8z"/>
	<path fill="#BE1E2D" d="M-530.4,955.4c-12.4,0-22.5,11.4-22.5,25.4s10.1,25.4,22.5,25.4c12.4,0,22.5-11.4,22.5-25.4
		S-518,955.4-530.4,955.4z M-542.5,985.1c-0.2-0.7,0.2-1.2,0.9-1.3c1.3-0.3,2.5-0.5,3.8-0.9c3.2-0.9,5.7-2.6,6.4-6.1
		c0.1-0.5,0.2-1,0.2-1.5c0-0.8,0.3-1.4,1.2-1.4c0.9,0.1,1.1,0.8,1,1.4c-0.3,4.5-2.5,7.5-6.5,9.1c-1.8,0.7-3.7,1.2-5.7,1.5
		C-541.9,986.1-542.4,985.8-542.5,985.1z M-541.8,988.8c-0.3-0.9,0-1.3,0.9-1.5c2.3-0.5,4.6-1.2,6.9-2.1c3.8-1.5,5.7-4.4,6.2-8.3
		c0.1-0.6,0.2-1.3,0.2-1.9c0-1.2-0.9-2.3-2.1-2.5c-1.4-0.2-2.4,0.5-2.8,1.8c-0.1,0.5-0.2,1-0.4,1.6c-0.9,3.6-3.3,5.6-6.9,6.3
		c-0.5,0.1-1.1,0.2-1.6,0.2c-1,0-1.6-0.3-1.6-1.1c0-0.9,0.7-1.1,1.4-1.1c0.5,0,1,0,1.5-0.1c3-0.5,4.7-2.4,5.2-5.4
		c0.3-1.4,0.7-2.7,2-3.5c1.5-1,3.1-1.1,4.7-0.4c1.7,0.8,2.6,2.2,2.7,4.1c0,0.2,0,0.3,0,0.5c-0.3,5.6-2.6,9.8-8.1,11.9
		c-1.7,0.6-3.3,1.3-5.1,1.5c-0.6,0.1-1.1,0.3-1.6,0.5C-540.9,989.6-541.5,989.6-541.8,988.8z M-524.5,997.9
		c-0.2,0.6-0.7,0.6-1.2,0.6c0,0-0.1,0-0.1,0c-2.6-1.9-5.3-0.7-8-0.1c-0.4,0.1-0.7,0.1-1.1,0.1c-0.6,0-0.9-0.4-1-0.9
		c-0.1-0.5,0.2-1,0.7-1.1c2.1-0.4,4.1-1.1,5.9-1.2c1.8,0,3.1,0.7,4.5,1.4C-524.3,996.9-524.2,997.4-524.5,997.9z M-521.6,995.3
		c-0.3,0.7-0.9,0.8-1.6,0.6c-0.9-0.4-1.9-0.7-2.8-1.2c-1.8-1.1-3.5-1.1-5.4-0.4c-1.9,0.7-3.9,1.2-5.9,1.6c-0.7,0.1-1.3,0-1.6-0.8
		c-0.2-0.7,0.3-1.1,1.2-1.4c2.3-0.6,4.6-1.2,6.9-1.8c0.7-0.2,1.5-0.3,2.3-0.3c1.5-0.2,5.3,1.8,6.1,2.1
		C-521.7,994.1-521.3,994.5-521.6,995.3z M-519.5,992.2c-0.2,0.7-0.8,0.8-1.4,0.6c-1.8-0.5-3.6-1.1-5.2-2.2c-1-0.6-2-1-3.3-0.6
		c-2.3,0.8-4.6,1.4-6.8,2c-1,0.3-2,0.4-3,0.7c-0.7,0.2-1.2,0.1-1.4-0.7c-0.1-0.7,0.2-1.2,0.9-1.4c1.3-0.3,2.6-0.5,3.8-0.9
		c2.1-0.7,4.2-1.2,6.2-1.8c0.5-0.1,0.9-0.2,1.4-0.2c1.6-0.1,2.7,1,4,1.5c1.3,0.5,2.5,1.3,3.8,1.5
		C-519.8,991-519.3,991.5-519.5,992.2z M-518.5,988.9c-0.2,0.4-0.5,0.5-0.9,0.5c-2.6-0.5-5.1-1.4-7-3.5c-0.5-0.5-0.5-1.1,0-1.6
		c0.5-0.5,1.1-0.4,1.5,0.1c1.5,1.6,3.4,2.4,5.5,2.9C-518.5,987.5-518.2,988.1-518.5,988.9z M-517.8,985.2c-0.2,0.7-0.7,0.9-1.4,0.7
		c-3.2-0.8-5-3-5-6.3c0-0.3,0-0.7,0-1c0.1,0,0.2-2.3,0.2-3.5c-0.2-4.4-4.3-7.2-8.2-5.7c-2.1,0.8-3.2,2.4-3.8,4.5
		c-0.2,0.7-0.3,1.5-0.7,2.2c-0.9,1.9-2.7,2.8-4.7,2.6c-0.7-0.1-1.1-0.4-1.1-1.2c0-0.7,0.6-1,1.2-1c1.8,0,2.5-0.5,2.9-2.4
		c0.3-1.3,0.7-2.6,1.5-3.8c2-2.9,5.6-4.2,9-3.2c3.4,1,5.9,4.2,6,7.6c0,1.4-0.1,2.8-0.2,4.2c-0.1,2.9,0.6,3.9,3.3,4.9
		c0.1,0,0.2,0.1,0.3,0.1C-517.9,984.1-517.6,984.6-517.8,985.2z M-517.6,981.9c-0.3,0.5-0.8,0.6-1.4,0.4c-1.1-0.5-1.9-2-1.7-3.6
		c0.1-1.9,0.4-3.9,0-5.8c-1.1-4.3-4.9-7.4-9.3-7.5c-4.5,0-8.3,3-9.5,7.3c-0.1,0.5-0.2,1-0.4,1.4c-0.2,0.5-0.7,0.8-1.2,0.6
		c-0.6-0.2-0.9-0.6-0.8-1.2c1.3-7.3,7.8-11.2,13.9-10.1c5.3,0.9,10,5.9,9.8,12.2c0,0.4,0,0.8,0,1.1c0,0-0.1,1.4-0.2,2.1
		c-0.1,0.7,0,1.3,0.7,1.7C-517.3,980.8-517.2,981.3-517.6,981.9z"/>
</g>
<g>
	<g>
		<path fill="#6D6E71" d="M9.4,14l5.3,14.3l5.1-14.2c0.3-0.8,0.5-1.4,0.5-1.6c0-0.7-0.3-1-1-1c-0.2,0-0.6,0-1.1,0.1
			c-0.5,0.1-0.8,0.1-1.1,0.1c-1,0-1.5-0.5-1.5-1.5c0-1,0.7-1.6,2.2-1.6c0.1,0,0.2,0,0.4,0c0.2,0,0.3,0,0.4,0l1.9,0.2
			c0.4,0.1,0.9,0.2,1.3,0.2c0.6,0,1.6-0.1,3-0.3c0.8-0.1,1.5-0.2,1.8-0.2c1.3,0,2,0.5,2,1.5c0,1-0.5,1.5-1.6,1.5
			c-0.3,0-0.6,0-0.7-0.1c-0.5-0.1-0.8-0.2-1-0.2c-0.5,0-1.1,0.7-1.7,2.2l-6.4,16.4c-0.5,1.4-1.5,2.1-2.8,2.1c-1.2,0-2.1-0.7-2.7-2.1
			L5.2,13.2c-0.4-1.1-0.9-1.7-1.5-1.7c-0.2,0-0.5,0-1,0.1c-0.4,0.1-0.7,0.1-1,0.1c-1,0-1.5-0.5-1.5-1.4c0-1.1,0.7-1.6,2.1-1.6
			c0.2,0,0.4,0,0.5,0L4.9,9c0.6,0.1,1.3,0.1,1.9,0.1C7.3,9.1,8,9,9,8.9l1.5-0.2c0.2,0,0.4-0.1,0.6-0.1c1.3,0,2,0.5,2,1.6
			c0,1-0.6,1.5-1.7,1.5c-0.4,0-0.6,0-0.8-0.1c-0.6-0.1-0.9-0.2-1.1-0.2c-0.5,0-0.7,0.2-0.7,0.6c0,0.2,0.1,0.5,0.2,0.9L9.4,14z"/>
		<path fill="#6D6E71" d="M49.9,18.1c0,1.2-0.1,1.9-0.2,2.1c-0.2,0.3-0.6,0.4-1.3,0.4H33.9c-0.4,0-0.7,0.1-0.8,0.2
			C33,20.8,33,21,33,21.2c0,2.3,0.7,4.2,2,5.7c1.4,1.5,3.1,2.3,5.1,2.3c1.3,0,2.6-0.4,3.7-1.1c1.1-0.7,1.8-1.7,2.2-2.8l0.4-1.3
			c0.2-0.7,0.7-1.1,1.5-1.1c1.1,0,1.7,0.6,1.7,1.7c0,2-1,3.7-3,5.3c-2,1.5-4.3,2.3-6.8,2.3c-3.2,0-5.7-1.1-7.6-3.2
			c-1.9-2.1-2.8-5-2.8-8.6c0-3.7,1-6.7,3-9c2-2.3,4.6-3.5,7.8-3.5c2.9,0,5.2,1,7.1,2.9C49,12.7,49.9,15.1,49.9,18.1z M33.4,16.9
			c0,0.4,0.3,0.6,1,0.6h10.9c0.6,0,1-0.2,1-0.6c0-1.6-0.6-3-1.8-4.2c-1.2-1.2-2.6-1.8-4.3-1.8c-1.7,0-3.2,0.6-4.6,1.8
			C34.1,14,33.4,15.4,33.4,16.9z"/>
		<path fill="#6D6E71" d="M60.2,10v1.3c1.6-2.2,3.7-3.3,6.3-3.3c2.1,0,3.8,0.6,5.2,1.8c1.3,1.2,2,2.7,2,4.6c0,1.3-0.3,2.4-1,3.3
			c-0.7,0.8-1.5,1.3-2.6,1.3c-0.7,0-1.3-0.2-1.8-0.6c-0.5-0.4-0.7-0.9-0.7-1.5c0-0.5,0.2-0.9,0.5-1.3c0.4-0.4,0.8-0.6,1.3-0.6
			c0.1,0,0.3,0,0.6,0.1c0.2-0.4,0.3-0.7,0.3-1c0-0.9-0.4-1.6-1.2-2.2c-0.8-0.6-1.7-0.9-2.9-0.9c-2.4,0-3.9,1.1-4.7,3.2
			c-0.5,1.3-0.7,3.3-0.7,5.9v3c0,2,0,3.2,0,3.4c0.2,1.7,0.6,2.6,1.4,2.6c0.4,0,0.8-0.1,1.2-0.2c0.3-0.1,0.6-0.1,0.9-0.1
			c1,0,1.5,0.5,1.5,1.4c0,1-0.6,1.6-1.9,1.6h-0.2c-0.5,0-1.1-0.1-2.1-0.2c-0.9-0.1-1.6-0.2-2.1-0.2c-1.2,0-2.2,0-2.9,0.1l-2.5,0.2
			c-1.2,0-1.9-0.5-1.9-1.6c0-0.9,0.6-1.4,1.7-1.4c0.3,0,0.5,0,0.7,0l0.7,0.1c0.3,0.1,0.5,0.1,0.6,0.1c0.8,0,1.2-0.7,1.2-2.1v-2.3
			l-0.1-10.3c-0.1-1.8-0.5-2.7-1.4-2.7c-0.2,0-0.6,0-1,0.1c-0.4,0.1-0.8,0.1-1,0.1c-1,0-1.5-0.5-1.5-1.5c0-1.1,0.7-1.6,2-1.6
			c0.3,0,0.8,0,1.4,0.1c0.6,0.1,1.1,0.1,1.4,0.1c0.2,0,0.6,0,1.2-0.1c0.2-0.1,0.5-0.1,0.9-0.1C59.8,8.7,60.2,9.1,60.2,10z"/>
		<path fill="#6D6E71" d="M83,18.2v5.9c0,1.5,0,2.4,0,2.7c0.2,1.4,0.6,2,1.2,2c0.2,0,0.5-0.1,1.1-0.2c0.2-0.1,0.4-0.1,0.7-0.1
			c1.2,0,1.7,0.5,1.7,1.5c0,0.4-0.2,0.8-0.6,1.1c-0.4,0.3-0.9,0.5-1.4,0.5c-0.5,0-1.2-0.1-2.2-0.2c-1-0.1-1.7-0.2-2.2-0.2
			c-0.8,0-1.7,0.1-2.6,0.2c-1.2,0.2-2,0.2-2.4,0.2c-1.2,0-1.8-0.5-1.8-1.5c0-1,0.5-1.5,1.6-1.5c0.2,0,0.6,0,1.1,0.1
			c0.5,0.1,0.8,0.1,1.1,0.1c0.7,0,1.2-1,1.3-2.9c0-0.1,0-1.4,0-4v-3.7c0-2.5,0-3.8,0-4c-0.2-1.9-0.6-2.9-1.4-2.9
			c-0.2,0-0.6,0.1-1,0.2c-0.4,0.1-0.8,0.2-1,0.2c-1.1,0-1.7-0.5-1.7-1.5c0-1,0.7-1.5,2-1.5c0.6,0,1,0,1.2,0c1,0.1,1.6,0.2,1.9,0.2
			c0.2,0,0.6,0,1.1-0.1c0.5-0.1,0.9-0.1,1.1-0.1c0.9,0,1.3,0.6,1.3,1.8c0,0.1,0,0.3,0,0.5c0,0.2,0,0.4,0,0.5c0,0.2,0,1.2-0.1,2.8
			C83,15.7,83,16.9,83,18.2z M80.7,6.3c-0.7,0-1.3-0.2-1.8-0.8c-0.5-0.5-0.8-1.1-0.8-1.8c0-0.7,0.2-1.3,0.8-1.8
			c0.5-0.5,1.1-0.7,1.8-0.7c0.7,0,1.3,0.2,1.8,0.7c0.5,0.5,0.8,1.1,0.8,1.8c0,0.7-0.3,1.3-0.8,1.8C82,6.1,81.4,6.3,80.7,6.3z"/>
		<path fill="#6D6E71" d="M103.2,4.5c0-0.4,0.2-0.8,0.5-1.1c-0.5-0.5-1.3-0.7-2.3-0.7c-1.3,0-2.3,0.4-3.1,1.3
			c-0.7,0.8-1.1,2-1.1,3.5v0.8c0,0.4,0.2,0.6,0.6,0.6h3.5c1,0,1.5,0.5,1.5,1.6s-0.5,1.6-1.5,1.6H98c-0.5,0-0.8,0.3-0.8,0.8v12.7
			c0,1.1,0,1.8,0,2c0.2,0.8,0.5,1.2,1.1,1.2c0.2,0,0.5-0.1,1.1-0.2c0.4-0.1,0.7-0.1,0.9-0.1c1,0,1.5,0.5,1.5,1.5
			c0,1.1-0.6,1.6-1.9,1.6c-0.5,0-1.3-0.1-2.3-0.2c-1-0.1-1.8-0.2-2.3-0.2c-0.9,0-1.7,0-2.5,0.1c-1.2,0.2-1.9,0.2-2.3,0.2
			c-1.3,0-2-0.5-2-1.6c0-0.4,0.2-0.7,0.5-1c0.3-0.3,0.7-0.5,1.1-0.5c0.3,0,0.6,0.1,1,0.2c0.4,0.1,0.7,0.2,1,0.2
			c0.6,0,0.9-0.4,1.1-1.1c0.2-0.7,0.2-2.5,0.3-5.3v-9.6c0-0.5-0.3-0.8-0.8-0.8h-2.3c-1.1,0-1.6-0.6-1.6-1.7c0-1.1,0.5-1.6,1.6-1.6
			h2.6c0.4,0,0.6-0.2,0.6-0.6V7.4c0-2.4,0.6-4.2,1.9-5.5c1.3-1.3,3.1-1.9,5.4-1.9c1.9,0,3.4,0.4,4.6,1.2c1.2,0.8,1.7,1.8,1.7,3.1
			c0,0.7-0.2,1.2-0.6,1.6c-0.4,0.4-1,0.6-1.6,0.6c-0.6,0-1.1-0.2-1.5-0.6C103.4,5.6,103.2,5.1,103.2,4.5z"/>
		<path fill="#6D6E71" d="M112.7,13.1l5.2,15.4l5.6-15.2c0.2-0.4,0.2-0.8,0.2-1c0-0.5-0.3-0.8-1-0.8c-0.4,0-0.7,0-0.9,0.1
			c-0.5,0.1-0.8,0.1-1,0.1c-1,0-1.5-0.5-1.5-1.5c0-1,0.7-1.5,2-1.5c0.2,0,0.5,0,0.9,0.1l1.6,0.2c0.4,0.1,0.9,0.1,1.4,0.1
			c0.5,0,1.3-0.1,2.3-0.2c1-0.1,1.8-0.2,2.3-0.2c1.3,0,2,0.5,2,1.5c0,1-0.5,1.5-1.5,1.5c-0.3,0-0.5,0-0.7-0.1
			c-0.4-0.1-0.7-0.1-0.8-0.1c-0.6,0-1.2,0.8-1.8,2.3l-6.2,15.5c-1.4,3.4-2.7,5.9-3.9,7.5c-2.1,2.6-4.6,4-7.7,4
			c-1.9,0-3.4-0.5-4.7-1.4c-1.3-0.9-1.9-2.1-1.9-3.4c0-0.9,0.3-1.7,0.8-2.3c0.5-0.6,1.3-0.9,2.1-0.9c0.7,0,1.3,0.2,1.7,0.6
			c0.5,0.4,0.7,0.9,0.7,1.5c0,1-0.4,1.6-1.3,1.9c0.5,0.7,1.3,1,2.6,1c1.6,0,3.1-0.6,4.3-1.8c1.3-1.2,1.9-2.5,1.9-4
			c0-0.8-0.4-2.2-1.2-4.2l-5-12.6l-0.5-1.5c-0.5-1.4-1.1-2-1.8-2c-0.2,0-0.5,0-1,0.1c-0.5,0.1-0.8,0.1-0.9,0.1
			c-1.1,0-1.6-0.5-1.6-1.5c0-1,0.7-1.5,2.1-1.5c0.5,0,0.8,0,1,0.1l1.8,0.3c0,0,0.2,0,0.4,0c0.2,0,0.4,0,0.5,0c1.1,0,2.3-0.1,3.5-0.2
			c0.9-0.1,1.6-0.2,1.9-0.2c1.3,0,1.9,0.5,1.9,1.5s-0.6,1.5-1.7,1.5c-0.2,0-0.5,0-0.9-0.1c-0.4-0.1-0.7-0.1-0.9-0.1
			c-0.4,0-0.6,0.2-0.6,0.6C112.5,12.4,112.6,12.7,112.7,13.1z"/>
	</g>
	<g>
		<path fill="none" d="M166.9,21.6c-1.2,0-2.2,0.3-2.9,1c-0.7,0.7-1,1.5-1,2.6v0.1c0,1,0.4,1.9,1.1,2.6c0.7,0.7,1.7,1.1,2.9,1.1
			c1.2,0,2.2-0.3,2.9-1c0.7-0.7,1-1.6,1-2.6v-0.1c0-1-0.4-1.9-1.1-2.6C169.1,21.9,168.1,21.6,166.9,21.6z"/>
		<path fill="#BE1E2D" d="M136,6.4v6.3h10.7l-6.4,5.8l1.1,4h3.3c1.5,0,2.6,0.3,3.4,0.8c0.8,0.5,1.2,1.2,1.2,2.1v0.1
			c0,0.9-0.3,1.5-1,2.1c-0.6,0.5-1.5,0.8-2.6,0.8c-1.3,0-2.5-0.3-3.5-0.8c-1.1-0.6-2.1-1.3-3.1-2.4l-4.9,4.9c1.4,1.5,3,2.7,4.9,3.6
			c1.9,0.9,4.3,1.3,7,1.3c1.5,0,3-0.2,4.3-0.7c1.3-0.4,2.5-1.1,3.4-1.9c0.8-0.7,1.4-1.5,1.9-2.3c0.1-0.2,0.2-0.4,0.3-0.6
			c-0.3-0.6-0.6-1.2-0.8-1.8c-0.6-1.7-0.9-3.8-0.9-6.4v-0.1c0-0.5,0-1,0-1.4c-0.2-0.2-0.4-0.3-0.6-0.5c-0.4-0.3-0.8-0.5-1.3-0.7
			c-0.9-0.4-1.8-0.7-2.8-0.9l5.6-4.8l1.1-0.9v-1V6.4H136z"/>
		<path fill="#BE1E2D" d="M168.1,12.3c1.1,0,2.1,0.2,3,0.6c0.6,0.3,1.3,0.6,1.9,1.1c0.3-0.7,0.6-1.4,1-2c-0.4,0.6-0.7,1.3-1,2
			c0.2,0.1,0.3,0.2,0.5,0.4c0.6-1.6,1.4-3,2.4-4.2c0.4-0.5,0.8-0.9,1.3-1.3c-0.1-0.1-0.2-0.2-0.3-0.2c-1.2-0.9-2.5-1.5-3.7-2
			c-1.4-0.5-3.1-0.8-5.1-0.8c-2.2,0-4.1,0.4-5.7,1.2c-1.6,0.8-3,1.9-4.1,3.2c-1.1,1.4-1.9,3-2.4,4.9c-0.4,1.5-0.7,3-0.8,4.6
			c0,0.5,0,0.9,0,1.4v0.1c0,2.6,0.3,4.8,0.9,6.4c0.2,0.7,0.5,1.3,0.8,1.8c0.5,0.9,1,1.6,1.7,2.3c1,1,2.2,1.8,3.5,2.4
			c1.3,0.6,3,0.8,5,0.8c1.5,0,3-0.2,4.3-0.7c1.4-0.5,2.5-1.1,3.5-2c0.3-0.3,0.6-0.6,0.9-1c0.1-0.1,0.2-0.2,0.3-0.4
			c-0.1-0.1-0.1-0.2-0.2-0.2c-1.1-1.3-2-2.9-2.6-4.6c-0.6-1.8-0.9-3.6-0.9-5.6v-0.1c0-1.2,0.1-2.4,0.4-3.6c-0.1-0.1-0.3-0.1-0.4-0.1
			c-0.1,0-0.1,0-0.2-0.1c-1.1-0.3-2.2-0.5-3.3-0.5c-1.4,0-2.6,0.2-3.5,0.7c-0.9,0.4-1.8,0.9-2.5,1.5c0.2-1.7,0.7-3.2,1.5-4.3
			C165.2,12.8,166.5,12.3,168.1,12.3z M175.2,30.7c-0.6-0.7-1-1.4-1.5-2.1C174.2,29.3,174.7,30,175.2,30.7z M163.7,22.6
			c0.7-0.7,1.6-1,2.9-1c1.2,0,2.2,0.3,2.9,1c0.7,0.7,1.1,1.6,1.1,2.6v0.1c0,1-0.3,1.9-1,2.6c-0.7,0.7-1.6,1-2.9,1
			c-1.2,0-2.2-0.4-2.9-1.1c-0.7-0.7-1.1-1.6-1.1-2.6v-0.1C162.7,24.2,163.1,23.3,163.7,22.6z"/>
		<path fill="#BE1E2D" d="M186,5.7c-7.1,0-12.9,6.5-12.9,14.6s5.8,14.6,12.9,14.6c7.1,0,12.9-6.5,12.9-14.6S193.2,5.7,186,5.7z
			 M179.1,22.8c-0.1-0.4,0.1-0.7,0.5-0.8c0.7-0.2,1.5-0.3,2.2-0.5c1.8-0.5,3.2-1.5,3.7-3.5c0.1-0.3,0.1-0.6,0.1-0.9
			c0-0.5,0.2-0.8,0.7-0.8c0.5,0,0.6,0.4,0.6,0.8c-0.2,2.6-1.4,4.3-3.7,5.2c-1,0.4-2.1,0.7-3.2,0.9C179.5,23.3,179.2,23.2,179.1,22.8
			z M179.5,24.9c-0.2-0.5,0-0.7,0.5-0.8c1.3-0.3,2.7-0.7,3.9-1.2c2.2-0.9,3.3-2.5,3.6-4.8c0-0.4,0.1-0.7,0.1-1.1
			c0-0.7-0.5-1.3-1.2-1.4c-0.8-0.1-1.4,0.3-1.6,1c-0.1,0.3-0.1,0.6-0.2,0.9c-0.5,2.1-1.9,3.2-4,3.6c-0.3,0.1-0.6,0.1-0.9,0.1
			c-0.6,0-0.9-0.2-0.9-0.6c0-0.5,0.4-0.6,0.8-0.7c0.3,0,0.6,0,0.9-0.1c1.7-0.3,2.7-1.4,3-3.1c0.1-0.8,0.4-1.5,1.1-2
			c0.9-0.6,1.8-0.6,2.7-0.2c1,0.5,1.5,1.3,1.5,2.4c0,0.1,0,0.2,0,0.3c-0.1,3.2-1.5,5.6-4.6,6.8c-1,0.4-1.9,0.7-2.9,0.8
			c-0.3,0-0.6,0.2-0.9,0.3C180,25.4,179.7,25.4,179.5,24.9z M189.5,30.1c-0.1,0.3-0.4,0.4-0.7,0.4c0,0,0,0-0.1,0
			c-1.5-1.1-3-0.4-4.6-0.1c-0.2,0-0.4,0.1-0.6,0.1c-0.4,0-0.5-0.2-0.6-0.5c0-0.3,0.1-0.6,0.4-0.6c1.2-0.2,2.3-0.6,3.4-0.7
			c1,0,1.8,0.4,2.6,0.8C189.5,29.5,189.6,29.8,189.5,30.1z M191.1,28.6c-0.2,0.4-0.5,0.5-0.9,0.3c-0.5-0.2-1.1-0.4-1.6-0.7
			c-1-0.6-2-0.6-3.1-0.2c-1.1,0.4-2.2,0.7-3.4,0.9c-0.4,0.1-0.8,0-0.9-0.4c-0.1-0.4,0.2-0.7,0.7-0.8c1.3-0.3,2.6-0.7,3.9-1
			c0.4-0.1,0.8-0.2,1.3-0.2c0.9-0.1,3.1,1.1,3.5,1.2C191,27.9,191.3,28.2,191.1,28.6z M192.3,26.9c-0.1,0.4-0.5,0.5-0.8,0.4
			c-1-0.3-2.1-0.7-3-1.2c-0.6-0.4-1.2-0.6-1.9-0.3c-1.3,0.4-2.6,0.8-3.9,1.2c-0.6,0.2-1.2,0.3-1.7,0.4c-0.4,0.1-0.7,0-0.8-0.4
			c-0.1-0.4,0.1-0.7,0.5-0.8c0.7-0.2,1.5-0.3,2.2-0.5c1.2-0.4,2.4-0.7,3.6-1c0.3-0.1,0.5-0.1,0.8-0.1c0.9-0.1,1.5,0.6,2.3,0.9
			c0.7,0.3,1.4,0.7,2.2,0.9C192.1,26.2,192.4,26.4,192.3,26.9z M192.9,25c-0.1,0.2-0.3,0.3-0.5,0.3c-1.5-0.3-3-0.8-4-2
			c-0.3-0.3-0.3-0.6,0-0.9c0.3-0.3,0.6-0.2,0.9,0.1c0.9,0.9,1.9,1.4,3.1,1.7C192.9,24.2,193,24.5,192.9,25z M193.3,22.8
			c-0.1,0.4-0.4,0.5-0.8,0.4c-1.9-0.5-2.9-1.7-2.9-3.6c0-0.2,0-0.4,0-0.6c0,0,0.1-1.3,0.1-2c-0.1-2.5-2.5-4.1-4.7-3.3
			c-1.2,0.5-1.8,1.4-2.2,2.6c-0.1,0.4-0.2,0.8-0.4,1.2c-0.5,1.1-1.5,1.6-2.7,1.5c-0.4-0.1-0.6-0.3-0.6-0.7c0-0.4,0.3-0.6,0.7-0.6
			c1.1,0,1.4-0.3,1.7-1.4c0.2-0.8,0.4-1.5,0.9-2.2c1.1-1.7,3.2-2.4,5.2-1.8c1.9,0.6,3.4,2.4,3.4,4.4c0,0.8-0.1,1.6-0.1,2.4
			c-0.1,1.6,0.3,2.2,1.9,2.8c0.1,0,0.1,0,0.2,0.1C193.2,22.2,193.4,22.5,193.3,22.8z M193.4,20.9c-0.2,0.3-0.5,0.4-0.8,0.2
			c-0.7-0.3-1.1-1.1-1-2.1c0.1-1.1,0.2-2.2,0-3.3c-0.6-2.5-2.8-4.3-5.4-4.3c-2.6,0-4.8,1.7-5.4,4.2c-0.1,0.3-0.1,0.6-0.2,0.8
			c-0.1,0.3-0.4,0.4-0.7,0.3c-0.3-0.1-0.5-0.4-0.4-0.7c0.7-4.2,4.5-6.4,8-5.8c3.1,0.5,5.8,3.4,5.6,7c0,0.2,0,0.4,0,0.7
			c0,0-0.1,0.8-0.1,1.2c0,0.4,0,0.7,0.4,1C193.6,20.3,193.6,20.6,193.4,20.9z"/>
	</g>
</g>
</svg>
